# Blender 3.5.0
# www.blender.org
mtllib GoalSkydome.mtl
o 立方体
v -25.000000 0.000000 200.000000
v -25.000000 60.000000 200.000000
v -25.000000 0.000000 0.000000
v -25.000000 60.000000 0.000000
v 25.000000 0.000000 200.000000
v 25.000000 60.000000 200.000000
v 25.000000 0.000000 0.000000
v 25.000000 60.000000 0.000000
vn 1.0000 -0.0000 -0.0000
vn -1.0000 -0.0000 -0.0000
vn -0.0000 -0.0000 -1.0000
vn -0.0000 1.0000 -0.0000
vn -0.0000 -1.0000 -0.0000
vt 0.483738 0.332737
vt 0.485479 0.333119
vt 0.298817 0.001493
vt 0.485483 0.899648
vt 0.485479 0.900886
vt 0.002966 0.901951
vt 0.244659 0.334564
vt 0.298752 0.332291
vt 0.246404 0.901475
vt 0.004542 0.998674
vt 0.721053 0.335275
vt 0.720883 0.333119
vt 0.220440 0.000865
vt 0.720830 0.900195
vt 0.720883 0.900886
vt 0.193790 0.901098
vt 1.003025 0.335472
vt 0.220376 0.331663
vt 1.002802 0.900392
vt 0.195365 0.997820
s 0
usemtl マテリアル
f 1/1/1 3/7/1 4/9/1 2/4/1
f 7/17/2 5/11/2 6/14/2 8/19/2
f 5/12/3 1/2/3 2/5/3 6/15/3
f 3/8/4 1/3/4 5/13/4 7/18/4
f 8/20/5 6/16/5 2/6/5 4/10/5
