# Blender 3.5.0
# www.blender.org
mtllib snow.mtl
o 球
v 0.000000 0.166294 -0.111114
v 0.000000 0.111114 -0.166294
v 0.000000 0.039018 -0.196157
v 0.000000 0.000000 -0.200000
v 0.000000 -0.039018 -0.196157
v 0.000000 -0.111114 -0.166294
v 0.007612 0.196157 -0.038268
v 0.014932 0.184776 -0.075066
v 0.021677 0.166294 -0.108979
v 0.027590 0.141421 -0.138704
v 0.032442 0.111114 -0.163099
v 0.036048 0.076537 -0.181225
v 0.038268 0.039018 -0.192388
v 0.039018 0.000000 -0.196157
v 0.038268 -0.039018 -0.192388
v 0.036048 -0.076537 -0.181225
v 0.032442 -0.111114 -0.163099
v 0.027590 -0.141421 -0.138704
v 0.021677 -0.166294 -0.108979
v 0.014932 -0.184776 -0.075066
v 0.007612 -0.196157 -0.038268
v 0.014932 0.196157 -0.036048
v 0.029289 0.184776 -0.070711
v 0.042522 0.166294 -0.102656
v 0.054120 0.141421 -0.130656
v 0.063638 0.111114 -0.153636
v 0.070711 0.076537 -0.170711
v 0.075066 0.039018 -0.181225
v 0.076537 0.000000 -0.184776
v 0.075066 -0.039018 -0.181225
v 0.070711 -0.076537 -0.170711
v 0.063638 -0.111114 -0.153636
v 0.054120 -0.141421 -0.130656
v 0.042522 -0.166294 -0.102656
v 0.029289 -0.184776 -0.070711
v 0.014932 -0.196157 -0.036048
v 0.021677 0.196157 -0.032442
v 0.042522 0.184776 -0.063638
v 0.061732 0.166294 -0.092388
v 0.078570 0.141421 -0.117588
v 0.092388 0.111114 -0.138268
v 0.102656 0.076537 -0.153636
v 0.108979 0.039018 -0.163099
v 0.111114 0.000000 -0.166294
v 0.108979 -0.039018 -0.163099
v 0.102656 -0.076537 -0.153636
v 0.092388 -0.111114 -0.138268
v 0.078570 -0.141421 -0.117588
v 0.061732 -0.166294 -0.092388
v 0.042522 -0.184776 -0.063638
v 0.021677 -0.196157 -0.032442
v 0.027590 0.196157 -0.027590
v 0.054120 0.184776 -0.054120
v 0.078570 0.166294 -0.078569
v 0.100000 0.141421 -0.100000
v 0.117588 0.111114 -0.117588
v 0.130656 0.076537 -0.130656
v 0.138704 0.039018 -0.138704
v 0.141421 0.000000 -0.141421
v 0.138704 -0.039018 -0.138704
v 0.130656 -0.076537 -0.130656
v 0.117588 -0.111114 -0.117588
v 0.100000 -0.141421 -0.100000
v 0.078570 -0.166294 -0.078569
v 0.054120 -0.184776 -0.054120
v 0.027590 -0.196157 -0.027590
v 0.032442 0.196157 -0.021677
v 0.063638 0.184776 -0.042522
v 0.092388 0.166294 -0.061732
v 0.117588 0.141421 -0.078569
v 0.138268 0.111114 -0.092388
v 0.153636 0.076537 -0.102656
v 0.163099 0.039018 -0.108979
v 0.166294 0.000000 -0.111114
v 0.163099 -0.039018 -0.108979
v 0.153636 -0.076537 -0.102656
v 0.138268 -0.111114 -0.092388
v 0.117588 -0.141421 -0.078569
v 0.092388 -0.166294 -0.061732
v 0.063638 -0.184776 -0.042522
v 0.032442 -0.196157 -0.021677
v 0.000000 0.200000 0.000000
v 0.036048 0.196157 -0.014932
v 0.070711 0.184776 -0.029289
v 0.102656 0.166294 -0.042521
v 0.130656 0.141421 -0.054120
v 0.153636 0.111114 -0.063638
v 0.170711 0.076537 -0.070711
v 0.181226 0.039018 -0.075066
v 0.184776 0.000000 -0.076537
v 0.181226 -0.039018 -0.075066
v 0.170711 -0.076537 -0.070711
v 0.153636 -0.111114 -0.063638
v 0.130656 -0.141421 -0.054120
v 0.102656 -0.166294 -0.042521
v 0.070711 -0.184776 -0.029289
v 0.036048 -0.196157 -0.014932
v 0.038268 0.196157 -0.007612
v 0.075066 0.184776 -0.014932
v 0.108979 0.166294 -0.021677
v 0.138704 0.141421 -0.027590
v 0.163099 0.111114 -0.032442
v 0.181226 0.076537 -0.036048
v 0.192388 0.039018 -0.038268
v 0.196157 0.000000 -0.039018
v 0.192388 -0.039018 -0.038268
v 0.181226 -0.076537 -0.036048
v 0.163099 -0.111114 -0.032442
v 0.138704 -0.141421 -0.027590
v 0.108979 -0.166294 -0.021677
v 0.075066 -0.184776 -0.014932
v 0.038268 -0.196157 -0.007612
v 0.039018 0.196157 0.000000
v 0.076537 0.184776 0.000000
v 0.111114 0.166294 0.000000
v 0.141421 0.141421 -0.000000
v 0.166294 0.111114 0.000000
v 0.184776 0.076537 -0.000000
v 0.196157 0.039018 0.000000
v 0.200000 0.000000 0.000000
v 0.196157 -0.039018 0.000000
v 0.184776 -0.076537 -0.000000
v 0.166294 -0.111114 0.000000
v 0.141421 -0.141421 -0.000000
v 0.111114 -0.166294 0.000000
v 0.076537 -0.184776 0.000000
v 0.039018 -0.196157 0.000000
v 0.038268 0.196157 0.007612
v 0.075066 0.184776 0.014932
v 0.108979 0.166294 0.021677
v 0.138704 0.141421 0.027590
v 0.163099 0.111114 0.032442
v 0.181226 0.076537 0.036048
v 0.192388 0.039018 0.038268
v 0.196157 0.000000 0.039018
v 0.192388 -0.039018 0.038268
v 0.181226 -0.076537 0.036048
v 0.163099 -0.111114 0.032442
v 0.138704 -0.141421 0.027590
v 0.108979 -0.166294 0.021677
v 0.075066 -0.184776 0.014932
v 0.038268 -0.196157 0.007612
v 0.036048 0.196157 0.014932
v 0.070711 0.184776 0.029289
v 0.102656 0.166294 0.042522
v 0.130656 0.141421 0.054120
v 0.153636 0.111114 0.063638
v 0.170711 0.076537 0.070711
v 0.181226 0.039018 0.075066
v 0.184776 0.000000 0.076537
v 0.181226 -0.039018 0.075066
v 0.170711 -0.076537 0.070711
v 0.153636 -0.111114 0.063638
v 0.130656 -0.141421 0.054120
v 0.102656 -0.166294 0.042522
v 0.070711 -0.184776 0.029289
v 0.036048 -0.196157 0.014932
v 0.032442 0.196157 0.021677
v 0.063638 0.184776 0.042522
v 0.092388 0.166294 0.061732
v 0.117588 0.141421 0.078569
v 0.138268 0.111114 0.092388
v 0.153636 0.076537 0.102656
v 0.163099 0.039018 0.108979
v 0.166294 0.000000 0.111114
v 0.163099 -0.039018 0.108979
v 0.153636 -0.076537 0.102656
v 0.138268 -0.111114 0.092388
v 0.117588 -0.141421 0.078569
v 0.092388 -0.166294 0.061732
v 0.063638 -0.184776 0.042522
v 0.032442 -0.196157 0.021677
v 0.027590 0.196157 0.027590
v 0.054120 0.184776 0.054120
v 0.078570 0.166294 0.078569
v 0.100000 0.141421 0.100000
v 0.117588 0.111114 0.117588
v 0.130656 0.076537 0.130656
v 0.138704 0.039018 0.138704
v 0.141421 0.000000 0.141421
v 0.138704 -0.039018 0.138704
v 0.130656 -0.076537 0.130656
v 0.117588 -0.111114 0.117588
v 0.100000 -0.141421 0.100000
v 0.078570 -0.166294 0.078569
v 0.054120 -0.184776 0.054120
v 0.027590 -0.196157 0.027590
v 0.021677 0.196157 0.032442
v 0.042522 0.184776 0.063638
v 0.061732 0.166294 0.092388
v 0.078570 0.141421 0.117588
v 0.092388 0.111114 0.138268
v 0.102656 0.076537 0.153636
v 0.108979 0.039018 0.163099
v 0.111114 0.000000 0.166294
v 0.108979 -0.039018 0.163099
v 0.102656 -0.076537 0.153636
v 0.092388 -0.111114 0.138268
v 0.078570 -0.141421 0.117588
v 0.061732 -0.166294 0.092388
v 0.042522 -0.184776 0.063638
v 0.021677 -0.196157 0.032442
v 0.014932 0.196157 0.036048
v 0.029289 0.184776 0.070711
v 0.042521 0.166294 0.102656
v 0.054120 0.141421 0.130656
v 0.063638 0.111114 0.153636
v 0.070711 0.076537 0.170711
v 0.075066 0.039018 0.181225
v 0.076537 0.000000 0.184776
v 0.075066 -0.039018 0.181225
v 0.070711 -0.076537 0.170711
v 0.063638 -0.111114 0.153636
v 0.054120 -0.141421 0.130656
v 0.042521 -0.166294 0.102656
v 0.029289 -0.184776 0.070711
v 0.014932 -0.196157 0.036048
v 0.007612 0.196157 0.038268
v 0.014932 0.184776 0.075066
v 0.021677 0.166294 0.108979
v 0.027590 0.141421 0.138704
v 0.032442 0.111114 0.163099
v 0.036048 0.076537 0.181225
v 0.038268 0.039018 0.192388
v 0.039018 0.000000 0.196157
v 0.038268 -0.039018 0.192388
v 0.036048 -0.076537 0.181225
v 0.032442 -0.111114 0.163099
v 0.027590 -0.141421 0.138704
v 0.021677 -0.166294 0.108979
v 0.014932 -0.184776 0.075066
v 0.007612 -0.196157 0.038268
v -0.000000 0.196157 0.039018
v -0.000000 0.184776 0.076537
v -0.000000 0.166294 0.111114
v -0.000000 0.141421 0.141421
v -0.000000 0.111114 0.166294
v 0.000000 0.076537 0.184776
v -0.000000 0.039018 0.196157
v -0.000000 0.000000 0.200000
v -0.000000 -0.039018 0.196157
v 0.000000 -0.076537 0.184776
v -0.000000 -0.111114 0.166294
v -0.000000 -0.141421 0.141421
v -0.000000 -0.166294 0.111114
v -0.000000 -0.184776 0.076537
v -0.000000 -0.196157 0.039018
v -0.007612 0.196157 0.038268
v -0.014932 0.184776 0.075066
v -0.021677 0.166294 0.108979
v -0.027590 0.141421 0.138704
v -0.032442 0.111114 0.163099
v -0.036048 0.076537 0.181225
v -0.038268 0.039018 0.192388
v -0.039018 0.000000 0.196157
v -0.038268 -0.039018 0.192388
v -0.036048 -0.076537 0.181225
v -0.032442 -0.111114 0.163099
v -0.027590 -0.141421 0.138704
v -0.021677 -0.166294 0.108979
v -0.014932 -0.184776 0.075066
v -0.007612 -0.196157 0.038268
v -0.014932 0.196157 0.036048
v -0.029289 0.184776 0.070711
v -0.042522 0.166294 0.102656
v -0.054120 0.141421 0.130656
v -0.063638 0.111114 0.153635
v -0.070711 0.076537 0.170711
v -0.075066 0.039018 0.181225
v -0.076537 0.000000 0.184776
v -0.075066 -0.039018 0.181225
v -0.070711 -0.076537 0.170711
v -0.063638 -0.111114 0.153635
v -0.054120 -0.141421 0.130656
v -0.042522 -0.166294 0.102656
v -0.029289 -0.184776 0.070711
v -0.014932 -0.196157 0.036048
v -0.021677 0.196157 0.032442
v -0.042522 0.184776 0.063638
v -0.061732 0.166294 0.092388
v -0.078570 0.141421 0.117588
v -0.092388 0.111114 0.138268
v -0.102656 0.076537 0.153636
v -0.108979 0.039018 0.163099
v -0.111114 0.000000 0.166294
v -0.108979 -0.039018 0.163099
v -0.102656 -0.076537 0.153636
v -0.092388 -0.111114 0.138268
v -0.078570 -0.141421 0.117588
v -0.061732 -0.166294 0.092388
v -0.042522 -0.184776 0.063638
v -0.021677 -0.196157 0.032442
v -0.027590 0.196157 0.027590
v -0.054120 0.184776 0.054120
v -0.078570 0.166294 0.078569
v -0.100000 0.141421 0.100000
v -0.117588 0.111114 0.117587
v -0.130656 0.076537 0.130656
v -0.138704 0.039018 0.138704
v -0.141421 0.000000 0.141421
v -0.138704 -0.039018 0.138704
v -0.130656 -0.076537 0.130656
v -0.117588 -0.111114 0.117587
v -0.100000 -0.141421 0.100000
v -0.078570 -0.166294 0.078569
v -0.054120 -0.184776 0.054120
v -0.027590 -0.196157 0.027590
v 0.000000 -0.200000 0.000000
v -0.032442 0.196157 0.021677
v -0.063638 0.184776 0.042521
v -0.092388 0.166294 0.061732
v -0.117588 0.141421 0.078569
v -0.138268 0.111114 0.092388
v -0.153636 0.076537 0.102656
v -0.163099 0.039018 0.108979
v -0.166294 0.000000 0.111114
v -0.163099 -0.039018 0.108979
v -0.153636 -0.076537 0.102656
v -0.138268 -0.111114 0.092388
v -0.117588 -0.141421 0.078569
v -0.092388 -0.166294 0.061732
v -0.063638 -0.184776 0.042521
v -0.032442 -0.196157 0.021677
v -0.036048 0.196157 0.014932
v -0.070711 0.184776 0.029289
v -0.102656 0.166294 0.042521
v -0.130656 0.141421 0.054120
v -0.153636 0.111114 0.063638
v -0.170711 0.076537 0.070711
v -0.181226 0.039018 0.075066
v -0.184776 0.000000 0.076537
v -0.181226 -0.039018 0.075066
v -0.170711 -0.076537 0.070711
v -0.153636 -0.111114 0.063638
v -0.130656 -0.141421 0.054120
v -0.102656 -0.166294 0.042521
v -0.070711 -0.184776 0.029289
v -0.036048 -0.196157 0.014932
v -0.038268 0.196157 0.007612
v -0.075066 0.184776 0.014932
v -0.108979 0.166294 0.021677
v -0.138704 0.141421 0.027590
v -0.163099 0.111114 0.032442
v -0.181226 0.076537 0.036048
v -0.192388 0.039018 0.038268
v -0.196157 0.000000 0.039018
v -0.192388 -0.039018 0.038268
v -0.181226 -0.076537 0.036048
v -0.163099 -0.111114 0.032442
v -0.138704 -0.141421 0.027590
v -0.108979 -0.166294 0.021677
v -0.075066 -0.184776 0.014932
v -0.038268 -0.196157 0.007612
v -0.039018 0.196157 -0.000000
v -0.076537 0.184776 -0.000000
v -0.111114 0.166294 -0.000000
v -0.141421 0.141421 -0.000000
v -0.166294 0.111114 -0.000000
v -0.184776 0.076537 -0.000000
v -0.196157 0.039018 -0.000000
v -0.200000 0.000000 -0.000000
v -0.196157 -0.039018 -0.000000
v -0.184776 -0.076537 -0.000000
v -0.166294 -0.111114 -0.000000
v -0.141421 -0.141421 -0.000000
v -0.111114 -0.166294 -0.000000
v -0.076537 -0.184776 -0.000000
v -0.039018 -0.196157 -0.000000
v -0.038268 0.196157 -0.007612
v -0.075066 0.184776 -0.014932
v -0.108979 0.166294 -0.021677
v -0.138704 0.141421 -0.027590
v -0.163099 0.111114 -0.032442
v -0.181226 0.076537 -0.036048
v -0.192388 0.039018 -0.038268
v -0.196157 0.000000 -0.039018
v -0.192388 -0.039018 -0.038268
v -0.181226 -0.076537 -0.036048
v -0.163099 -0.111114 -0.032442
v -0.138704 -0.141421 -0.027590
v -0.108979 -0.166294 -0.021677
v -0.075066 -0.184776 -0.014932
v -0.038268 -0.196157 -0.007612
v -0.036048 0.196157 -0.014932
v -0.070711 0.184776 -0.029289
v -0.102656 0.166294 -0.042521
v -0.130656 0.141421 -0.054120
v -0.153636 0.111114 -0.063638
v -0.170711 0.076537 -0.070711
v -0.181225 0.039018 -0.075066
v -0.184776 0.000000 -0.076537
v -0.181225 -0.039018 -0.075066
v -0.170711 -0.076537 -0.070711
v -0.153636 -0.111114 -0.063638
v -0.130656 -0.141421 -0.054120
v -0.102656 -0.166294 -0.042521
v -0.070711 -0.184776 -0.029289
v -0.036048 -0.196157 -0.014932
v -0.032442 0.196157 -0.021677
v -0.063638 0.184776 -0.042521
v -0.092388 0.166294 -0.061732
v -0.117588 0.141421 -0.078569
v -0.138268 0.111114 -0.092388
v -0.153636 0.076537 -0.102656
v -0.163099 0.039018 -0.108979
v -0.166294 0.000000 -0.111114
v -0.163099 -0.039018 -0.108979
v -0.153636 -0.076537 -0.102656
v -0.138268 -0.111114 -0.092388
v -0.117588 -0.141421 -0.078569
v -0.092388 -0.166294 -0.061732
v -0.063638 -0.184776 -0.042521
v -0.032442 -0.196157 -0.021677
v -0.027590 0.196157 -0.027590
v -0.054120 0.184776 -0.054120
v -0.078569 0.166294 -0.078569
v -0.100000 0.141421 -0.100000
v -0.117588 0.111114 -0.117588
v -0.130656 0.076537 -0.130656
v -0.138704 0.039018 -0.138704
v -0.141421 0.000000 -0.141421
v -0.138704 -0.039018 -0.138704
v -0.130656 -0.076537 -0.130656
v -0.117588 -0.111114 -0.117588
v -0.100000 -0.141421 -0.100000
v -0.078569 -0.166294 -0.078569
v -0.054120 -0.184776 -0.054120
v -0.027590 -0.196157 -0.027590
v -0.021677 0.196157 -0.032442
v -0.042521 0.184776 -0.063638
v -0.061732 0.166294 -0.092388
v -0.078570 0.141421 -0.117588
v -0.092388 0.111114 -0.138268
v -0.102656 0.076537 -0.153635
v -0.108979 0.039018 -0.163099
v -0.111114 0.000000 -0.166294
v -0.108979 -0.039018 -0.163099
v -0.102656 -0.076537 -0.153635
v -0.092388 -0.111114 -0.138268
v -0.078570 -0.141421 -0.117588
v -0.061732 -0.166294 -0.092388
v -0.042521 -0.184776 -0.063638
v -0.021677 -0.196157 -0.032442
v -0.014932 0.196157 -0.036048
v -0.029289 0.184776 -0.070711
v -0.042521 0.166294 -0.102656
v -0.054120 0.141421 -0.130656
v -0.063638 0.111114 -0.153635
v -0.070711 0.076537 -0.170711
v -0.075066 0.039018 -0.181225
v -0.076537 0.000000 -0.184776
v -0.075066 -0.039018 -0.181225
v -0.070711 -0.076537 -0.170711
v -0.063638 -0.111114 -0.153635
v -0.054120 -0.141421 -0.130656
v -0.042521 -0.166294 -0.102656
v -0.029289 -0.184776 -0.070711
v -0.014932 -0.196157 -0.036048
v -0.007612 0.196157 -0.038268
v -0.014932 0.184776 -0.075066
v -0.021677 0.166294 -0.108979
v -0.027590 0.141421 -0.138704
v -0.032442 0.111114 -0.163099
v -0.036048 0.076537 -0.181225
v -0.038268 0.039018 -0.192388
v -0.039018 0.000000 -0.196157
v -0.038268 -0.039018 -0.192388
v -0.036048 -0.076537 -0.181225
v -0.032442 -0.111114 -0.163099
v -0.027590 -0.141421 -0.138704
v -0.021677 -0.166294 -0.108979
v -0.014932 -0.184776 -0.075066
v -0.007612 -0.196157 -0.038268
v 0.000000 0.196157 -0.039018
v 0.000000 0.184776 -0.076537
v 0.000000 0.141421 -0.141421
v 0.000000 0.076537 -0.184776
v 0.000000 -0.076537 -0.184776
v 0.000000 -0.141421 -0.141421
v 0.000000 -0.166294 -0.111114
v 0.000000 -0.184776 -0.076537
v 0.000000 -0.196157 -0.039018
vn -0.0000 0.7041 -0.7101
vn 0.1626 0.5528 -0.8173
vn -0.0000 0.5528 -0.8333
vn -0.0000 -0.7041 -0.7101
vn 0.1092 -0.8286 -0.5490
vn -0.0000 -0.8286 -0.5598
vn -0.0000 0.3805 -0.9248
vn 0.1804 0.3805 -0.9070
vn 0.0757 -0.9217 -0.3804
vn -0.0000 -0.9217 -0.3879
vn -0.0000 0.1939 -0.9810
vn 0.1914 0.1939 -0.9622
vn 0.0392 -0.9796 -0.1971
vn -0.0000 -0.9796 -0.2010
vn 0.1951 -0.0000 -0.9808
vn -0.0000 -0.0000 -1.0000
vn -0.0000 0.9796 -0.2010
vn -0.0000 1.0000 -0.0000
vn 0.0392 0.9796 -0.1971
vn -0.0000 -1.0000 -0.0000
vn 0.1914 -0.1939 -0.9622
vn -0.0000 -0.1939 -0.9810
vn -0.0000 0.9217 -0.3879
vn 0.0757 0.9217 -0.3804
vn 0.1804 -0.3805 -0.9070
vn -0.0000 -0.3805 -0.9248
vn -0.0000 0.8286 -0.5598
vn 0.1092 0.8286 -0.5490
vn 0.1626 -0.5528 -0.8173
vn -0.0000 -0.5528 -0.8333
vn 0.1385 0.7041 -0.6965
vn 0.1385 -0.7041 -0.6965
vn 0.3539 -0.3805 -0.8544
vn 0.3189 -0.5528 -0.7699
vn 0.2718 0.7041 -0.6561
vn 0.2718 -0.7041 -0.6561
vn 0.3189 0.5528 -0.7699
vn 0.2142 -0.8286 -0.5172
vn 0.3539 0.3805 -0.8544
vn 0.1484 -0.9217 -0.3584
vn 0.3754 0.1939 -0.9063
vn 0.0769 -0.9796 -0.1857
vn 0.3827 -0.0000 -0.9239
vn 0.0769 0.9796 -0.1857
vn 0.3754 -0.1939 -0.9063
vn 0.1484 0.9217 -0.3584
vn 0.2142 0.8286 -0.5172
vn 0.2155 -0.9217 -0.3225
vn 0.1117 -0.9796 -0.1671
vn 0.5450 0.1939 -0.8157
vn 0.5556 -0.0000 -0.8315
vn 0.1117 0.9796 -0.1671
vn 0.5450 -0.1939 -0.8157
vn 0.2155 0.9217 -0.3225
vn 0.5138 -0.3805 -0.7689
vn 0.3110 0.8286 -0.4654
vn 0.4630 -0.5528 -0.6929
vn 0.3945 0.7041 -0.5905
vn 0.3945 -0.7041 -0.5905
vn 0.4630 0.5528 -0.6929
vn 0.3110 -0.8286 -0.4654
vn 0.5138 0.3805 -0.7689
vn 0.5021 -0.7041 -0.5021
vn 0.5021 0.7041 -0.5021
vn 0.5893 0.5528 -0.5893
vn 0.3958 -0.8286 -0.3958
vn 0.6539 0.3805 -0.6539
vn 0.2743 -0.9217 -0.2743
vn 0.6937 0.1939 -0.6937
vn 0.1421 -0.9796 -0.1421
vn 0.7071 -0.0000 -0.7071
vn 0.1421 0.9796 -0.1421
vn 0.6937 -0.1939 -0.6937
vn 0.2743 0.9217 -0.2743
vn 0.6539 -0.3805 -0.6539
vn 0.3958 0.8286 -0.3958
vn 0.5893 -0.5528 -0.5893
vn 0.1671 0.9796 -0.1117
vn 0.1671 -0.9796 -0.1117
vn 0.8157 -0.1939 -0.5450
vn 0.3225 0.9217 -0.2155
vn 0.7689 -0.3805 -0.5138
vn 0.4654 0.8286 -0.3110
vn 0.6929 -0.5528 -0.4630
vn 0.5905 0.7041 -0.3945
vn 0.5905 -0.7041 -0.3945
vn 0.6929 0.5528 -0.4630
vn 0.4654 -0.8286 -0.3110
vn 0.7689 0.3805 -0.5138
vn 0.3225 -0.9217 -0.2155
vn 0.8157 0.1939 -0.5450
vn 0.8315 -0.0000 -0.5556
vn 0.6561 0.7041 -0.2718
vn 0.7699 0.5528 -0.3189
vn 0.6561 -0.7041 -0.2718
vn 0.5172 -0.8286 -0.2142
vn 0.8544 0.3805 -0.3539
vn 0.3584 -0.9217 -0.1484
vn 0.9063 0.1939 -0.3754
vn 0.1857 -0.9796 -0.0769
vn 0.9239 -0.0000 -0.3827
vn 0.1857 0.9796 -0.0769
vn 0.9063 -0.1939 -0.3754
vn 0.3584 0.9217 -0.1484
vn 0.8544 -0.3805 -0.3539
vn 0.5172 0.8286 -0.2142
vn 0.7699 -0.5528 -0.3189
vn 0.9622 -0.1939 -0.1914
vn 0.3804 0.9217 -0.0757
vn 0.9070 -0.3805 -0.1804
vn 0.5490 0.8286 -0.1092
vn 0.8173 -0.5528 -0.1626
vn 0.6965 0.7041 -0.1385
vn 0.6965 -0.7041 -0.1385
vn 0.8173 0.5528 -0.1626
vn 0.5490 -0.8286 -0.1092
vn 0.9070 0.3805 -0.1804
vn 0.3804 -0.9217 -0.0757
vn 0.9622 0.1939 -0.1914
vn 0.1971 -0.9796 -0.0392
vn 0.9808 -0.0000 -0.1951
vn 0.1971 0.9796 -0.0392
vn 0.7101 -0.7041 -0.0000
vn 0.5598 -0.8286 -0.0000
vn 0.9248 0.3805 -0.0000
vn 0.3879 -0.9217 -0.0000
vn 0.9810 0.1939 -0.0000
vn 0.2010 -0.9796 -0.0000
vn 1.0000 -0.0000 -0.0000
vn 0.2010 0.9796 -0.0000
vn 0.9810 -0.1939 -0.0000
vn 0.3879 0.9217 -0.0000
vn 0.9248 -0.3805 -0.0000
vn 0.5598 0.8286 -0.0000
vn 0.8333 -0.5528 -0.0000
vn 0.7101 0.7041 -0.0000
vn 0.8333 0.5528 -0.0000
vn 0.1971 0.9796 0.0392
vn 0.3804 0.9217 0.0757
vn 0.9070 -0.3805 0.1804
vn 0.5490 0.8286 0.1092
vn 0.8173 -0.5528 0.1626
vn 0.6965 0.7041 0.1385
vn 0.6965 -0.7041 0.1385
vn 0.8173 0.5528 0.1626
vn 0.5490 -0.8286 0.1092
vn 0.9070 0.3805 0.1804
vn 0.3804 -0.9217 0.0757
vn 0.9622 0.1939 0.1914
vn 0.1971 -0.9796 0.0392
vn 0.9808 -0.0000 0.1951
vn 0.9622 -0.1939 0.1914
vn 0.8544 0.3805 0.3539
vn 0.5172 -0.8286 0.2142
vn 0.3584 -0.9217 0.1484
vn 0.9063 0.1939 0.3754
vn 0.1857 -0.9796 0.0769
vn 0.9239 -0.0000 0.3827
vn 0.1857 0.9796 0.0769
vn 0.9063 -0.1939 0.3754
vn 0.3584 0.9217 0.1484
vn 0.8544 -0.3805 0.3539
vn 0.5172 0.8286 0.2142
vn 0.7699 -0.5528 0.3189
vn 0.6561 0.7041 0.2718
vn 0.6561 -0.7041 0.2718
vn 0.7699 0.5528 0.3189
vn 0.7689 -0.3805 0.5138
vn 0.4654 0.8286 0.3110
vn 0.6929 -0.5528 0.4630
vn 0.5905 0.7041 0.3945
vn 0.5905 -0.7041 0.3945
vn 0.6929 0.5528 0.4630
vn 0.4654 -0.8286 0.3110
vn 0.7689 0.3805 0.5138
vn 0.3225 -0.9217 0.2155
vn 0.8157 0.1939 0.5450
vn 0.1671 -0.9796 0.1117
vn 0.8315 -0.0000 0.5556
vn 0.1671 0.9796 0.1117
vn 0.8157 -0.1939 0.5450
vn 0.3225 0.9217 0.2155
vn 0.3958 -0.8286 0.3958
vn 0.2743 -0.9217 0.2743
vn 0.6539 0.3805 0.6539
vn 0.6937 0.1939 0.6937
vn 0.1421 -0.9796 0.1421
vn 0.7071 -0.0000 0.7071
vn 0.1421 0.9796 0.1421
vn 0.6937 -0.1939 0.6937
vn 0.2743 0.9217 0.2743
vn 0.6539 -0.3805 0.6539
vn 0.3958 0.8286 0.3958
vn 0.5893 -0.5528 0.5893
vn 0.5021 0.7041 0.5021
vn 0.5021 -0.7041 0.5021
vn 0.5893 0.5528 0.5893
vn 0.5138 -0.3805 0.7689
vn 0.4630 -0.5528 0.6929
vn 0.3945 0.7041 0.5905
vn 0.3945 -0.7041 0.5905
vn 0.4630 0.5528 0.6929
vn 0.3110 -0.8286 0.4654
vn 0.5138 0.3805 0.7689
vn 0.2155 -0.9217 0.3225
vn 0.5450 0.1939 0.8157
vn 0.1117 -0.9796 0.1671
vn 0.5556 -0.0000 0.8315
vn 0.1117 0.9796 0.1671
vn 0.5450 -0.1939 0.8157
vn 0.2155 0.9217 0.3225
vn 0.3110 0.8286 0.4654
vn 0.1484 -0.9217 0.3584
vn 0.0769 -0.9796 0.1857
vn 0.3754 0.1939 0.9063
vn 0.3827 -0.0000 0.9239
vn 0.0769 0.9796 0.1857
vn 0.3754 -0.1939 0.9063
vn 0.1484 0.9217 0.3584
vn 0.3539 -0.3805 0.8544
vn 0.2142 0.8286 0.5172
vn 0.3189 -0.5528 0.7699
vn 0.2718 0.7041 0.6561
vn 0.2718 -0.7041 0.6561
vn 0.3189 0.5528 0.7699
vn 0.2142 -0.8286 0.5172
vn 0.3539 0.3805 0.8544
vn 0.1385 0.7041 0.6965
vn 0.1385 -0.7041 0.6965
vn 0.1626 0.5528 0.8173
vn 0.1092 -0.8286 0.5490
vn 0.1804 0.3805 0.9070
vn 0.0757 -0.9217 0.3804
vn 0.1914 0.1939 0.9622
vn 0.0392 -0.9796 0.1971
vn 0.1951 -0.0000 0.9808
vn 0.0392 0.9796 0.1971
vn 0.1914 -0.1939 0.9622
vn 0.0757 0.9217 0.3804
vn 0.1804 -0.3805 0.9070
vn 0.1092 0.8286 0.5490
vn 0.1626 -0.5528 0.8173
vn -0.0000 0.1939 0.9810
vn -0.0000 -0.0000 1.0000
vn -0.0000 0.9796 0.2010
vn -0.0000 -0.9796 0.2010
vn -0.0000 -0.1939 0.9810
vn -0.0000 0.9217 0.3879
vn -0.0000 -0.3805 0.9248
vn -0.0000 0.8286 0.5598
vn -0.0000 -0.5528 0.8333
vn -0.0000 0.7041 0.7101
vn -0.0000 -0.7041 0.7101
vn -0.0000 0.5528 0.8333
vn -0.0000 -0.8286 0.5598
vn -0.0000 0.3805 0.9248
vn -0.0000 -0.9217 0.3879
vn -0.1385 -0.7041 0.6965
vn -0.1385 0.7041 0.6965
vn -0.1626 0.5528 0.8173
vn -0.1092 -0.8286 0.5490
vn -0.1804 0.3805 0.9070
vn -0.0757 -0.9217 0.3804
vn -0.1914 0.1939 0.9622
vn -0.0392 -0.9796 0.1971
vn -0.1951 -0.0000 0.9808
vn -0.0392 0.9796 0.1971
vn -0.1914 -0.1939 0.9622
vn -0.0757 0.9217 0.3804
vn -0.1804 -0.3805 0.9070
vn -0.1092 0.8286 0.5490
vn -0.1626 -0.5528 0.8173
vn -0.0769 0.9796 0.1857
vn -0.0769 -0.9796 0.1857
vn -0.3754 -0.1939 0.9063
vn -0.1484 0.9217 0.3584
vn -0.3539 -0.3805 0.8544
vn -0.2142 0.8286 0.5172
vn -0.3189 -0.5528 0.7699
vn -0.2718 0.7041 0.6561
vn -0.2718 -0.7041 0.6561
vn -0.3189 0.5528 0.7699
vn -0.2142 -0.8286 0.5172
vn -0.3539 0.3805 0.8544
vn -0.1484 -0.9217 0.3584
vn -0.3754 0.1939 0.9063
vn -0.3827 -0.0000 0.9239
vn -0.3945 0.7041 0.5905
vn -0.4630 0.5528 0.6929
vn -0.3945 -0.7041 0.5905
vn -0.3110 -0.8286 0.4654
vn -0.5138 0.3805 0.7689
vn -0.2155 -0.9217 0.3225
vn -0.5450 0.1939 0.8157
vn -0.1117 -0.9796 0.1671
vn -0.5556 -0.0000 0.8315
vn -0.1117 0.9796 0.1671
vn -0.5450 -0.1939 0.8157
vn -0.2155 0.9217 0.3225
vn -0.5138 -0.3805 0.7689
vn -0.3110 0.8286 0.4654
vn -0.4630 -0.5528 0.6929
vn -0.6937 -0.1939 0.6937
vn -0.2743 0.9217 0.2743
vn -0.6539 -0.3805 0.6539
vn -0.3958 0.8286 0.3958
vn -0.5893 -0.5528 0.5893
vn -0.5021 0.7041 0.5021
vn -0.5021 -0.7041 0.5021
vn -0.5893 0.5528 0.5893
vn -0.3958 -0.8286 0.3958
vn -0.6539 0.3805 0.6539
vn -0.2743 -0.9217 0.2743
vn -0.6937 0.1939 0.6937
vn -0.1421 -0.9796 0.1421
vn -0.7071 -0.0000 0.7071
vn -0.1421 0.9796 0.1421
vn -0.5905 -0.7041 0.3945
vn -0.4654 -0.8286 0.3110
vn -0.7689 0.3805 0.5138
vn -0.3225 -0.9217 0.2155
vn -0.8157 0.1939 0.5450
vn -0.1671 -0.9796 0.1117
vn -0.8315 -0.0000 0.5556
vn -0.1671 0.9796 0.1117
vn -0.8157 -0.1939 0.5450
vn -0.3225 0.9217 0.2155
vn -0.7689 -0.3805 0.5138
vn -0.4654 0.8286 0.3110
vn -0.6929 -0.5528 0.4630
vn -0.5905 0.7041 0.3945
vn -0.6929 0.5528 0.4630
vn -0.8544 -0.3805 0.3539
vn -0.5172 0.8286 0.2142
vn -0.7699 -0.5528 0.3189
vn -0.6561 0.7041 0.2718
vn -0.6561 -0.7041 0.2718
vn -0.7699 0.5528 0.3189
vn -0.5172 -0.8286 0.2142
vn -0.8544 0.3805 0.3539
vn -0.3584 -0.9217 0.1484
vn -0.9063 0.1939 0.3754
vn -0.1857 -0.9796 0.0769
vn -0.9239 -0.0000 0.3827
vn -0.1857 0.9796 0.0769
vn -0.9063 -0.1939 0.3754
vn -0.3584 0.9217 0.1484
vn -0.3804 -0.9217 0.0757
vn -0.9070 0.3805 0.1804
vn -0.9622 0.1939 0.1914
vn -0.1971 -0.9796 0.0392
vn -0.9808 -0.0000 0.1951
vn -0.1971 0.9796 0.0392
vn -0.9622 -0.1939 0.1914
vn -0.3804 0.9217 0.0757
vn -0.9070 -0.3805 0.1804
vn -0.5490 0.8286 0.1092
vn -0.8173 -0.5528 0.1626
vn -0.6965 0.7041 0.1385
vn -0.6965 -0.7041 0.1385
vn -0.8173 0.5528 0.1626
vn -0.5490 -0.8286 0.1092
vn -0.3879 0.9217 -0.0000
vn -0.5598 0.8286 -0.0000
vn -0.9248 -0.3805 -0.0000
vn -0.8333 -0.5528 -0.0000
vn -0.7101 0.7041 -0.0000
vn -0.7101 -0.7041 -0.0000
vn -0.8333 0.5528 -0.0000
vn -0.5598 -0.8286 -0.0000
vn -0.9248 0.3805 -0.0000
vn -0.3879 -0.9217 -0.0000
vn -0.9810 0.1939 -0.0000
vn -0.2010 -0.9796 -0.0000
vn -1.0000 -0.0000 -0.0000
vn -0.2010 0.9796 -0.0000
vn -0.9810 -0.1939 -0.0000
vn -0.9070 0.3805 -0.1804
vn -0.9622 0.1939 -0.1914
vn -0.1971 -0.9796 -0.0392
vn -0.9808 -0.0000 -0.1951
vn -0.1971 0.9796 -0.0392
vn -0.9622 -0.1939 -0.1914
vn -0.3804 0.9217 -0.0757
vn -0.9070 -0.3805 -0.1804
vn -0.5490 0.8286 -0.1092
vn -0.8173 -0.5528 -0.1626
vn -0.6965 0.7041 -0.1385
vn -0.6965 -0.7041 -0.1385
vn -0.8173 0.5528 -0.1626
vn -0.5490 -0.8286 -0.1092
vn -0.3804 -0.9217 -0.0757
vn -0.8544 -0.3805 -0.3539
vn -0.7699 -0.5528 -0.3189
vn -0.6561 0.7041 -0.2718
vn -0.6561 -0.7041 -0.2718
vn -0.7699 0.5528 -0.3189
vn -0.5172 -0.8286 -0.2142
vn -0.8544 0.3805 -0.3539
vn -0.3584 -0.9217 -0.1484
vn -0.9063 0.1939 -0.3754
vn -0.1857 -0.9796 -0.0769
vn -0.9239 -0.0000 -0.3827
vn -0.1857 0.9796 -0.0769
vn -0.9063 -0.1939 -0.3754
vn -0.3584 0.9217 -0.1484
vn -0.5172 0.8286 -0.2142
vn -0.3225 -0.9217 -0.2155
vn -0.1671 -0.9796 -0.1117
vn -0.8157 0.1939 -0.5450
vn -0.8315 -0.0000 -0.5556
vn -0.1671 0.9796 -0.1117
vn -0.8157 -0.1939 -0.5450
vn -0.3225 0.9217 -0.2155
vn -0.7689 -0.3805 -0.5138
vn -0.4654 0.8286 -0.3110
vn -0.6929 -0.5528 -0.4630
vn -0.5905 0.7041 -0.3945
vn -0.5905 -0.7041 -0.3945
vn -0.6929 0.5528 -0.4630
vn -0.4654 -0.8286 -0.3110
vn -0.7689 0.3805 -0.5138
vn -0.5021 0.7041 -0.5021
vn -0.5021 -0.7041 -0.5021
vn -0.5893 0.5528 -0.5893
vn -0.3958 -0.8286 -0.3958
vn -0.6539 0.3805 -0.6539
vn -0.2743 -0.9217 -0.2743
vn -0.6937 0.1939 -0.6937
vn -0.1421 -0.9796 -0.1421
vn -0.7071 -0.0000 -0.7071
vn -0.1421 0.9796 -0.1421
vn -0.6937 -0.1939 -0.6937
vn -0.2743 0.9217 -0.2743
vn -0.6539 -0.3805 -0.6539
vn -0.3958 0.8286 -0.3958
vn -0.5893 -0.5528 -0.5893
vn -0.5450 0.1939 -0.8157
vn -0.5556 -0.0000 -0.8315
vn -0.1117 0.9796 -0.1671
vn -0.1117 -0.9796 -0.1671
vn -0.5450 -0.1939 -0.8157
vn -0.2155 0.9217 -0.3225
vn -0.5138 -0.3805 -0.7689
vn -0.3110 0.8286 -0.4654
vn -0.4630 -0.5528 -0.6929
vn -0.3945 0.7041 -0.5905
vn -0.3945 -0.7041 -0.5905
vn -0.4630 0.5528 -0.6929
vn -0.3110 -0.8286 -0.4654
vn -0.5138 0.3805 -0.7689
vn -0.2155 -0.9217 -0.3225
vn -0.2718 -0.7041 -0.6561
vn -0.2718 0.7041 -0.6561
vn -0.3189 0.5528 -0.7699
vn -0.2142 -0.8286 -0.5172
vn -0.3539 0.3805 -0.8544
vn -0.1484 -0.9217 -0.3584
vn -0.3754 0.1939 -0.9063
vn -0.0769 -0.9796 -0.1857
vn -0.3827 -0.0000 -0.9239
vn -0.0769 0.9796 -0.1857
vn -0.3754 -0.1939 -0.9063
vn -0.1484 0.9217 -0.3584
vn -0.3539 -0.3805 -0.8544
vn -0.2142 0.8286 -0.5172
vn -0.3189 -0.5528 -0.7699
vn -0.0392 -0.9796 -0.1971
vn -0.1914 -0.1939 -0.9622
vn -0.0757 0.9217 -0.3804
vn -0.1804 -0.3805 -0.9070
vn -0.1092 0.8286 -0.5490
vn -0.1626 -0.5528 -0.8173
vn -0.1385 0.7041 -0.6965
vn -0.1385 -0.7041 -0.6965
vn -0.1626 0.5528 -0.8173
vn -0.1092 -0.8286 -0.5490
vn -0.1804 0.3805 -0.9070
vn -0.0757 -0.9217 -0.3804
vn -0.1914 0.1939 -0.9622
vn -0.1951 -0.0000 -0.9808
vn -0.0392 0.9796 -0.1971
vt 0.628639 0.606401
vt 0.485952 0.000499
vt 0.469154 0.069241
vt 0.461026 0.154124
vt 0.460657 0.198623
vt 0.462804 0.242224
vt 0.474217 0.320130
vt 0.559792 0.571062
vt 0.600543 0.579346
vt 0.638101 0.584459
vt 0.510206 0.000499
vt 0.507472 0.032120
vt 0.505453 0.069241
vt 0.504228 0.110437
vt 0.503843 0.154124
vt 0.504313 0.198623
vt 0.505620 0.242224
vt 0.507715 0.283252
vt 0.510516 0.320130
vt 0.513915 0.351440
vt 0.207238 0.674039
vt 0.214757 0.638848
vt 0.220229 0.599019
vt 0.223445 0.556083
vt 0.561485 0.562882
vt 0.603866 0.563301
vt 0.534925 0.000000
vt 0.642924 0.561166
vt 0.677159 0.556558
vt 0.538933 0.031485
vt 0.542447 0.068495
vt 0.545334 0.109607
vt 0.547481 0.153243
vt 0.548806 0.197725
vt 0.549258 0.241343
vt 0.548821 0.282422
vt 0.547510 0.319383
vt 0.545376 0.350805
vt 0.177118 0.670971
vt 0.191092 0.636438
vt 0.203928 0.597359
vt 0.215135 0.555237
vt 0.561485 0.554542
vt 0.603866 0.546942
vt 0.642924 0.537416
vt 0.677159 0.526330
vt 0.569777 0.030239
vt 0.578716 0.067030
vt 0.585633 0.107980
vt 0.590263 0.151516
vt 0.592426 0.195964
vt 0.592040 0.239616
vt 0.589121 0.280795
vt 0.128429 0.688913
vt 0.583779 0.317919
vt 0.576220 0.349560
vt 0.148104 0.661855
vt 0.168296 0.629275
vt 0.188226 0.592425
vt 0.207130 0.552721
vt 0.559792 0.546363
vt 0.600543 0.530897
vt 0.638101 0.514123
vt 0.671020 0.496683
vt 0.598819 0.028431
vt 0.612866 0.064904
vt 0.623578 0.105618
vt 0.630545 0.149008
vt 0.633497 0.193407
vt 0.632322 0.237108
vt 0.627065 0.278433
vt 0.617928 0.315793
vt 0.096923 0.671493
vt 0.121311 0.647041
vt 0.147244 0.617636
vt 0.173726 0.584408
vt 0.199738 0.548634
vt 0.556469 0.538658
vt 0.594026 0.515784
vt 0.628639 0.492181
vt 0.624942 0.026130
vt 0.658978 0.468756
vt 0.683876 0.446411
vt 0.643583 0.062199
vt 0.657710 0.102612
vt 0.666779 0.145816
vt 0.670441 0.190153
vt 0.668556 0.233917
vt 0.661197 0.275427
vt 0.044258 0.663996
vt 0.648646 0.313087
vt 0.069240 0.648043
vt 0.097769 0.627098
vt 0.128747 0.601967
vt 0.160985 0.573615
vt 0.193243 0.543132
vt 0.517411 0.559925
vt 0.551646 0.531724
vt 0.584565 0.502181
vt 0.614903 0.472434
vt 0.641495 0.443623
vt 0.669689 0.059017
vt 0.663319 0.416857
vt 0.679535 0.393164
vt 0.686717 0.099076
vt 0.748244 0.306944
vt 0.697572 0.142063
vt 0.789876 0.316514
vt 0.701838 0.186326
vt 0.833686 0.319448
vt 0.699350 0.230164
vt 0.877990 0.315634
vt 0.921085 0.305217
vt 0.690204 0.271891
vt 0.018928 0.632240
vt 0.046444 0.619463
vt 0.078382 0.602793
vt 0.113515 0.582871
vt 0.150493 0.560461
vt 0.187894 0.536426
vt 0.545507 0.525827
vt 0.572523 0.490614
vt 0.597421 0.455640
vt 0.619244 0.422249
vt 0.707473 0.264968
vt 0.637154 0.391724
vt 0.650463 0.365238
vt 0.745004 0.277902
vt 0.786437 0.285684
vt 0.830179 0.288014
vt 0.874551 0.284803
vt 0.000000 0.596004
vt 0.917846 0.276175
vt 0.958400 0.262461
vt 0.029409 0.586852
vt 0.063895 0.575059
vt 0.102133 0.561080
vt 0.142653 0.545452
vt 0.183897 0.528775
vt 0.538288 0.521193
vt 0.558363 0.481525
vt 0.576864 0.442445
vt 0.593080 0.405455
vt 0.606388 0.371977
vt 0.705080 0.234224
vt 0.742345 0.243742
vt 0.783614 0.249419
vt 0.827301 0.251039
vt 0.871728 0.248539
vt 0.915187 0.242015
vt 0.956008 0.231717
vt 0.018792 0.551463
vt 0.054866 0.544964
vt 0.095038 0.537434
vt 0.137766 0.529164
vt 0.181406 0.520471
vt 0.530267 0.518002
vt 0.542629 0.475265
vt 0.554022 0.433357
vt 0.564008 0.393888
vt 0.703302 0.200055
vt 0.572203 0.358375
vt 0.740370 0.205775
vt 0.781517 0.209114
vt 0.825163 0.209944
vt 0.869631 0.208233
vt 0.913211 0.204048
vt 0.014999 0.514655
vt 0.954230 0.197548
vt 0.991110 0.188984
vt 0.051640 0.513662
vt 0.092504 0.512841
vt 0.136020 0.512224
vt 0.180516 0.511835
vt 0.521752 0.516375
vt 0.525926 0.472073
vt 0.529773 0.428723
vt 0.533145 0.387991
vt 0.535912 0.351440
vt 0.702208 0.163773
vt 0.739153 0.165460
vt 0.780225 0.166316
vt 0.823846 0.166308
vt 0.868339 0.165436
vt 0.911995 0.163733
vt 0.953135 0.161266
vt 0.990178 0.158129
vt 0.054343 0.482357
vt 0.094628 0.488244
vt 0.137483 0.495282
vt 0.181262 0.503198
vt 0.513070 0.516375
vt 0.508896 0.472073
vt 0.505049 0.428723
vt 0.501677 0.387991
vt 0.498910 0.351440
vt 0.701838 0.126773
vt 0.738742 0.124348
vt 0.779789 0.122672
vt 0.823402 0.121808
vt 0.867903 0.121791
vt 0.911584 0.122621
vt 0.952765 0.124266
vt 0.989864 0.126663
vt 0.062870 0.452252
vt 0.101327 0.464591
vt 0.142097 0.478989
vt 0.183614 0.494892
vt 0.504555 0.518002
vt 0.492193 0.475265
vt 0.480800 0.433357
vt 0.470814 0.393888
vt 0.462619 0.358375
vt 0.702208 0.090477
vt 0.739153 0.084018
vt 0.780225 0.079857
vt 0.823846 0.078155
vt 0.868339 0.078977
vt 0.911995 0.082291
vt 0.953135 0.087969
vt 0.990178 0.095795
vt 0.076893 0.424504
vt 0.112345 0.442790
vt 0.149687 0.463972
vt 0.187483 0.487236
vt 0.496534 0.521193
vt 0.476459 0.481525
vt 0.457958 0.442445
vt 0.441742 0.405455
vt 0.428433 0.371977
vt 0.703302 0.056279
vt 0.740370 0.046019
vt 0.781517 0.039518
vt 0.825163 0.037025
vt 0.869631 0.038637
vt 0.913211 0.044292
vt 0.954230 0.053771
vt 0.067012 0.381214
vt 0.991110 0.066712
vt 0.095874 0.400179
vt 0.127258 0.423678
vt 0.159959 0.450808
vt 0.192720 0.480525
vt 0.489315 0.525827
vt 0.462299 0.490614
vt 0.437401 0.455640
vt 0.415577 0.422249
vt 0.705080 0.025493
vt 0.397667 0.391724
vt 0.975729 0.668207
vt 0.742345 0.011812
vt 0.989038 0.630808
vt 0.783614 0.003204
vt 0.997233 0.589455
vt 0.827301 0.000000
vt 1.000000 0.545738
vt 0.871728 0.002323
vt 0.997233 0.501336
vt 0.915187 0.010085
vt 0.989038 0.457957
vt 0.956008 0.022986
vt 0.094303 0.357736
vt 0.975729 0.417267
vt 0.957819 0.380831
vt 0.119083 0.380213
vt 0.145493 0.407990
vt 0.172520 0.440002
vt 0.199123 0.475016
vt 0.483176 0.531724
vt 0.450257 0.502181
vt 0.419918 0.472434
vt 0.393326 0.443623
vt 0.371503 0.416857
vt 0.944963 0.670293
vt 0.954852 0.633125
vt 0.960942 0.591915
vt 0.962998 0.548246
vt 0.960942 0.503796
vt 0.954852 0.460274
vt 0.944963 0.419353
vt 0.931655 0.382604
vt 0.145628 0.365371
vt 0.166350 0.396330
vt 0.186886 0.431970
vt 0.206447 0.470922
vt 0.478353 0.538658
vt 0.440795 0.515784
vt 0.406183 0.492181
vt 0.375844 0.468756
vt 0.902583 0.703211
vt 0.350946 0.446411
vt 0.910778 0.671729
vt 0.916868 0.634721
vt 0.920617 0.593609
vt 0.921884 0.549973
vt 0.920617 0.505491
vt 0.916868 0.461871
vt 0.910778 0.420789
vt 0.902583 0.383826
vt 0.174489 0.356226
vt 0.189026 0.389144
vt 0.202506 0.427020
vt 0.214410 0.468399
vt 0.475030 0.546363
vt 0.434278 0.530897
vt 0.396721 0.514123
vt 0.363802 0.496683
vt 0.871720 0.703834
vt 0.874487 0.672461
vt 0.876543 0.635535
vt 0.877809 0.594473
vt 0.878237 0.550854
vt 0.877809 0.506355
vt 0.876543 0.462684
vt 0.874487 0.421522
vt 0.204558 0.353128
vt 0.871720 0.384448
vt 0.868348 0.352889
vt 0.212651 0.386710
vt 0.218779 0.425343
vt 0.222706 0.467544
vt 0.473336 0.554542
vt 0.430956 0.546942
vt 0.391898 0.537416
vt 0.357663 0.526330
vt 0.840252 0.703834
vt 0.837485 0.672461
vt 0.835429 0.635535
vt 0.834162 0.594473
vt 0.833735 0.550854
vt 0.834162 0.506355
vt 0.835429 0.462684
vt 0.837485 0.421522
vt 0.840252 0.384448
vt 0.843624 0.352889
vt 0.236316 0.389120
vt 0.235079 0.427004
vt 0.231016 0.468390
vt 0.473336 0.562882
vt 0.430956 0.563301
vt 0.391898 0.561166
vt 0.357663 0.556558
vt 0.809389 0.703211
vt 0.801194 0.671729
vt 0.795104 0.634721
vt 0.791354 0.593609
vt 0.790088 0.549973
vt 0.791354 0.505491
vt 0.795104 0.461871
vt 0.801194 0.420789
vt 0.809389 0.383826
vt 0.819375 0.352400
vt 0.259112 0.396283
vt 0.250782 0.431937
vt 0.239021 0.470905
vt 0.475030 0.571062
vt 0.434278 0.579346
vt 0.396721 0.584459
vt 0.363802 0.586204
vt 0.780317 0.701990
vt 0.767008 0.670293
vt 0.757120 0.633125
vt 0.751030 0.591915
vt 0.748974 0.548246
vt 0.751030 0.503796
vt 0.757120 0.460274
vt 0.767009 0.419353
vt 0.780317 0.382604
vt 0.290485 0.380126
vt 0.796533 0.351440
vt 0.280163 0.407922
vt 0.265282 0.439955
vt 0.246413 0.474992
vt 0.224282 0.511689
vt 0.478353 0.578767
vt 0.440795 0.594460
vt 0.406183 0.606401
vt 0.754152 0.700216
vt 0.375844 0.614131
vt 0.350946 0.617353
vt 0.736242 0.668207
vt 0.722934 0.630808
vt 0.714739 0.589455
vt 0.003809 0.115942
vt 0.711972 0.545737
vt 0.000000 0.159685
vt 0.002929 0.204056
vt 0.714739 0.501336
vt 0.722934 0.457957
vt 0.736242 0.417267
vt 0.754152 0.380830
vt 0.314027 0.400069
vt 0.298660 0.423591
vt 0.278023 0.450748
vt 0.252908 0.480495
vt 0.483176 0.585701
vt 0.450257 0.608062
vt 0.419918 0.626148
vt 0.393326 0.639264
vt 0.075220 0.002758
vt 0.371503 0.646907
vt 0.710078 0.665553
vt 0.056991 0.034586
vt 0.693862 0.627858
vt 0.043310 0.071851
vt 0.683876 0.586324
vt 0.034702 0.113120
vt 0.031498 0.156807
vt 0.683876 0.498205
vt 0.033821 0.201234
vt 0.693862 0.455008
vt 0.041583 0.244693
vt 0.710078 0.414613
vt 0.054484 0.285513
vt 0.731902 0.378573
vt 0.333414 0.424374
vt 0.072029 0.322127
vt 0.313892 0.442688
vt 0.093544 0.353128
vt 0.288515 0.463902
vt 0.258257 0.487200
vt 0.489315 0.591598
vt 0.462299 0.619629
vt 0.437401 0.642942
vt 0.415577 0.660639
vt 0.101401 0.001246
vt 0.087776 0.032808
vt 0.077516 0.069875
vt 0.071015 0.111023
vt 0.068523 0.154669
vt 0.070135 0.199137
vt 0.075789 0.242717
vt 0.085269 0.283735
vt 0.098210 0.320615
vt 0.114114 0.351940
vt 0.325274 0.464478
vt 0.296355 0.478911
vt 0.262254 0.494852
vt 0.496534 0.596231
vt 0.476459 0.628718
vt 0.457958 0.656136
vt 0.441742 0.677432
vt 0.130484 0.000314
vt 0.121974 0.031713
vt 0.115515 0.068659
vt 0.111355 0.109731
vt 0.109653 0.153352
vt 0.110474 0.197845
vt 0.113788 0.241500
vt 0.119467 0.282640
vt 0.127293 0.319684
vt 0.136964 0.351208
vt 0.332369 0.488124
vt 0.301242 0.495199
vt 0.264745 0.503156
vt 0.504555 0.599423
vt 0.492193 0.634978
vt 0.480800 0.665225
vt 0.470814 0.689000
vt 0.161351 0.000000
vt 0.158271 0.031344
vt 0.155846 0.068248
vt 0.154169 0.109295
vt 0.153306 0.152907
vt 0.153289 0.197409
vt 0.154119 0.241090
vt 0.155764 0.282271
vt 0.158160 0.319370
vt 0.161217 0.350961
vt 0.334903 0.512718
vt 0.302987 0.512139
vt 0.265635 0.511792
vt 0.513070 0.601050
vt 0.508896 0.638170
vt 0.505049 0.669858
vt 0.501677 0.694897
vt 0.192817 0.000314
vt 0.195271 0.031713
vt 0.196958 0.068659
vt 0.197814 0.109731
vt 0.197806 0.153352
vt 0.196934 0.197845
vt 0.195231 0.241500
vt 0.192764 0.282640
vt 0.189626 0.319684
vt 0.185939 0.351208
vt 0.332780 0.537314
vt 0.301525 0.529081
vt 0.264890 0.520429
vt 0.521752 0.601050
vt 0.525926 0.638170
vt 0.529773 0.669858
vt 0.533145 0.694897
vt 0.223673 0.001246
vt 0.231553 0.032808
vt 0.237272 0.069875
vt 0.240611 0.111023
vt 0.241442 0.154669
vt 0.239731 0.199137
vt 0.235545 0.242717
vt 0.229046 0.283735
vt 0.220482 0.320615
vt 0.210182 0.351940
vt 0.326080 0.560967
vt 0.296910 0.545374
vt 0.262537 0.528735
vt 0.530267 0.599423
vt 0.542629 0.634978
vt 0.554022 0.665225
vt 0.564008 0.689000
vt 0.252731 0.002758
vt 0.265722 0.034586
vt 0.275239 0.071851
vt 0.280917 0.113120
vt 0.282537 0.156807
vt 0.280037 0.201234
vt 0.273512 0.244693
vt 0.263215 0.285513
vt 0.249540 0.322127
vt 0.334903 0.602663
vt 0.233013 0.353128
vt 0.315062 0.582768
vt 0.289321 0.560391
vt 0.258668 0.536390
vt 0.538288 0.596231
vt 0.558363 0.628718
vt 0.576864 0.656136
vt 0.593080 0.677432
vt 0.278877 0.004792
vt 0.399024 0.028431
vt 0.296466 0.036979
vt 0.377933 0.064904
vt 0.309400 0.074510
vt 0.362535 0.105618
vt 0.317182 0.115942
vt 0.353422 0.149008
vt 0.350946 0.193407
vt 0.319512 0.159685
vt 0.316301 0.204056
vt 0.307673 0.247351
vt 0.293959 0.287906
vt 0.275686 0.324162
vt 0.315922 0.626987
vt 0.300149 0.601880
vt 0.279049 0.573555
vt 0.253431 0.543101
vt 0.545507 0.591598
vt 0.572523 0.619629
vt 0.597421 0.642941
vt 0.619244 0.660639
vt 0.421316 0.030239
vt 0.404145 0.067030
vt 0.391661 0.107980
vt 0.384342 0.151516
vt 0.350946 0.163191
vt 0.382472 0.195964
vt 0.347131 0.207495
vt 0.386120 0.239616
vt 0.336714 0.250591
vt 0.395148 0.280795
vt 0.320095 0.290822
vt 0.409208 0.317919
vt 0.427760 0.349560
vt 0.297913 0.326642
vt 0.292713 0.646954
vt 0.281914 0.617568
vt 0.266488 0.584361
vt 0.247028 0.548610
vt 0.551646 0.585701
vt 0.584565 0.608062
vt 0.614903 0.626148
vt 0.463096 0.000000
vt 0.641495 0.639264
vt 0.447511 0.031485
vt 0.434947 0.068494
vt 0.425886 0.109607
vt 0.420675 0.153243
vt 0.419517 0.197725
vt 0.422453 0.241343
vt 0.429373 0.282422
vt 0.440010 0.319383
vt 0.453955 0.350805
vt 0.266168 0.661795
vt 0.261057 0.629228
vt 0.252122 0.592393
vt 0.239704 0.552705
vt 0.556469 0.578767
vt 0.594026 0.594460
vt 0.476602 0.032120
vt 0.463895 0.110437
vt 0.467382 0.283252
vt 0.237307 0.670941
vt 0.483046 0.351440
vt 0.238381 0.636414
vt 0.236502 0.597343
vt 0.231741 0.555228
s 1
usemtl マテリアル
f 476/589/1 11/13/2 2/3/3
f 479/592/4 19/22/5 480/594/6
f 477/590/7 11/13/2 12/14/8
f 480/594/6 20/23/9 481/595/10
f 3/4/11 12/14/8 13/15/12
f 481/595/10 21/24/13 482/596/14
f 3/4/11 14/16/15 4/5/16
f 474/587/17 82/97/18 7/8/19
f 308/374/20 482/596/14 21/24/13
f 4/5/16 15/17/21 5/6/22
f 475/588/23 7/8/19 8/9/24
f 5/6/22 16/18/25 478/591/26
f 1/1/27 8/9/24 9/10/28
f 478/591/26 17/19/29 6/7/30
f 476/589/1 9/11/28 10/12/31
f 479/593/4 17/19/29 18/20/32
f 17/19/29 31/36/33 32/37/34
f 9/11/28 25/30/35 10/12/31
f 18/20/32 32/37/34 33/38/36
f 10/12/31 26/31/37 11/13/2
f 19/22/5 33/39/36 34/40/38
f 11/13/2 27/32/39 12/14/8
f 20/23/9 34/40/38 35/41/40
f 13/15/12 27/32/39 28/33/41
f 20/23/9 36/42/42 21/24/13
f 13/15/12 29/34/43 14/16/15
f 7/8/19 82/97/18 22/25/44
f 308/374/20 21/24/13 36/42/42
f 14/16/15 30/35/45 15/17/21
f 7/8/19 23/26/46 8/9/24
f 15/17/21 31/36/33 16/18/25
f 8/9/24 24/28/47 9/10/28
f 36/42/42 50/59/48 51/60/49
f 29/34/43 43/50/50 44/51/51
f 22/25/44 82/97/18 37/43/52
f 308/374/20 36/42/42 51/60/49
f 29/34/43 45/52/53 30/35/45
f 22/25/44 38/44/54 23/26/46
f 30/35/45 46/53/55 31/36/33
f 23/26/46 39/45/56 24/28/47
f 32/37/34 46/53/55 47/55/57
f 24/28/47 40/46/58 25/29/35
f 33/38/36 47/55/57 48/56/59
f 25/30/35 41/48/60 26/31/37
f 34/40/38 48/57/59 49/58/61
f 26/31/37 42/49/62 27/32/39
f 35/41/40 49/58/61 50/59/48
f 28/33/41 42/49/62 43/50/50
f 47/54/57 63/74/63 48/57/59
f 41/48/60 55/65/64 56/66/65
f 49/58/61 63/74/63 64/75/66
f 41/48/60 57/67/67 42/49/62
f 50/59/48 64/75/66 65/76/68
f 43/50/50 57/67/67 58/68/69
f 51/60/49 65/76/68 66/77/70
f 44/51/51 58/68/69 59/69/71
f 37/43/52 82/97/18 52/61/72
f 308/374/20 51/60/49 66/77/70
f 44/51/51 60/70/73 45/52/53
f 37/43/52 53/62/74 38/44/54
f 45/52/53 61/71/75 46/53/55
f 38/44/54 54/63/76 39/45/56
f 47/55/57 61/71/75 62/72/77
f 39/45/56 55/64/64 40/46/58
f 52/61/72 82/97/18 67/78/78
f 308/374/20 66/77/70 81/96/79
f 59/69/71 75/88/80 60/70/73
f 53/62/74 67/78/78 68/79/81
f 60/70/73 76/89/82 61/71/75
f 54/63/76 68/79/81 69/80/83
f 62/72/77 76/89/82 77/91/84
f 54/63/76 70/82/85 55/64/64
f 62/73/77 78/93/86 63/74/63
f 56/66/65 70/81/85 71/84/87
f 64/75/66 78/93/86 79/94/88
f 56/66/65 72/85/89 57/67/67
f 64/75/66 80/95/90 65/76/68
f 58/68/69 72/85/89 73/86/91
f 65/76/68 81/96/79 66/77/70
f 59/69/71 73/86/91 74/87/92
f 71/83/87 86/101/93 87/103/94
f 79/94/88 94/117/95 95/118/96
f 71/84/87 88/105/97 72/85/89
f 80/95/90 95/118/96 96/119/98
f 73/86/91 88/105/97 89/107/99
f 81/96/79 96/119/98 97/120/100
f 74/87/92 89/107/99 90/109/101
f 67/78/78 82/97/18 83/98/102
f 308/374/20 81/96/79 97/120/100
f 74/87/92 91/111/103 75/88/80
f 67/78/78 84/99/104 68/79/81
f 75/88/80 92/114/105 76/89/82
f 68/79/81 85/100/106 69/80/83
f 77/92/84 92/115/105 93/116/107
f 69/80/83 86/101/93 70/82/85
f 77/92/84 94/117/95 78/93/86
f 90/110/101 106/131/108 91/112/103
f 83/98/102 99/122/109 84/99/104
f 91/112/103 107/133/110 92/113/105
f 85/100/106 99/122/109 100/123/111
f 93/116/107 107/132/110 108/135/112
f 85/100/106 101/124/113 86/101/93
f 93/116/107 109/136/114 94/117/95
f 87/103/94 101/124/113 102/126/115
f 95/118/96 109/136/114 110/137/116
f 87/103/94 103/127/117 88/104/97
f 95/118/96 111/138/118 96/119/98
f 89/108/99 103/128/117 104/129/119
f 96/119/98 112/139/120 97/120/100
f 90/110/101 104/129/119 105/130/121
f 83/98/102 82/97/18 98/121/122
f 308/374/20 97/120/100 112/139/120
f 110/137/116 124/153/123 125/154/124
f 102/125/115 118/146/125 103/128/117
f 111/138/118 125/154/124 126/155/126
f 104/129/119 118/146/125 119/147/127
f 111/138/118 127/156/128 112/139/120
f 105/130/121 119/147/127 120/148/129
f 98/121/122 82/97/18 113/140/130
f 308/374/20 112/139/120 127/156/128
f 105/130/121 121/149/131 106/131/108
f 98/121/122 114/141/132 99/122/109
f 106/131/108 122/150/133 107/133/110
f 99/122/109 115/142/134 100/123/111
f 108/134/112 122/150/133 123/151/135
f 100/123/111 116/143/136 101/124/113
f 108/135/112 124/153/123 109/136/114
f 102/126/115 116/143/136 117/144/137
f 114/141/132 128/157/138 129/158/139
f 121/149/131 137/167/140 122/150/133
f 115/142/134 129/158/139 130/159/141
f 123/151/135 137/167/140 138/169/142
f 115/142/134 131/160/143 116/143/136
f 123/152/135 139/171/144 124/153/123
f 117/144/137 131/160/143 132/162/145
f 125/154/124 139/171/144 140/172/146
f 117/145/137 133/163/147 118/146/125
f 125/154/124 141/173/148 126/155/126
f 119/147/127 133/163/147 134/164/149
f 126/155/126 142/174/150 127/156/128
f 120/148/129 134/164/149 135/165/151
f 113/140/130 82/97/18 128/157/138
f 308/374/20 127/156/128 142/174/150
f 120/148/129 136/166/152 121/149/131
f 132/161/145 148/181/153 133/163/147
f 141/173/148 155/189/154 156/190/155
f 134/164/149 148/181/153 149/182/156
f 141/173/148 157/191/157 142/174/150
f 135/165/151 149/182/156 150/183/158
f 128/157/138 82/97/18 143/175/159
f 308/374/20 142/174/150 157/191/157
f 135/165/151 151/184/160 136/166/152
f 128/157/138 144/176/161 129/158/139
f 136/166/152 152/185/162 137/167/140
f 129/158/139 145/177/163 130/159/141
f 138/169/142 152/185/162 153/186/164
f 130/159/141 146/178/165 131/160/143
f 138/169/142 154/187/166 139/170/144
f 132/162/145 146/178/165 147/179/167
f 140/172/146 154/188/166 155/189/154
f 151/184/160 167/202/168 152/185/162
f 144/176/161 160/194/169 145/177/163
f 153/186/164 167/202/168 168/203/170
f 145/177/163 161/195/171 146/178/165
f 153/186/164 169/204/172 154/187/166
f 147/179/167 161/195/171 162/196/173
f 155/189/154 169/205/172 170/206/174
f 147/180/167 163/198/175 148/181/153
f 156/190/155 170/206/174 171/207/176
f 149/182/156 163/198/175 164/199/177
f 157/191/157 171/207/176 172/208/178
f 150/183/158 164/199/177 165/200/179
f 143/175/159 82/97/18 158/192/180
f 308/374/20 157/191/157 172/208/178
f 150/183/158 166/201/181 151/184/160
f 143/175/159 159/193/182 144/176/161
f 171/207/176 185/223/183 186/224/184
f 164/199/177 178/215/185 179/216/186
f 172/208/178 186/224/184 187/225/187
f 165/200/179 179/216/186 180/217/188
f 158/192/180 82/97/18 173/209/189
f 308/374/20 172/208/178 187/225/187
f 165/200/179 181/218/190 166/201/181
f 158/192/180 174/210/191 159/193/182
f 166/201/181 182/219/192 167/202/168
f 159/193/182 175/211/193 160/194/169
f 168/203/170 182/219/192 183/220/194
f 160/194/169 176/212/195 161/195/171
f 168/203/170 184/221/196 169/204/172
f 162/196/173 176/212/195 177/213/197
f 170/206/174 184/222/196 185/223/183
f 162/197/173 178/215/185 163/198/175
f 183/220/194 197/236/198 198/237/199
f 175/211/193 191/229/200 176/212/195
f 183/220/194 199/239/201 184/221/196
f 177/213/197 191/229/200 192/230/202
f 185/223/183 199/240/201 200/241/203
f 177/214/197 193/232/204 178/215/185
f 185/223/183 201/242/205 186/224/184
f 179/216/186 193/232/204 194/233/206
f 186/224/184 202/243/207 187/225/187
f 180/217/188 194/233/206 195/234/208
f 173/209/189 82/97/18 188/226/209
f 308/374/20 187/225/187 202/243/207
f 180/217/188 196/235/210 181/218/190
f 174/210/191 188/226/209 189/227/211
f 181/218/190 197/236/198 182/219/192
f 175/211/193 189/227/211 190/228/212
f 202/243/207 216/267/213 217/268/214
f 195/234/208 209/253/215 210/255/216
f 188/226/209 82/97/18 203/244/217
f 308/374/20 202/243/207 217/268/214
f 195/234/208 211/257/218 196/235/210
f 188/226/209 204/245/219 189/227/211
f 196/235/210 212/259/220 197/236/198
f 189/227/211 205/246/221 190/228/212
f 198/237/199 212/259/220 213/261/222
f 190/228/212 206/247/223 191/229/200
f 198/238/199 214/265/224 199/240/201
f 192/230/202 206/247/223 207/249/225
f 200/241/203 214/265/224 215/266/226
f 192/231/202 208/251/227 193/232/204
f 201/242/205 215/266/226 216/267/213
f 194/233/206 208/251/227 209/253/215
f 205/246/221 221/272/228 206/247/223
f 213/263/222 229/281/229 214/264/224
f 207/249/225 221/272/228 222/273/230
f 215/266/226 229/282/229 230/283/231
f 207/250/225 223/275/232 208/252/227
f 216/267/213 230/283/231 231/284/233
f 209/254/215 223/275/232 224/276/234
f 217/268/214 231/284/233 232/285/235
f 210/256/216 224/276/234 225/277/236
f 203/244/217 82/97/18 218/269/237
f 308/374/20 217/268/214 232/285/235
f 210/256/216 226/278/238 211/258/218
f 203/244/217 219/270/239 204/245/219
f 211/258/218 227/279/240 212/260/220
f 204/245/219 220/271/241 205/246/221
f 213/263/222 227/279/240 228/280/242
f 225/277/236 239/294/243 240/295/244
f 218/269/237 82/97/18 233/286/245
f 308/374/20 232/285/235 247/303/246
f 225/277/236 241/296/247 226/278/238
f 219/270/239 233/286/245 234/287/248
f 226/278/238 242/297/249 227/279/240
f 219/270/239 235/288/250 220/271/241
f 228/280/242 242/297/249 243/298/251
f 220/271/241 236/289/252 221/272/228
f 228/280/242 244/299/253 229/281/229
f 222/273/230 236/289/252 237/291/254
f 230/283/231 244/300/253 245/301/255
f 222/274/230 238/293/256 223/275/232
f 231/284/233 245/301/255 246/302/257
f 224/276/234 238/293/256 239/294/243
f 231/284/233 247/303/246 232/285/235
f 243/298/251 259/317/258 244/299/253
f 237/292/254 251/308/259 252/309/260
f 245/301/255 259/316/258 260/319/261
f 237/292/254 253/310/262 238/293/256
f 245/301/255 261/320/263 246/302/257
f 239/294/243 253/310/262 254/311/264
f 246/302/257 262/321/265 247/303/246
f 240/295/244 254/311/264 255/312/266
f 233/286/245 82/97/18 248/304/267
f 308/374/20 247/303/246 262/321/265
f 240/295/244 256/313/268 241/296/247
f 234/287/248 248/304/267 249/305/269
f 241/296/247 257/314/270 242/297/249
f 235/288/250 249/305/269 250/306/271
f 243/298/251 257/314/270 258/315/272
f 235/288/250 251/307/259 236/289/252
f 248/304/267 82/97/18 263/322/273
f 308/374/20 262/321/265 277/338/274
f 255/312/266 271/331/275 256/313/268
f 249/305/269 263/322/273 264/323/276
f 256/313/268 272/332/277 257/314/270
f 249/305/269 265/324/278 250/306/271
f 258/315/272 272/332/277 273/333/279
f 250/306/271 266/325/280 251/307/259
f 258/315/272 274/334/281 259/317/258
f 252/309/260 266/326/280 267/327/282
f 260/318/261 274/334/281 275/335/283
f 252/309/260 268/328/284 253/310/262
f 261/320/263 275/336/283 276/337/285
f 254/311/264 268/328/284 269/329/286
f 261/320/263 277/338/274 262/321/265
f 255/312/266 269/329/286 270/330/287
f 267/327/282 281/343/288 282/344/289
f 275/335/283 289/351/290 290/352/291
f 267/327/282 283/345/292 268/328/284
f 275/336/283 291/354/293 276/337/285
f 269/329/286 283/345/292 284/346/294
f 276/337/285 292/355/295 277/338/274
f 270/330/287 284/346/294 285/347/296
f 263/322/273 82/97/18 278/339/297
f 308/374/20 277/338/274 292/355/295
f 270/330/287 286/348/298 271/331/275
f 263/322/273 279/340/299 264/323/276
f 271/331/275 287/349/300 272/332/277
f 264/323/276 280/341/301 265/324/278
f 273/333/279 287/349/300 288/350/302
f 265/324/278 281/342/288 266/325/280
f 273/333/279 289/351/290 274/334/281
f 285/347/296 301/365/303 286/348/298
f 278/339/297 294/357/304 279/340/299
f 286/348/298 302/366/305 287/349/300
f 280/341/301 294/357/304 295/358/306
f 288/350/302 302/366/305 303/367/307
f 280/341/301 296/359/308 281/342/288
f 288/350/302 304/368/309 289/351/290
f 282/344/289 296/360/308 297/361/310
f 290/352/291 304/368/309 305/370/311
f 282/344/289 298/362/312 283/345/292
f 290/353/291 306/372/313 291/354/293
f 284/346/294 298/362/312 299/363/314
f 292/355/295 306/372/313 307/373/315
f 285/347/296 299/363/314 300/364/316
f 278/339/297 82/97/18 293/356/317
f 308/374/20 292/355/295 307/373/315
f 305/371/311 320/392/318 321/393/319
f 297/361/310 314/382/320 298/362/312
f 305/371/311 322/394/321 306/372/313
f 299/363/314 314/382/320 315/383/322
f 306/372/313 323/395/323 307/373/315
f 300/364/316 315/383/322 316/385/324
f 293/356/317 82/97/18 309/375/325
f 308/374/20 307/373/315 323/395/323
f 300/364/316 317/388/326 301/365/303
f 294/357/304 309/375/325 310/376/327
f 301/365/303 318/389/328 302/366/305
f 295/358/306 310/376/327 311/377/329
f 303/367/307 318/389/328 319/390/330
f 295/358/306 312/379/331 296/359/308
f 303/367/307 320/391/318 304/368/309
f 297/361/310 312/378/331 313/381/332
f 317/388/326 333/411/333 318/389/328
f 310/376/327 326/398/334 311/377/329
f 319/390/330 333/411/333 334/413/335
f 311/377/329 327/399/336 312/379/331
f 319/390/330 335/415/337 320/391/318
f 313/380/332 327/399/336 328/401/338
f 321/393/319 335/416/337 336/418/339
f 313/381/332 329/404/340 314/382/320
f 321/393/319 337/420/341 322/394/321
f 315/383/322 329/404/340 330/406/342
f 323/395/323 337/420/341 338/421/343
f 316/386/324 330/407/342 331/408/344
f 309/375/325 82/97/18 324/396/345
f 308/374/20 323/395/323 338/421/343
f 316/386/324 332/410/346 317/387/326
f 309/375/325 325/397/347 310/376/327
f 336/418/339 352/437/348 337/420/341
f 330/407/342 344/428/349 345/429/350
f 338/421/343 352/437/348 353/438/351
f 331/408/344 345/429/350 346/430/352
f 324/396/345 82/97/18 339/422/353
f 308/374/20 338/421/343 353/438/351
f 331/408/344 347/431/354 332/410/346
f 324/396/345 340/423/355 325/397/347
f 332/410/346 348/432/356 333/412/333
f 326/398/334 340/423/355 341/424/357
f 334/414/335 348/432/356 349/433/358
f 326/398/334 342/425/359 327/399/336
f 334/414/335 350/434/360 335/417/337
f 328/403/338 342/426/359 343/427/361
f 336/419/339 350/434/360 351/435/362
f 328/403/338 344/428/349 329/405/340
f 341/424/357 355/440/363 356/441/364
f 349/433/358 363/449/365 364/450/366
f 341/424/357 357/442/367 342/425/359
f 349/433/358 365/451/368 350/434/360
f 343/427/361 357/443/367 358/444/369
f 351/435/362 365/451/368 366/452/370
f 343/427/361 359/445/371 344/428/349
f 351/436/362 367/454/372 352/437/348
f 345/429/350 359/445/371 360/446/373
f 353/438/351 367/454/372 368/455/374
f 346/430/352 360/446/373 361/447/375
f 339/422/353 82/97/18 354/439/376
f 308/374/20 353/438/351 368/455/374
f 346/430/352 362/448/377 347/431/354
f 339/422/353 355/440/363 340/423/355
f 347/431/354 363/449/365 348/432/356
f 360/446/373 374/462/378 375/463/379
f 367/454/372 383/472/380 368/455/374
f 361/447/375 375/463/379 376/464/381
f 354/439/376 82/97/18 369/456/382
f 308/374/20 368/455/374 383/472/380
f 361/447/375 377/465/383 362/448/377
f 355/440/363 369/456/382 370/457/384
f 362/448/377 378/466/385 363/449/365
f 356/441/364 370/457/384 371/458/386
f 364/450/366 378/466/385 379/467/387
f 356/441/364 372/459/388 357/442/367
f 364/450/366 380/468/389 365/451/368
f 358/444/369 372/460/388 373/461/390
f 366/452/370 380/468/389 381/469/391
f 358/444/369 374/462/378 359/445/371
f 366/453/370 382/471/392 367/454/372
f 379/467/387 393/483/393 394/484/394
f 371/458/386 387/476/395 372/459/388
f 379/467/387 395/485/396 380/468/389
f 373/461/390 387/477/395 388/478/397
f 381/469/391 395/485/396 396/486/398
f 373/461/390 389/479/399 374/462/378
f 381/470/391 397/488/400 382/471/392
f 375/463/379 389/479/399 390/480/401
f 382/471/392 398/489/402 383/472/380
f 376/464/381 390/480/401 391/481/403
f 369/456/382 82/97/18 384/473/404
f 308/374/20 383/472/380 398/489/402
f 376/464/381 392/482/405 377/465/383
f 370/457/384 384/473/404 385/474/406
f 377/465/383 393/483/393 378/466/385
f 371/458/386 385/474/406 386/475/407
f 398/489/402 412/505/408 413/506/409
f 391/481/403 405/497/410 406/498/411
f 384/473/404 82/97/18 399/490/412
f 308/374/20 398/489/402 413/506/409
f 391/481/403 407/499/413 392/482/405
f 384/473/404 400/491/414 385/474/406
f 392/482/405 408/500/415 393/483/393
f 386/475/407 400/491/414 401/492/416
f 394/484/394 408/500/415 409/501/417
f 386/475/407 402/493/418 387/476/395
f 394/484/394 410/502/419 395/485/396
f 388/478/397 402/494/418 403/495/420
f 396/486/398 410/502/419 411/503/421
f 388/478/397 404/496/422 389/479/399
f 396/487/398 412/505/408 397/488/400
f 390/480/401 404/496/422 405/497/410
f 401/492/416 417/510/423 402/493/418
f 409/501/417 425/519/424 410/502/419
f 403/495/420 417/511/423 418/512/425
f 411/503/421 425/519/424 426/521/426
f 403/495/420 419/513/427 404/496/422
f 411/504/421 427/523/428 412/505/408
f 405/497/410 419/513/427 420/514/429
f 412/505/408 428/524/430 413/506/409
f 406/498/411 420/514/429 421/515/431
f 399/490/412 82/97/18 414/507/432
f 308/374/20 413/506/409 428/524/430
f 406/498/411 422/516/433 407/499/413
f 399/490/412 415/508/434 400/491/414
f 407/499/413 423/517/435 408/500/415
f 401/492/416 415/508/434 416/509/436
f 409/501/417 423/517/435 424/518/437
f 421/515/431 435/535/438 436/538/439
f 414/507/432 82/97/18 429/525/440
f 308/374/20 428/524/430 443/546/441
f 421/515/431 437/539/442 422/516/433
f 414/507/432 430/526/443 415/508/434
f 422/516/433 438/540/444 423/517/435
f 416/509/436 430/526/443 431/527/445
f 424/518/437 438/540/444 439/541/446
f 416/509/436 432/528/447 417/510/423
f 424/518/437 440/542/448 425/519/424
f 418/512/425 432/529/447 433/531/449
f 426/522/426 440/543/448 441/544/450
f 418/512/425 434/533/451 419/513/427
f 426/522/426 442/545/452 427/523/428
f 420/514/429 434/533/451 435/535/438
f 428/524/430 442/545/452 443/546/441
f 439/541/446 455/564/453 440/542/448
f 433/532/449 447/551/454 448/552/455
f 441/544/450 455/565/453 456/566/456
f 433/532/449 449/553/457 434/534/451
f 441/544/450 457/567/458 442/545/452
f 435/536/438 449/553/457 450/554/459
f 442/545/452 458/568/460 443/546/441
f 436/537/439 450/554/459 451/556/461
f 429/525/440 82/97/18 444/547/462
f 308/374/20 443/546/441 458/568/460
f 436/538/439 452/557/463 437/539/442
f 430/526/443 444/547/462 445/548/464
f 437/539/442 453/559/465 438/540/444
f 431/527/445 445/548/464 446/549/466
f 439/541/446 453/559/465 454/561/467
f 431/527/445 447/550/454 432/528/447
f 308/374/20 458/568/460 473/586/468
f 451/556/461 467/579/469 452/558/463
f 444/547/462 460/570/470 445/548/464
f 452/558/463 468/580/471 453/560/465
f 446/549/466 460/570/470 461/571/472
f 454/562/467 468/580/471 469/581/473
f 446/549/466 462/573/474 447/550/454
f 454/562/467 470/582/475 455/563/453
f 448/552/455 462/574/474 463/575/476
f 456/566/456 470/583/475 471/584/477
f 448/552/455 464/576/478 449/553/457
f 456/566/456 472/585/479 457/567/458
f 450/554/459 464/576/478 465/577/480
f 458/568/460 472/585/479 473/586/468
f 451/556/461 465/577/480 466/578/481
f 444/547/462 82/97/18 459/569/482
f 471/584/477 479/592/4 480/594/6
f 464/576/478 2/3/3 477/590/7
f 471/584/477 481/595/10 472/585/479
f 465/577/480 477/590/7 3/4/11
f 472/585/479 482/596/14 473/586/468
f 466/578/481 3/4/11 4/5/16
f 459/569/482 82/97/18 474/587/17
f 308/374/20 473/586/468 482/596/14
f 466/578/481 5/6/22 467/579/469
f 459/569/482 475/588/23 460/570/470
f 467/579/469 478/591/26 468/580/471
f 461/571/472 475/588/23 1/1/27
f 468/580/471 6/7/30 469/581/473
f 462/574/474 1/2/27 476/589/1
f 469/581/473 479/593/4 470/582/475
f 463/575/476 476/589/1 2/3/3
f 476/589/1 10/12/31 11/13/2
f 479/592/4 18/21/32 19/22/5
f 477/590/7 2/3/3 11/13/2
f 480/594/6 19/22/5 20/23/9
f 3/4/11 477/590/7 12/14/8
f 481/595/10 20/23/9 21/24/13
f 3/4/11 13/15/12 14/16/15
f 4/5/16 14/16/15 15/17/21
f 475/588/23 474/587/17 7/8/19
f 5/6/22 15/17/21 16/18/25
f 1/1/27 475/588/23 8/9/24
f 478/591/26 16/18/25 17/19/29
f 476/589/1 1/2/27 9/11/28
f 479/593/4 6/7/30 17/19/29
f 17/19/29 16/18/25 31/36/33
f 9/11/28 24/27/47 25/30/35
f 18/20/32 17/19/29 32/37/34
f 10/12/31 25/30/35 26/31/37
f 19/22/5 18/21/32 33/39/36
f 11/13/2 26/31/37 27/32/39
f 20/23/9 19/22/5 34/40/38
f 13/15/12 12/14/8 27/32/39
f 20/23/9 35/41/40 36/42/42
f 13/15/12 28/33/41 29/34/43
f 14/16/15 29/34/43 30/35/45
f 7/8/19 22/25/44 23/26/46
f 15/17/21 30/35/45 31/36/33
f 8/9/24 23/26/46 24/28/47
f 36/42/42 35/41/40 50/59/48
f 29/34/43 28/33/41 43/50/50
f 29/34/43 44/51/51 45/52/53
f 22/25/44 37/43/52 38/44/54
f 30/35/45 45/52/53 46/53/55
f 23/26/46 38/44/54 39/45/56
f 32/37/34 31/36/33 46/53/55
f 24/28/47 39/45/56 40/46/58
f 33/38/36 32/37/34 47/55/57
f 25/30/35 40/47/58 41/48/60
f 34/40/38 33/39/36 48/57/59
f 26/31/37 41/48/60 42/49/62
f 35/41/40 34/40/38 49/58/61
f 28/33/41 27/32/39 42/49/62
f 47/54/57 62/73/77 63/74/63
f 41/48/60 40/47/58 55/65/64
f 49/58/61 48/57/59 63/74/63
f 41/48/60 56/66/65 57/67/67
f 50/59/48 49/58/61 64/75/66
f 43/50/50 42/49/62 57/67/67
f 51/60/49 50/59/48 65/76/68
f 44/51/51 43/50/50 58/68/69
f 44/51/51 59/69/71 60/70/73
f 37/43/52 52/61/72 53/62/74
f 45/52/53 60/70/73 61/71/75
f 38/44/54 53/62/74 54/63/76
f 47/55/57 46/53/55 61/71/75
f 39/45/56 54/63/76 55/64/64
f 59/69/71 74/87/92 75/88/80
f 53/62/74 52/61/72 67/78/78
f 60/70/73 75/88/80 76/89/82
f 54/63/76 53/62/74 68/79/81
f 62/72/77 61/71/75 76/89/82
f 54/63/76 69/80/83 70/82/85
f 62/73/77 77/92/84 78/93/86
f 56/66/65 55/65/64 70/81/85
f 64/75/66 63/74/63 78/93/86
f 56/66/65 71/84/87 72/85/89
f 64/75/66 79/94/88 80/95/90
f 58/68/69 57/67/67 72/85/89
f 65/76/68 80/95/90 81/96/79
f 59/69/71 58/68/69 73/86/91
f 71/83/87 70/82/85 86/101/93
f 79/94/88 78/93/86 94/117/95
f 71/84/87 87/102/94 88/105/97
f 80/95/90 79/94/88 95/118/96
f 73/86/91 72/85/89 88/105/97
f 81/96/79 80/95/90 96/119/98
f 74/87/92 73/86/91 89/107/99
f 74/87/92 90/109/101 91/111/103
f 67/78/78 83/98/102 84/99/104
f 75/88/80 91/111/103 92/114/105
f 68/79/81 84/99/104 85/100/106
f 77/92/84 76/90/82 92/115/105
f 69/80/83 85/100/106 86/101/93
f 77/92/84 93/116/107 94/117/95
f 90/110/101 105/130/121 106/131/108
f 83/98/102 98/121/122 99/122/109
f 91/112/103 106/131/108 107/133/110
f 85/100/106 84/99/104 99/122/109
f 93/116/107 92/115/105 107/132/110
f 85/100/106 100/123/111 101/124/113
f 93/116/107 108/135/112 109/136/114
f 87/103/94 86/101/93 101/124/113
f 95/118/96 94/117/95 109/136/114
f 87/103/94 102/126/115 103/127/117
f 95/118/96 110/137/116 111/138/118
f 89/108/99 88/106/97 103/128/117
f 96/119/98 111/138/118 112/139/120
f 90/110/101 89/108/99 104/129/119
f 110/137/116 109/136/114 124/153/123
f 102/125/115 117/145/137 118/146/125
f 111/138/118 110/137/116 125/154/124
f 104/129/119 103/128/117 118/146/125
f 111/138/118 126/155/126 127/156/128
f 105/130/121 104/129/119 119/147/127
f 105/130/121 120/148/129 121/149/131
f 98/121/122 113/140/130 114/141/132
f 106/131/108 121/149/131 122/150/133
f 99/122/109 114/141/132 115/142/134
f 108/134/112 107/133/110 122/150/133
f 100/123/111 115/142/134 116/143/136
f 108/135/112 123/152/135 124/153/123
f 102/126/115 101/124/113 116/143/136
f 114/141/132 113/140/130 128/157/138
f 121/149/131 136/166/152 137/167/140
f 115/142/134 114/141/132 129/158/139
f 123/151/135 122/150/133 137/167/140
f 115/142/134 130/159/141 131/160/143
f 123/152/135 138/168/142 139/171/144
f 117/144/137 116/143/136 131/160/143
f 125/154/124 124/153/123 139/171/144
f 117/145/137 132/161/145 133/163/147
f 125/154/124 140/172/146 141/173/148
f 119/147/127 118/146/125 133/163/147
f 126/155/126 141/173/148 142/174/150
f 120/148/129 119/147/127 134/164/149
f 120/148/129 135/165/151 136/166/152
f 132/161/145 147/180/167 148/181/153
f 141/173/148 140/172/146 155/189/154
f 134/164/149 133/163/147 148/181/153
f 141/173/148 156/190/155 157/191/157
f 135/165/151 134/164/149 149/182/156
f 135/165/151 150/183/158 151/184/160
f 128/157/138 143/175/159 144/176/161
f 136/166/152 151/184/160 152/185/162
f 129/158/139 144/176/161 145/177/163
f 138/169/142 137/167/140 152/185/162
f 130/159/141 145/177/163 146/178/165
f 138/169/142 153/186/164 154/187/166
f 132/162/145 131/160/143 146/178/165
f 140/172/146 139/171/144 154/188/166
f 151/184/160 166/201/181 167/202/168
f 144/176/161 159/193/182 160/194/169
f 153/186/164 152/185/162 167/202/168
f 145/177/163 160/194/169 161/195/171
f 153/186/164 168/203/170 169/204/172
f 147/179/167 146/178/165 161/195/171
f 155/189/154 154/188/166 169/205/172
f 147/180/167 162/197/173 163/198/175
f 156/190/155 155/189/154 170/206/174
f 149/182/156 148/181/153 163/198/175
f 157/191/157 156/190/155 171/207/176
f 150/183/158 149/182/156 164/199/177
f 150/183/158 165/200/179 166/201/181
f 143/175/159 158/192/180 159/193/182
f 171/207/176 170/206/174 185/223/183
f 164/199/177 163/198/175 178/215/185
f 172/208/178 171/207/176 186/224/184
f 165/200/179 164/199/177 179/216/186
f 165/200/179 180/217/188 181/218/190
f 158/192/180 173/209/189 174/210/191
f 166/201/181 181/218/190 182/219/192
f 159/193/182 174/210/191 175/211/193
f 168/203/170 167/202/168 182/219/192
f 160/194/169 175/211/193 176/212/195
f 168/203/170 183/220/194 184/221/196
f 162/196/173 161/195/171 176/212/195
f 170/206/174 169/205/172 184/222/196
f 162/197/173 177/214/197 178/215/185
f 183/220/194 182/219/192 197/236/198
f 175/211/193 190/228/212 191/229/200
f 183/220/194 198/237/199 199/239/201
f 177/213/197 176/212/195 191/229/200
f 185/223/183 184/222/196 199/240/201
f 177/214/197 192/231/202 193/232/204
f 185/223/183 200/241/203 201/242/205
f 179/216/186 178/215/185 193/232/204
f 186/224/184 201/242/205 202/243/207
f 180/217/188 179/216/186 194/233/206
f 180/217/188 195/234/208 196/235/210
f 174/210/191 173/209/189 188/226/209
f 181/218/190 196/235/210 197/236/198
f 175/211/193 174/210/191 189/227/211
f 202/243/207 201/242/205 216/267/213
f 195/234/208 194/233/206 209/253/215
f 195/234/208 210/255/216 211/257/218
f 188/226/209 203/244/217 204/245/219
f 196/235/210 211/257/218 212/259/220
f 189/227/211 204/245/219 205/246/221
f 198/237/199 197/236/198 212/259/220
f 190/228/212 205/246/221 206/247/223
f 198/238/199 213/262/222 214/265/224
f 192/230/202 191/229/200 206/247/223
f 200/241/203 199/240/201 214/265/224
f 192/231/202 207/248/225 208/251/227
f 201/242/205 200/241/203 215/266/226
f 194/233/206 193/232/204 208/251/227
f 205/246/221 220/271/241 221/272/228
f 213/263/222 228/280/242 229/281/229
f 207/249/225 206/247/223 221/272/228
f 215/266/226 214/265/224 229/282/229
f 207/250/225 222/274/230 223/275/232
f 216/267/213 215/266/226 230/283/231
f 209/254/215 208/252/227 223/275/232
f 217/268/214 216/267/213 231/284/233
f 210/256/216 209/254/215 224/276/234
f 210/256/216 225/277/236 226/278/238
f 203/244/217 218/269/237 219/270/239
f 211/258/218 226/278/238 227/279/240
f 204/245/219 219/270/239 220/271/241
f 213/263/222 212/260/220 227/279/240
f 225/277/236 224/276/234 239/294/243
f 225/277/236 240/295/244 241/296/247
f 219/270/239 218/269/237 233/286/245
f 226/278/238 241/296/247 242/297/249
f 219/270/239 234/287/248 235/288/250
f 228/280/242 227/279/240 242/297/249
f 220/271/241 235/288/250 236/289/252
f 228/280/242 243/298/251 244/299/253
f 222/273/230 221/272/228 236/289/252
f 230/283/231 229/282/229 244/300/253
f 222/274/230 237/292/254 238/293/256
f 231/284/233 230/283/231 245/301/255
f 224/276/234 223/275/232 238/293/256
f 231/284/233 246/302/257 247/303/246
f 243/298/251 258/315/272 259/317/258
f 237/292/254 236/290/252 251/308/259
f 245/301/255 244/300/253 259/316/258
f 237/292/254 252/309/260 253/310/262
f 245/301/255 260/319/261 261/320/263
f 239/294/243 238/293/256 253/310/262
f 246/302/257 261/320/263 262/321/265
f 240/295/244 239/294/243 254/311/264
f 240/295/244 255/312/266 256/313/268
f 234/287/248 233/286/245 248/304/267
f 241/296/247 256/313/268 257/314/270
f 235/288/250 234/287/248 249/305/269
f 243/298/251 242/297/249 257/314/270
f 235/288/250 250/306/271 251/307/259
f 255/312/266 270/330/287 271/331/275
f 249/305/269 248/304/267 263/322/273
f 256/313/268 271/331/275 272/332/277
f 249/305/269 264/323/276 265/324/278
f 258/315/272 257/314/270 272/332/277
f 250/306/271 265/324/278 266/325/280
f 258/315/272 273/333/279 274/334/281
f 252/309/260 251/308/259 266/326/280
f 260/318/261 259/317/258 274/334/281
f 252/309/260 267/327/282 268/328/284
f 261/320/263 260/319/261 275/336/283
f 254/311/264 253/310/262 268/328/284
f 261/320/263 276/337/285 277/338/274
f 255/312/266 254/311/264 269/329/286
f 267/327/282 266/326/280 281/343/288
f 275/335/283 274/334/281 289/351/290
f 267/327/282 282/344/289 283/345/292
f 275/336/283 290/353/291 291/354/293
f 269/329/286 268/328/284 283/345/292
f 276/337/285 291/354/293 292/355/295
f 270/330/287 269/329/286 284/346/294
f 270/330/287 285/347/296 286/348/298
f 263/322/273 278/339/297 279/340/299
f 271/331/275 286/348/298 287/349/300
f 264/323/276 279/340/299 280/341/301
f 273/333/279 272/332/277 287/349/300
f 265/324/278 280/341/301 281/342/288
f 273/333/279 288/350/302 289/351/290
f 285/347/296 300/364/316 301/365/303
f 278/339/297 293/356/317 294/357/304
f 286/348/298 301/365/303 302/366/305
f 280/341/301 279/340/299 294/357/304
f 288/350/302 287/349/300 302/366/305
f 280/341/301 295/358/306 296/359/308
f 288/350/302 303/367/307 304/368/309
f 282/344/289 281/343/288 296/360/308
f 290/352/291 289/351/290 304/368/309
f 282/344/289 297/361/310 298/362/312
f 290/353/291 305/371/311 306/372/313
f 284/346/294 283/345/292 298/362/312
f 292/355/295 291/354/293 306/372/313
f 285/347/296 284/346/294 299/363/314
f 305/371/311 304/369/309 320/392/318
f 297/361/310 313/381/332 314/382/320
f 305/371/311 321/393/319 322/394/321
f 299/363/314 298/362/312 314/382/320
f 306/372/313 322/394/321 323/395/323
f 300/364/316 299/363/314 315/383/322
f 300/364/316 316/385/324 317/388/326
f 294/357/304 293/356/317 309/375/325
f 301/365/303 317/388/326 318/389/328
f 295/358/306 294/357/304 310/376/327
f 303/367/307 302/366/305 318/389/328
f 295/358/306 311/377/329 312/379/331
f 303/367/307 319/390/330 320/391/318
f 297/361/310 296/360/308 312/378/331
f 317/388/326 332/409/346 333/411/333
f 310/376/327 325/397/347 326/398/334
f 319/390/330 318/389/328 333/411/333
f 311/377/329 326/398/334 327/399/336
f 319/390/330 334/413/335 335/415/337
f 313/380/332 312/379/331 327/399/336
f 321/393/319 320/392/318 335/416/337
f 313/381/332 328/402/338 329/404/340
f 321/393/319 336/418/339 337/420/341
f 315/383/322 314/382/320 329/404/340
f 323/395/323 322/394/321 337/420/341
f 316/386/324 315/384/322 330/407/342
f 316/386/324 331/408/344 332/410/346
f 309/375/325 324/396/345 325/397/347
f 336/418/339 351/436/362 352/437/348
f 330/407/342 329/405/340 344/428/349
f 338/421/343 337/420/341 352/437/348
f 331/408/344 330/407/342 345/429/350
f 331/408/344 346/430/352 347/431/354
f 324/396/345 339/422/353 340/423/355
f 332/410/346 347/431/354 348/432/356
f 326/398/334 325/397/347 340/423/355
f 334/414/335 333/412/333 348/432/356
f 326/398/334 341/424/357 342/425/359
f 334/414/335 349/433/358 350/434/360
f 328/403/338 327/400/336 342/426/359
f 336/419/339 335/417/337 350/434/360
f 328/403/338 343/427/361 344/428/349
f 341/424/357 340/423/355 355/440/363
f 349/433/358 348/432/356 363/449/365
f 341/424/357 356/441/364 357/442/367
f 349/433/358 364/450/366 365/451/368
f 343/427/361 342/426/359 357/443/367
f 351/435/362 350/434/360 365/451/368
f 343/427/361 358/444/369 359/445/371
f 351/436/362 366/453/370 367/454/372
f 345/429/350 344/428/349 359/445/371
f 353/438/351 352/437/348 367/454/372
f 346/430/352 345/429/350 360/446/373
f 346/430/352 361/447/375 362/448/377
f 339/422/353 354/439/376 355/440/363
f 347/431/354 362/448/377 363/449/365
f 360/446/373 359/445/371 374/462/378
f 367/454/372 382/471/392 383/472/380
f 361/447/375 360/446/373 375/463/379
f 361/447/375 376/464/381 377/465/383
f 355/440/363 354/439/376 369/456/382
f 362/448/377 377/465/383 378/466/385
f 356/441/364 355/440/363 370/457/384
f 364/450/366 363/449/365 378/466/385
f 356/441/364 371/458/386 372/459/388
f 364/450/366 379/467/387 380/468/389
f 358/444/369 357/443/367 372/460/388
f 366/452/370 365/451/368 380/468/389
f 358/444/369 373/461/390 374/462/378
f 366/453/370 381/470/391 382/471/392
f 379/467/387 378/466/385 393/483/393
f 371/458/386 386/475/407 387/476/395
f 379/467/387 394/484/394 395/485/396
f 373/461/390 372/460/388 387/477/395
f 381/469/391 380/468/389 395/485/396
f 373/461/390 388/478/397 389/479/399
f 381/470/391 396/487/398 397/488/400
f 375/463/379 374/462/378 389/479/399
f 382/471/392 397/488/400 398/489/402
f 376/464/381 375/463/379 390/480/401
f 376/464/381 391/481/403 392/482/405
f 370/457/384 369/456/382 384/473/404
f 377/465/383 392/482/405 393/483/393
f 371/458/386 370/457/384 385/474/406
f 398/489/402 397/488/400 412/505/408
f 391/481/403 390/480/401 405/497/410
f 391/481/403 406/498/411 407/499/413
f 384/473/404 399/490/412 400/491/414
f 392/482/405 407/499/413 408/500/415
f 386/475/407 385/474/406 400/491/414
f 394/484/394 393/483/393 408/500/415
f 386/475/407 401/492/416 402/493/418
f 394/484/394 409/501/417 410/502/419
f 388/478/397 387/477/395 402/494/418
f 396/486/398 395/485/396 410/502/419
f 388/478/397 403/495/420 404/496/422
f 396/487/398 411/504/421 412/505/408
f 390/480/401 389/479/399 404/496/422
f 401/492/416 416/509/436 417/510/423
f 409/501/417 424/518/437 425/519/424
f 403/495/420 402/494/418 417/511/423
f 411/503/421 410/502/419 425/519/424
f 403/495/420 418/512/425 419/513/427
f 411/504/421 426/522/426 427/523/428
f 405/497/410 404/496/422 419/513/427
f 412/505/408 427/523/428 428/524/430
f 406/498/411 405/497/410 420/514/429
f 406/498/411 421/515/431 422/516/433
f 399/490/412 414/507/432 415/508/434
f 407/499/413 422/516/433 423/517/435
f 401/492/416 400/491/414 415/508/434
f 409/501/417 408/500/415 423/517/435
f 421/515/431 420/514/429 435/535/438
f 421/515/431 436/538/439 437/539/442
f 414/507/432 429/525/440 430/526/443
f 422/516/433 437/539/442 438/540/444
f 416/509/436 415/508/434 430/526/443
f 424/518/437 423/517/435 438/540/444
f 416/509/436 431/527/445 432/528/447
f 424/518/437 439/541/446 440/542/448
f 418/512/425 417/511/423 432/529/447
f 426/522/426 425/520/424 440/543/448
f 418/512/425 433/531/449 434/533/451
f 426/522/426 441/544/450 442/545/452
f 420/514/429 419/513/427 434/533/451
f 428/524/430 427/523/428 442/545/452
f 439/541/446 454/561/467 455/564/453
f 433/532/449 432/530/447 447/551/454
f 441/544/450 440/543/448 455/565/453
f 433/532/449 448/552/455 449/553/457
f 441/544/450 456/566/456 457/567/458
f 435/536/438 434/534/451 449/553/457
f 442/545/452 457/567/458 458/568/460
f 436/537/439 435/536/438 450/554/459
f 436/538/439 451/555/461 452/557/463
f 430/526/443 429/525/440 444/547/462
f 437/539/442 452/557/463 453/559/465
f 431/527/445 430/526/443 445/548/464
f 439/541/446 438/540/444 453/559/465
f 431/527/445 446/549/466 447/550/454
f 451/556/461 466/578/481 467/579/469
f 444/547/462 459/569/482 460/570/470
f 452/558/463 467/579/469 468/580/471
f 446/549/466 445/548/464 460/570/470
f 454/562/467 453/560/465 468/580/471
f 446/549/466 461/571/472 462/573/474
f 454/562/467 469/581/473 470/582/475
f 448/552/455 447/551/454 462/574/474
f 456/566/456 455/565/453 470/583/475
f 448/552/455 463/575/476 464/576/478
f 456/566/456 471/584/477 472/585/479
f 450/554/459 449/553/457 464/576/478
f 458/568/460 457/567/458 472/585/479
f 451/556/461 450/554/459 465/577/480
f 471/584/477 470/583/475 479/592/4
f 464/576/478 463/575/476 2/3/3
f 471/584/477 480/594/6 481/595/10
f 465/577/480 464/576/478 477/590/7
f 472/585/479 481/595/10 482/596/14
f 466/578/481 465/577/480 3/4/11
f 466/578/481 4/5/16 5/6/22
f 459/569/482 474/587/17 475/588/23
f 467/579/469 5/6/22 478/591/26
f 461/571/472 460/570/470 475/588/23
f 468/580/471 478/591/26 6/7/30
f 462/574/474 461/572/472 1/2/27
f 469/581/473 6/7/30 479/593/4
f 463/575/476 462/574/474 476/589/1
