# Blender 3.5.0
# www.blender.org
mtllib snowPool.mtl
o 球
v 0.000000 2.028505 -1.722268
v 0.000000 1.173218 -2.577556
v 0.000000 0.055730 -3.040434
v 0.117987 2.491384 -0.593159
v 0.231439 2.314976 -1.163524
v 0.335998 2.028505 -1.689175
v 0.427644 1.642981 -2.149912
v 0.502856 1.173218 -2.528029
v 0.558744 0.637268 -2.808995
v 0.593159 0.055730 -2.982013
v 0.231439 2.491384 -0.558744
v 0.453985 2.314976 -1.096016
v 0.659083 2.028505 -1.591168
v 0.838854 1.642981 -2.025173
v 0.986388 1.173218 -2.381351
v 1.096015 0.637268 -2.646016
v 1.163524 0.055730 -2.808995
v 0.335998 2.491384 -0.502856
v 0.659083 2.314976 -0.986388
v 0.956841 2.028505 -1.432013
v 1.217827 1.642981 -1.822607
v 1.432013 1.173218 -2.143159
v 1.591168 0.637268 -2.381351
v 1.689175 0.055730 -2.528029
v 0.427644 2.491384 -0.427644
v 0.838854 2.314976 -0.838854
v 1.217827 2.028505 -1.217827
v 1.550000 1.642981 -1.550000
v 1.822607 1.173218 -1.822607
v 2.025172 0.637268 -2.025173
v 2.149912 0.055730 -2.149912
v 0.502856 2.491384 -0.335998
v 0.986388 2.314976 -0.659083
v 1.432013 2.028505 -0.956841
v 1.822607 1.642981 -1.217827
v 2.143159 1.173218 -1.432013
v 2.381351 0.637268 -1.591168
v 2.528028 0.055730 -1.689175
v 0.000000 2.550950 -0.000000
v 0.558744 2.491384 -0.231439
v 1.096015 2.314976 -0.453984
v 1.591168 2.028505 -0.659083
v 2.025172 1.642981 -0.838854
v 2.381351 1.173218 -0.986388
v 2.646015 0.637268 -1.096016
v 2.808995 0.055730 -1.163524
v 0.593159 2.491384 -0.117987
v 1.163524 2.314976 -0.231439
v 1.689175 2.028505 -0.335998
v 2.149912 1.642981 -0.427644
v 2.528028 1.173218 -0.502856
v 2.808995 0.637268 -0.558744
v 2.982013 0.055730 -0.593159
v 0.604780 2.491384 -0.000000
v 1.186319 2.314976 -0.000000
v 1.722267 2.028505 0.000000
v 2.192031 1.642981 -0.000000
v 2.577555 1.173218 0.000000
v 2.864026 0.637268 -0.000000
v 3.040434 0.055730 0.000000
v 0.593159 2.491384 0.117987
v 1.163524 2.314976 0.231439
v 1.689175 2.028505 0.335998
v 2.149911 1.642981 0.427644
v 2.528028 1.173218 0.502856
v 2.808995 0.637268 0.558744
v 2.982013 0.055730 0.593159
v 0.558744 2.491384 0.231439
v 1.096015 2.314976 0.453984
v 1.591167 2.028505 0.659083
v 2.025172 1.642981 0.838854
v 2.381350 1.173218 0.986388
v 2.646015 0.637268 1.096015
v 2.808994 0.055730 1.163524
v 0.502856 2.491384 0.335998
v 0.986388 2.314976 0.659083
v 1.432013 2.028505 0.956840
v 1.822607 1.642981 1.217827
v 2.143158 1.173218 1.432013
v 2.381351 0.637268 1.591167
v 2.528028 0.055730 1.689175
v 0.427644 2.491384 0.427644
v 0.838854 2.314976 0.838854
v 1.217827 2.028505 1.217827
v 1.550000 1.642981 1.550000
v 1.822606 1.173218 1.822607
v 2.025172 0.637268 2.025172
v 2.149911 0.055730 2.149911
v 0.335998 2.491384 0.502856
v 0.659083 2.314976 0.986388
v 0.956840 2.028505 1.432013
v 1.217827 1.642981 1.822607
v 1.432013 1.173218 2.143158
v 1.591168 0.637268 2.381350
v 1.689174 0.055730 2.528028
v 0.231439 2.491384 0.558743
v 0.453984 2.314976 1.096015
v 0.659083 2.028505 1.591167
v 0.838854 1.642981 2.025172
v 0.986387 1.173218 2.381350
v 1.096015 0.637268 2.646014
v 1.163523 0.055730 2.808994
v 0.117987 2.491384 0.593159
v 0.231439 2.314976 1.163523
v 0.335997 2.028505 1.689174
v 0.427644 1.642981 2.149911
v 0.502856 1.173218 2.528028
v 0.558744 0.637268 2.808994
v 0.593159 0.055730 2.982012
v 0.000000 2.491384 0.604779
v -0.000000 2.314976 1.186318
v -0.000000 2.028505 1.722267
v 0.000000 1.642981 2.192030
v -0.000000 1.173218 2.577554
v 0.000000 0.637268 2.864025
v -0.000000 0.055730 3.040433
v -0.117987 2.491384 0.593159
v -0.231439 2.314976 1.163523
v -0.335998 2.028505 1.689174
v -0.427644 1.642981 2.149911
v -0.502856 1.173218 2.528027
v -0.558744 0.637268 2.808994
v -0.593159 0.055730 2.982012
v -0.231439 2.491384 0.558743
v -0.453984 2.314976 1.096015
v -0.659083 2.028505 1.591167
v -0.838854 1.642981 2.025172
v -0.986388 1.173218 2.381350
v -1.096015 0.637268 2.646014
v -1.163524 0.055730 2.808994
v -0.335997 2.491384 0.502856
v -0.659083 2.314976 0.986387
v -0.956840 2.028505 1.432012
v -1.217827 1.642981 1.822607
v -1.432013 1.173218 2.143158
v -1.591167 0.637268 2.381350
v -1.689175 0.055730 2.528027
v -0.427644 2.491384 0.427644
v -0.838854 2.314976 0.838853
v -1.217826 2.028505 1.217826
v -1.550000 1.642981 1.549999
v -1.822606 1.173218 1.822606
v -2.025172 0.637268 2.025172
v -2.149911 0.055730 2.149910
v -0.502856 2.491384 0.335997
v -0.986388 2.314976 0.659083
v -1.432012 2.028505 0.956840
v -1.822607 1.642981 1.217827
v -2.143158 1.173218 1.432012
v -2.381350 0.637268 1.591167
v -2.528028 0.055730 1.689173
v -0.558743 2.491384 0.231439
v -1.096015 2.314976 0.453984
v -1.591167 2.028505 0.659082
v -2.025172 1.642981 0.838854
v -2.381350 1.173218 0.986387
v -2.646014 0.637268 1.096015
v -2.808994 0.055730 1.163522
v -0.593159 2.491384 0.117986
v -1.163523 2.314976 0.231439
v -1.689173 2.028505 0.335997
v -2.149911 1.642981 0.427644
v -2.528027 1.173218 0.502855
v -2.808994 0.637268 0.558744
v -2.982012 0.055730 0.593158
v -0.604779 2.491384 -0.000000
v -1.186318 2.314976 -0.000000
v -1.722266 2.028505 -0.000001
v -2.192030 1.642981 -0.000000
v -2.577554 1.173218 -0.000001
v -2.864025 0.637268 -0.000000
v -3.040433 0.055730 -0.000001
v -0.593159 2.491384 -0.117987
v -1.163523 2.314976 -0.231439
v -1.689173 2.028505 -0.335998
v -2.149911 1.642981 -0.427644
v -2.528027 1.173218 -0.502856
v -2.808994 0.637268 -0.558744
v -2.982011 0.055730 -0.593160
v -0.558743 2.491384 -0.231439
v -1.096015 2.314976 -0.453984
v -1.591166 2.028505 -0.659083
v -2.025172 1.642981 -0.838854
v -2.381349 1.173218 -0.986388
v -2.646014 0.637268 -1.096015
v -2.808993 0.055730 -1.163524
v -0.502856 2.491384 -0.335998
v -0.986387 2.314976 -0.659083
v -1.432011 2.028505 -0.956840
v -1.822606 1.642981 -1.217827
v -2.143157 1.173218 -1.432013
v -2.381350 0.637268 -1.591167
v -2.528027 0.055730 -1.689175
v -0.427644 2.491384 -0.427644
v -0.838853 2.314976 -0.838854
v -1.217825 2.028505 -1.217826
v -1.549999 1.642981 -1.550000
v -1.822605 1.173218 -1.822606
v -2.025172 0.637268 -2.025172
v -2.149910 0.055730 -2.149911
v -0.335997 2.491384 -0.502856
v -0.659083 2.314976 -0.986388
v -0.956839 2.028505 -1.432012
v -1.217826 1.642981 -1.822607
v -1.432012 1.173218 -2.143158
v -1.591167 0.637268 -2.381350
v -1.689173 0.055730 -2.528028
v -0.231439 2.491384 -0.558743
v -0.453984 2.314976 -1.096015
v -0.659082 2.028505 -1.591166
v -0.838853 1.642981 -2.025172
v -0.986386 1.173218 -2.381350
v -1.096015 0.637268 -2.646014
v -1.163522 0.055730 -2.808994
v -0.117986 2.491384 -0.593159
v -0.231439 2.314976 -1.163523
v -0.335997 2.028505 -1.689173
v -0.427644 1.642981 -2.149911
v -0.502855 1.173218 -2.528027
v -0.558743 0.637268 -2.808994
v -0.593158 0.055730 -2.982012
v 0.000000 2.491384 -0.604779
v 0.000000 2.314976 -1.186318
v 0.000000 1.642981 -2.192031
v 0.000000 0.637268 -2.864025
v 0.000000 0.055730 -3.040434
v 0.593159 0.055730 -2.982013
v 1.163524 0.055730 -2.808995
v 1.689175 0.055730 -2.528029
v 2.149912 0.055730 -2.149912
v 2.528028 0.055730 -1.689175
v 2.808995 0.055730 -1.163524
v 2.982013 0.055730 -0.593159
v 3.040434 0.055730 0.000000
v 2.982013 0.055730 0.593159
v 2.808994 0.055730 1.163524
v 2.528028 0.055730 1.689175
v 2.149911 0.055730 2.149911
v 1.689174 0.055730 2.528028
v 1.163523 0.055730 2.808994
v 0.593159 0.055730 2.982012
v -0.000000 0.055730 3.040433
v -0.593159 0.055730 2.982012
v -1.163524 0.055730 2.808994
v -1.689175 0.055730 2.528027
v -2.149911 0.055730 2.149910
v -2.528028 0.055730 1.689173
v -2.808994 0.055730 1.163522
v -2.982012 0.055730 0.593158
v -3.040433 0.055730 -0.000001
v -2.982011 0.055730 -0.593160
v -2.808993 0.055730 -1.163524
v -2.528027 0.055730 -1.689175
v -2.149910 0.055730 -2.149911
v -1.689173 0.055730 -2.528028
v -1.163522 0.055730 -2.808994
v -0.593158 0.055730 -2.982012
v 0.000000 0.055730 -0.000000
vn -0.0000 0.9796 -0.2010
vn -0.0000 1.0000 -0.0000
vn 0.0392 0.9796 -0.1971
vn -0.0000 0.9217 -0.3879
vn 0.0757 0.9217 -0.3804
vn -0.0000 0.8286 -0.5598
vn 0.1092 0.8286 -0.5490
vn -0.0000 0.7041 -0.7101
vn 0.1385 0.7041 -0.6965
vn 0.1626 0.5528 -0.8173
vn -0.0000 0.5528 -0.8333
vn -0.0000 0.3805 -0.9248
vn 0.1804 0.3805 -0.9070
vn -0.0000 0.8082 -0.5889
vn 0.1149 0.8082 -0.5776
vn 0.0769 0.9796 -0.1857
vn 0.1484 0.9217 -0.3584
vn 0.2142 0.8286 -0.5172
vn 0.2718 0.7041 -0.6561
vn 0.3189 0.5528 -0.7699
vn 0.3539 0.3805 -0.8544
vn 0.2254 0.8082 -0.5441
vn 0.3945 0.7041 -0.5905
vn 0.4630 0.5528 -0.6929
vn 0.5138 0.3805 -0.7689
vn 0.3272 0.8082 -0.4897
vn 0.1117 0.9796 -0.1671
vn 0.2155 0.9217 -0.3225
vn 0.3110 0.8286 -0.4654
vn 0.1421 0.9796 -0.1421
vn 0.2743 0.9217 -0.2743
vn 0.3958 0.8286 -0.3958
vn 0.5021 0.7041 -0.5021
vn 0.5893 0.5528 -0.5893
vn 0.6539 0.3805 -0.6539
vn 0.4164 0.8082 -0.4164
vn 0.5905 0.7041 -0.3945
vn 0.6929 0.5528 -0.4630
vn 0.7689 0.3805 -0.5138
vn 0.4897 0.8082 -0.3272
vn 0.1671 0.9796 -0.1117
vn 0.3225 0.9217 -0.2155
vn 0.4654 0.8286 -0.3110
vn 0.1857 0.9796 -0.0769
vn 0.3584 0.9217 -0.1484
vn 0.5172 0.8286 -0.2142
vn 0.6561 0.7041 -0.2718
vn 0.7699 0.5528 -0.3189
vn 0.8544 0.3805 -0.3539
vn 0.5441 0.8082 -0.2254
vn 0.6965 0.7041 -0.1385
vn 0.8173 0.5528 -0.1626
vn 0.9070 0.3805 -0.1804
vn 0.5776 0.8082 -0.1149
vn 0.1971 0.9796 -0.0392
vn 0.3804 0.9217 -0.0757
vn 0.5490 0.8286 -0.1092
vn 0.3879 0.9217 -0.0000
vn 0.5598 0.8286 -0.0000
vn 0.7101 0.7041 -0.0000
vn 0.8333 0.5528 -0.0000
vn 0.9248 0.3805 -0.0000
vn 0.5889 0.8082 -0.0000
vn 0.2010 0.9796 -0.0000
vn 0.9070 0.3805 0.1804
vn 0.5776 0.8082 0.1149
vn 0.1971 0.9796 0.0392
vn 0.3804 0.9217 0.0757
vn 0.5490 0.8286 0.1092
vn 0.6965 0.7041 0.1385
vn 0.8173 0.5528 0.1626
vn 0.5172 0.8286 0.2142
vn 0.6561 0.7041 0.2718
vn 0.7699 0.5528 0.3189
vn 0.8544 0.3805 0.3539
vn 0.5441 0.8082 0.2254
vn 0.1857 0.9796 0.0769
vn 0.3584 0.9217 0.1484
vn 0.7689 0.3805 0.5138
vn 0.4897 0.8082 0.3272
vn 0.1671 0.9796 0.1117
vn 0.3225 0.9217 0.2155
vn 0.4654 0.8286 0.3110
vn 0.5905 0.7041 0.3945
vn 0.6929 0.5528 0.4630
vn 0.3958 0.8286 0.3958
vn 0.5021 0.7041 0.5021
vn 0.5893 0.5528 0.5893
vn 0.6539 0.3805 0.6539
vn 0.4164 0.8082 0.4164
vn 0.1421 0.9796 0.1421
vn 0.2743 0.9217 0.2743
vn 0.5138 0.3805 0.7689
vn 0.3272 0.8082 0.4897
vn 0.1117 0.9796 0.1671
vn 0.2155 0.9217 0.3225
vn 0.3110 0.8286 0.4654
vn 0.3945 0.7041 0.5905
vn 0.4630 0.5528 0.6929
vn 0.2718 0.7041 0.6561
vn 0.3189 0.5528 0.7699
vn 0.3539 0.3805 0.8544
vn 0.2254 0.8082 0.5441
vn 0.0769 0.9796 0.1857
vn 0.1484 0.9217 0.3584
vn 0.2142 0.8286 0.5172
vn 0.0392 0.9796 0.1971
vn 0.0757 0.9217 0.3804
vn 0.1092 0.8286 0.5490
vn 0.1385 0.7041 0.6965
vn 0.1626 0.5528 0.8173
vn 0.1804 0.3805 0.9070
vn 0.1149 0.8082 0.5776
vn -0.0000 0.7041 0.7101
vn -0.0000 0.5528 0.8333
vn -0.0000 0.3805 0.9248
vn -0.0000 0.8082 0.5889
vn -0.0000 0.9796 0.2010
vn -0.0000 0.9217 0.3879
vn -0.0000 0.8286 0.5598
vn -0.0392 0.9796 0.1971
vn -0.0757 0.9217 0.3804
vn -0.1092 0.8286 0.5490
vn -0.1385 0.7041 0.6965
vn -0.1626 0.5528 0.8173
vn -0.1804 0.3805 0.9070
vn -0.1149 0.8082 0.5776
vn -0.2718 0.7041 0.6561
vn -0.3189 0.5528 0.7699
vn -0.3539 0.3805 0.8544
vn -0.2253 0.8082 0.5440
vn -0.0769 0.9796 0.1857
vn -0.1484 0.9217 0.3584
vn -0.2142 0.8286 0.5172
vn -0.2155 0.9217 0.3225
vn -0.3110 0.8286 0.4654
vn -0.3945 0.7041 0.5905
vn -0.4630 0.5528 0.6929
vn -0.5138 0.3805 0.7689
vn -0.3272 0.8082 0.4896
vn -0.1117 0.9796 0.1671
vn -0.6539 0.3805 0.6539
vn -0.4164 0.8082 0.4164
vn -0.1421 0.9796 0.1421
vn -0.2743 0.9217 0.2743
vn -0.3958 0.8286 0.3958
vn -0.5021 0.7041 0.5021
vn -0.5893 0.5528 0.5893
vn -0.1671 0.9796 0.1117
vn -0.3225 0.9217 0.2155
vn -0.4654 0.8286 0.3110
vn -0.5905 0.7041 0.3945
vn -0.6929 0.5528 0.4630
vn -0.7689 0.3805 0.5138
vn -0.4897 0.8082 0.3272
vn -0.8544 0.3805 0.3539
vn -0.5440 0.8082 0.2254
vn -0.1857 0.9796 0.0769
vn -0.3584 0.9217 0.1484
vn -0.5172 0.8286 0.2142
vn -0.6561 0.7041 0.2718
vn -0.7699 0.5528 0.3189
vn -0.3804 0.9217 0.0757
vn -0.5490 0.8286 0.1092
vn -0.6965 0.7041 0.1385
vn -0.8173 0.5528 0.1626
vn -0.9070 0.3805 0.1804
vn -0.5776 0.8082 0.1149
vn -0.1971 0.9796 0.0392
vn -0.9248 0.3805 -0.0000
vn -0.5889 0.8082 -0.0000
vn -0.2010 0.9796 -0.0000
vn -0.3879 0.9217 -0.0000
vn -0.5598 0.8286 -0.0000
vn -0.7101 0.7041 -0.0000
vn -0.8333 0.5528 -0.0000
vn -0.3804 0.9217 -0.0757
vn -0.5490 0.8286 -0.1092
vn -0.6965 0.7041 -0.1385
vn -0.8173 0.5528 -0.1626
vn -0.9070 0.3805 -0.1804
vn -0.5776 0.8082 -0.1149
vn -0.1971 0.9796 -0.0392
vn -0.8544 0.3805 -0.3539
vn -0.5441 0.8082 -0.2254
vn -0.1857 0.9796 -0.0769
vn -0.3584 0.9217 -0.1484
vn -0.5172 0.8286 -0.2142
vn -0.6561 0.7041 -0.2718
vn -0.7699 0.5528 -0.3189
vn -0.5905 0.7041 -0.3945
vn -0.6929 0.5528 -0.4630
vn -0.7689 0.3805 -0.5138
vn -0.4896 0.8082 -0.3272
vn -0.1671 0.9796 -0.1117
vn -0.3225 0.9217 -0.2155
vn -0.4654 0.8286 -0.3110
vn -0.1421 0.9796 -0.1421
vn -0.2743 0.9217 -0.2743
vn -0.3958 0.8286 -0.3958
vn -0.5021 0.7041 -0.5021
vn -0.5893 0.5528 -0.5893
vn -0.6539 0.3805 -0.6539
vn -0.4164 0.8082 -0.4164
vn -0.3945 0.7041 -0.5905
vn -0.4630 0.5528 -0.6929
vn -0.5138 0.3805 -0.7689
vn -0.3272 0.8082 -0.4896
vn -0.1117 0.9796 -0.1671
vn -0.2155 0.9217 -0.3225
vn -0.3110 0.8286 -0.4654
vn -0.0769 0.9796 -0.1857
vn -0.1484 0.9217 -0.3584
vn -0.2142 0.8286 -0.5172
vn -0.2718 0.7041 -0.6561
vn -0.3189 0.5528 -0.7699
vn -0.3539 0.3805 -0.8544
vn -0.2254 0.8082 -0.5441
vn -0.1385 0.7041 -0.6965
vn -0.1626 0.5528 -0.8173
vn -0.1804 0.3805 -0.9070
vn -0.1149 0.8082 -0.5776
vn -0.0392 0.9796 -0.1971
vn -0.0757 0.9217 -0.3804
vn -0.1092 0.8286 -0.5490
vn -0.0000 -1.0000 -0.0000
vt 0.750000 0.812500
vt 0.750000 0.687500
vt 0.750000 0.562500
vt 0.718750 0.937500
vt 0.718750 0.875000
vt 0.718750 0.812500
vt 0.718750 0.750000
vt 0.718750 0.687500
vt 0.718750 0.625000
vt 0.718750 0.562500
vt 0.687500 0.937500
vt 0.687500 0.875000
vt 0.687500 0.812500
vt 0.687500 0.750000
vt 0.687500 0.687500
vt 0.687500 0.625000
vt 0.687500 0.562500
vt 0.656250 0.937500
vt 0.656250 0.875000
vt 0.656250 0.812500
vt 0.656250 0.750000
vt 0.656250 0.687500
vt 0.656250 0.625000
vt 0.656250 0.562500
vt 0.625000 0.937500
vt 0.625000 0.875000
vt 0.625000 0.812500
vt 0.625000 0.750000
vt 0.625000 0.687500
vt 0.625000 0.625000
vt 0.625000 0.562500
vt 0.593750 0.937500
vt 0.593750 0.875000
vt 0.593750 0.812500
vt 0.593750 0.750000
vt 0.593750 0.687500
vt 0.593750 0.625000
vt 0.593750 0.562500
vt 0.734375 1.000000
vt 0.703125 1.000000
vt 0.671875 1.000000
vt 0.640625 1.000000
vt 0.609375 1.000000
vt 0.578125 1.000000
vt 0.546875 1.000000
vt 0.515625 1.000000
vt 0.484375 1.000000
vt 0.453125 1.000000
vt 0.421875 1.000000
vt 0.390625 1.000000
vt 0.359375 1.000000
vt 0.328125 1.000000
vt 0.296875 1.000000
vt 0.265625 1.000000
vt 0.234375 1.000000
vt 0.203125 1.000000
vt 0.171875 1.000000
vt 0.140625 1.000000
vt 0.109375 1.000000
vt 0.078125 1.000000
vt 0.046875 1.000000
vt 0.015625 1.000000
vt 0.984375 1.000000
vt 0.953125 1.000000
vt 0.921875 1.000000
vt 0.890625 1.000000
vt 0.859375 1.000000
vt 0.828125 1.000000
vt 0.796875 1.000000
vt 0.765625 1.000000
vt 0.562500 0.937500
vt 0.562500 0.875000
vt 0.562500 0.812500
vt 0.562500 0.750000
vt 0.562500 0.687500
vt 0.562500 0.625000
vt 0.562500 0.562500
vt 0.531250 0.937500
vt 0.531250 0.875000
vt 0.531250 0.812500
vt 0.531250 0.750000
vt 0.531250 0.687500
vt 0.531250 0.625000
vt 0.531250 0.562500
vt 0.500000 0.937500
vt 0.500000 0.875000
vt 0.500000 0.812500
vt 0.500000 0.750000
vt 0.500000 0.687500
vt 0.500000 0.625000
vt 0.500000 0.562500
vt 0.468750 0.937500
vt 0.468750 0.875000
vt 0.468750 0.812500
vt 0.468750 0.750000
vt 0.468750 0.687500
vt 0.468750 0.625000
vt 0.468750 0.562500
vt 0.437500 0.937500
vt 0.437500 0.875000
vt 0.437500 0.812500
vt 0.437500 0.750000
vt 0.437500 0.687500
vt 0.437500 0.625000
vt 0.437500 0.562500
vt 0.406250 0.937500
vt 0.406250 0.875000
vt 0.406250 0.812500
vt 0.406250 0.750000
vt 0.406250 0.687500
vt 0.406250 0.625000
vt 0.406250 0.562500
vt 0.375000 0.937500
vt 0.375000 0.875000
vt 0.375000 0.812500
vt 0.375000 0.750000
vt 0.375000 0.687500
vt 0.375000 0.625000
vt 0.375000 0.562500
vt 0.343750 0.937500
vt 0.343750 0.875000
vt 0.343750 0.812500
vt 0.343750 0.750000
vt 0.343750 0.687500
vt 0.343750 0.625000
vt 0.343750 0.562500
vt 0.312500 0.937500
vt 0.312500 0.875000
vt 0.312500 0.812500
vt 0.312500 0.750000
vt 0.312500 0.687500
vt 0.312500 0.625000
vt 0.312500 0.562500
vt 0.281250 0.937500
vt 0.281250 0.875000
vt 0.281250 0.812500
vt 0.281250 0.750000
vt 0.281250 0.687500
vt 0.281250 0.625000
vt 0.281250 0.562500
vt 0.250000 0.937500
vt 0.250000 0.875000
vt 0.250000 0.812500
vt 0.250000 0.750000
vt 0.250000 0.687500
vt 0.250000 0.625000
vt 0.250000 0.562500
vt 0.218750 0.937500
vt 0.218750 0.875000
vt 0.218750 0.812500
vt 0.218750 0.750000
vt 0.218750 0.687500
vt 0.218750 0.625000
vt 0.218750 0.562500
vt 0.187500 0.937500
vt 0.187500 0.875000
vt 0.187500 0.812500
vt 0.187500 0.750000
vt 0.187500 0.687500
vt 0.187500 0.625000
vt 0.187500 0.562500
vt 0.156250 0.937500
vt 0.156250 0.875000
vt 0.156250 0.812500
vt 0.156250 0.750000
vt 0.156250 0.687500
vt 0.156250 0.625000
vt 0.156250 0.562500
vt 0.125000 0.937500
vt 0.125000 0.875000
vt 0.125000 0.812500
vt 0.125000 0.750000
vt 0.125000 0.687500
vt 0.125000 0.625000
vt 0.125000 0.562500
vt 0.093750 0.937500
vt 0.093750 0.875000
vt 0.093750 0.812500
vt 0.093750 0.750000
vt 0.093750 0.687500
vt 0.093750 0.625000
vt 0.093750 0.562500
vt 0.062500 0.937500
vt 0.062500 0.875000
vt 0.062500 0.812500
vt 0.062500 0.750000
vt 0.062500 0.687500
vt 0.062500 0.625000
vt 0.062500 0.562500
vt 0.031250 0.937500
vt 0.031250 0.875000
vt 0.031250 0.812500
vt 0.031250 0.750000
vt 0.031250 0.687500
vt 0.031250 0.625000
vt 0.031250 0.562500
vt 0.000000 0.937500
vt 1.000000 0.937500
vt 0.000000 0.875000
vt 1.000000 0.875000
vt 0.000000 0.812500
vt 1.000000 0.812500
vt 0.000000 0.750000
vt 1.000000 0.750000
vt 0.000000 0.687500
vt 1.000000 0.687500
vt 0.000000 0.625000
vt 1.000000 0.625000
vt 1.000000 0.562500
vt 0.000000 0.562500
vt 0.968750 0.937500
vt 0.968750 0.875000
vt 0.968750 0.812500
vt 0.968750 0.750000
vt 0.968750 0.687500
vt 0.968750 0.625000
vt 0.968750 0.562500
vt 0.937500 0.937500
vt 0.937500 0.875000
vt 0.937500 0.812500
vt 0.937500 0.750000
vt 0.937500 0.687500
vt 0.937500 0.625000
vt 0.937500 0.562500
vt 0.906250 0.937500
vt 0.906250 0.875000
vt 0.906250 0.812500
vt 0.906250 0.750000
vt 0.906250 0.687500
vt 0.906250 0.625000
vt 0.906250 0.562500
vt 0.875000 0.937500
vt 0.875000 0.875000
vt 0.875000 0.812500
vt 0.875000 0.750000
vt 0.875000 0.687500
vt 0.875000 0.625000
vt 0.875000 0.562500
vt 0.843750 0.937500
vt 0.843750 0.875000
vt 0.843750 0.812500
vt 0.843750 0.750000
vt 0.843750 0.687500
vt 0.843750 0.625000
vt 0.843750 0.562500
vt 0.812500 0.937500
vt 0.812500 0.875000
vt 0.812500 0.812500
vt 0.812500 0.750000
vt 0.812500 0.687500
vt 0.812500 0.625000
vt 0.812500 0.562500
vt 0.781250 0.937500
vt 0.781250 0.875000
vt 0.781250 0.812500
vt 0.781250 0.750000
vt 0.781250 0.687500
vt 0.781250 0.625000
vt 0.781250 0.562500
vt 0.750000 0.937500
vt 0.750000 0.875000
vt 0.750000 0.750000
vt 0.750000 0.625000
vt 0.750000 0.562500
vt 0.718750 0.562500
vt 0.687500 0.562500
vt 0.656250 0.562500
vt 0.625000 0.562500
vt 0.593750 0.562500
vt 0.562500 0.562500
vt 0.531250 0.562500
vt 0.500000 0.562500
vt 0.468750 0.562500
vt 0.437500 0.562500
vt 0.406250 0.562500
vt 0.375000 0.562500
vt 0.343750 0.562500
vt 0.312500 0.562500
vt 0.281250 0.562500
vt 0.250000 0.562500
vt 0.218750 0.562500
vt 0.187500 0.562500
vt 0.156250 0.562500
vt 0.125000 0.562500
vt 0.093750 0.562500
vt 0.062500 0.562500
vt 0.031250 0.562500
vt 1.000000 0.562500
vt 0.000000 0.562500
vt 0.968750 0.562500
vt 0.937500 0.562500
vt 0.906250 0.562500
vt 0.875000 0.562500
vt 0.843750 0.562500
vt 0.812500 0.562500
vt 0.781250 0.562500
vt 0.156250 0.562500
vt 0.562500 0.562500
vt 0.125000 0.562500
vt 0.531250 0.562500
vt 0.093750 0.562500
vt 0.500000 0.562500
vt 0.062500 0.562500
vt 0.468750 0.562500
vt 0.031250 0.562500
vt 0.437500 0.562500
vt 1.000000 0.562500
vt 0.406250 0.562500
vt 0.968750 0.562500
vt 0.375000 0.562500
vt 0.937500 0.562500
vt 0.343750 0.562500
vt 0.750000 0.562500
vt 0.906250 0.562500
vt 0.312500 0.562500
vt 0.718750 0.562500
vt 0.875000 0.562500
vt 0.281250 0.562500
vt 0.687500 0.562500
vt 0.843750 0.562500
vt 0.250000 0.562500
vt 0.656250 0.562500
vt 0.812500 0.562500
vt 0.218750 0.562500
vt 0.625000 0.562500
vt 0.781250 0.562500
vt 0.187500 0.562500
vt 0.593750 0.562500
s 1
usemtl マテリアル
f 222/260/1 39/39/2 4/4/3
f 223/261/4 4/4/3 5/5/5
f 1/1/6 5/5/5 6/6/7
f 224/262/8 6/6/7 7/7/9
f 224/262/8 8/8/10 2/2/11
f 225/263/12 8/8/10 9/9/13
f 3/3/14 9/9/13 10/10/15
f 4/4/3 39/40/2 11/11/16
f 4/4/3 12/12/17 5/5/5
f 5/5/5 13/13/18 6/6/7
f 6/6/7 14/14/19 7/7/9
f 7/7/9 15/15/20 8/8/10
f 8/8/10 16/16/21 9/9/13
f 10/10/15 16/16/21 17/17/22
f 13/13/18 21/21/23 14/14/19
f 14/14/19 22/22/24 15/15/20
f 15/15/20 23/23/25 16/16/21
f 17/17/22 23/23/25 24/24/26
f 11/11/16 39/41/2 18/18/27
f 11/11/16 19/19/28 12/12/17
f 12/12/17 20/20/29 13/13/18
f 18/18/27 39/42/2 25/25/30
f 18/18/27 26/26/31 19/19/28
f 19/19/28 27/27/32 20/20/29
f 20/20/29 28/28/33 21/21/23
f 22/22/24 28/28/33 29/29/34
f 22/22/24 30/30/35 23/23/25
f 24/24/26 30/30/35 31/31/36
f 29/29/34 35/35/37 36/36/38
f 29/29/34 37/37/39 30/30/35
f 31/31/36 37/37/39 38/38/40
f 25/25/30 39/43/2 32/32/41
f 26/26/31 32/32/41 33/33/42
f 27/27/32 33/33/42 34/34/43
f 27/27/32 35/35/37 28/28/33
f 32/32/41 39/44/2 40/71/44
f 32/32/41 41/72/45 33/33/42
f 33/33/42 42/73/46 34/34/43
f 34/34/43 43/74/47 35/35/37
f 36/36/38 43/74/47 44/75/48
f 36/36/38 45/76/49 37/37/39
f 38/38/40 45/76/49 46/77/50
f 44/75/48 50/81/51 51/82/52
f 44/75/48 52/83/53 45/76/49
f 46/77/50 52/83/53 53/84/54
f 40/71/44 39/45/2 47/78/55
f 40/71/44 48/79/56 41/72/45
f 42/73/46 48/79/56 49/80/57
f 42/73/46 50/81/51 43/74/47
f 47/78/55 55/86/58 48/79/56
f 48/79/56 56/87/59 49/80/57
f 49/80/57 57/88/60 50/81/51
f 51/82/52 57/88/60 58/89/61
f 51/82/52 59/90/62 52/83/53
f 53/84/54 59/90/62 60/91/63
f 47/78/55 39/46/2 54/85/64
f 58/89/61 66/97/65 59/90/62
f 60/91/63 66/97/65 67/98/66
f 54/85/64 39/47/2 61/92/67
f 54/85/64 62/93/68 55/86/58
f 56/87/59 62/93/68 63/94/69
f 56/87/59 64/95/70 57/88/60
f 58/89/61 64/95/70 65/96/71
f 62/93/68 70/101/72 63/94/69
f 63/94/69 71/102/73 64/95/70
f 65/96/71 71/102/73 72/103/74
f 65/96/71 73/104/75 66/97/65
f 67/98/66 73/104/75 74/105/76
f 61/92/67 39/48/2 68/99/77
f 62/93/68 68/99/77 69/100/78
f 74/105/76 80/111/79 81/112/80
f 68/99/77 39/49/2 75/106/81
f 68/99/77 76/107/82 69/100/78
f 69/100/78 77/108/83 70/101/72
f 70/101/72 78/109/84 71/102/73
f 72/103/74 78/109/84 79/110/85
f 72/103/74 80/111/79 73/104/75
f 76/107/82 84/115/86 77/108/83
f 77/108/83 85/116/87 78/109/84
f 79/110/85 85/116/87 86/117/88
f 79/110/85 87/118/89 80/111/79
f 81/112/80 87/118/89 88/119/90
f 75/106/81 39/50/2 82/113/91
f 75/106/81 83/114/92 76/107/82
f 88/119/90 94/125/93 95/126/94
f 82/113/91 39/51/2 89/120/95
f 83/114/92 89/120/95 90/121/96
f 84/115/86 90/121/96 91/122/97
f 84/115/86 92/123/98 85/116/87
f 86/117/88 92/123/98 93/124/99
f 86/117/88 94/125/93 87/118/89
f 91/122/97 99/130/100 92/123/98
f 93/124/99 99/130/100 100/131/101
f 93/124/99 101/132/102 94/125/93
f 95/126/94 101/132/102 102/133/103
f 89/120/95 39/52/2 96/127/104
f 89/120/95 97/128/105 90/121/96
f 90/121/96 98/129/106 91/122/97
f 96/127/104 39/53/2 103/134/107
f 96/127/104 104/135/108 97/128/105
f 97/128/105 105/136/109 98/129/106
f 98/129/106 106/137/110 99/130/100
f 100/131/101 106/137/110 107/138/111
f 100/131/101 108/139/112 101/132/102
f 102/133/103 108/139/112 109/140/113
f 105/136/109 113/144/114 106/137/110
f 107/138/111 113/144/114 114/145/115
f 107/138/111 115/146/116 108/139/112
f 109/140/113 115/146/116 116/147/117
f 103/134/107 39/54/2 110/141/118
f 104/135/108 110/141/118 111/142/119
f 104/135/108 112/143/120 105/136/109
f 110/141/118 39/55/2 117/148/121
f 111/142/119 117/148/121 118/149/122
f 112/143/120 118/149/122 119/150/123
f 112/143/120 120/151/124 113/144/114
f 114/145/115 120/151/124 121/152/125
f 114/145/115 122/153/126 115/146/116
f 116/147/117 122/153/126 123/154/127
f 121/152/125 127/158/128 128/159/129
f 121/152/125 129/160/130 122/153/126
f 123/154/127 129/160/130 130/161/131
f 117/148/121 39/56/2 124/155/132
f 118/149/122 124/155/132 125/156/133
f 118/149/122 126/157/134 119/150/123
f 119/150/123 127/158/128 120/151/124
f 124/155/132 132/163/135 125/156/133
f 125/156/133 133/164/136 126/157/134
f 126/157/134 134/165/137 127/158/128
f 128/159/129 134/165/137 135/166/138
f 128/159/129 136/167/139 129/160/130
f 130/161/131 136/167/139 137/168/140
f 124/155/132 39/57/2 131/162/141
f 135/166/138 143/174/142 136/167/139
f 137/168/140 143/174/142 144/175/143
f 131/162/141 39/58/2 138/169/144
f 131/162/141 139/170/145 132/163/135
f 133/164/136 139/170/145 140/171/146
f 133/164/136 141/172/147 134/165/137
f 135/166/138 141/172/147 142/173/148
f 139/170/145 145/176/149 146/177/150
f 140/171/146 146/177/150 147/178/151
f 140/171/146 148/179/152 141/172/147
f 142/173/148 148/179/152 149/180/153
f 142/173/148 150/181/154 143/174/142
f 144/175/143 150/181/154 151/182/155
f 138/169/144 39/59/2 145/176/149
f 149/180/153 157/188/156 150/181/154
f 151/182/155 157/188/156 158/189/157
f 145/176/149 39/60/2 152/183/158
f 145/176/149 153/184/159 146/177/150
f 147/178/151 153/184/159 154/185/160
f 147/178/151 155/186/161 148/179/152
f 149/180/153 155/186/161 156/187/162
f 154/185/160 160/191/163 161/192/164
f 154/185/160 162/193/165 155/186/161
f 156/187/162 162/193/165 163/194/166
f 156/187/162 164/195/167 157/188/156
f 158/189/157 164/195/167 165/196/168
f 152/183/158 39/61/2 159/190/169
f 152/183/158 160/191/163 153/184/159
f 165/196/168 171/207/170 172/210/171
f 159/190/169 39/62/2 166/197/172
f 159/190/169 167/199/173 160/191/163
f 161/192/164 167/199/173 168/201/174
f 161/192/164 169/203/175 162/193/165
f 163/194/166 169/203/175 170/205/176
f 163/194/166 171/207/170 164/195/167
f 168/202/174 174/212/177 175/213/178
f 168/202/174 176/214/179 169/204/175
f 170/206/176 176/214/179 177/215/180
f 170/206/176 178/216/181 171/208/170
f 172/209/171 178/216/181 179/217/182
f 166/198/172 39/63/2 173/211/183
f 167/200/173 173/211/183 174/212/177
f 179/217/182 185/223/184 186/224/185
f 173/211/183 39/64/2 180/218/186
f 173/211/183 181/219/187 174/212/177
f 175/213/178 181/219/187 182/220/188
f 175/213/178 183/221/189 176/214/179
f 177/215/180 183/221/189 184/222/190
f 177/215/180 185/223/184 178/216/181
f 182/220/188 190/228/191 183/221/189
f 184/222/190 190/228/191 191/229/192
f 184/222/190 192/230/193 185/223/184
f 186/224/185 192/230/193 193/231/194
f 180/218/186 39/65/2 187/225/195
f 180/218/186 188/226/196 181/219/187
f 182/220/188 188/226/196 189/227/197
f 187/225/195 39/66/2 194/232/198
f 187/225/195 195/233/199 188/226/196
f 189/227/197 195/233/199 196/234/200
f 189/227/197 197/235/201 190/228/191
f 191/229/192 197/235/201 198/236/202
f 191/229/192 199/237/203 192/230/193
f 193/231/194 199/237/203 200/238/204
f 198/236/202 204/242/205 205/243/206
f 198/236/202 206/244/207 199/237/203
f 200/238/204 206/244/207 207/245/208
f 194/232/198 39/67/2 201/239/209
f 194/232/198 202/240/210 195/233/199
f 196/234/200 202/240/210 203/241/211
f 196/234/200 204/242/205 197/235/201
f 201/239/209 39/68/2 208/246/212
f 202/240/210 208/246/212 209/247/213
f 203/241/211 209/247/213 210/248/214
f 203/241/211 211/249/215 204/242/205
f 205/243/206 211/249/215 212/250/216
f 205/243/206 213/251/217 206/244/207
f 207/245/208 213/251/217 214/252/218
f 212/250/216 218/256/219 219/257/220
f 212/250/216 220/258/221 213/251/217
f 214/252/218 220/258/221 221/259/222
f 208/246/212 39/69/2 215/253/223
f 208/246/212 216/254/224 209/247/213
f 210/248/214 216/254/224 217/255/225
f 210/248/214 218/256/219 211/249/215
f 215/253/223 223/261/4 216/254/224
f 217/255/225 223/261/4 1/1/6
f 218/256/219 1/1/6 224/262/8
f 219/257/220 224/262/8 2/2/11
f 220/258/221 2/2/11 225/263/12
f 221/259/222 225/263/12 3/3/14
f 215/253/223 39/70/2 222/260/1
f 95/126/94 238/276/2 88/119/90
f 179/217/182 250/288/2 172/209/171
f 81/112/80 236/274/2 74/105/76
f 165/196/168 248/286/2 158/189/157
f 130/161/131 243/281/2 123/154/127
f 31/31/36 229/267/2 24/24/26
f 151/182/155 246/284/2 144/175/143
f 116/147/117 241/279/2 109/140/113
f 17/17/22 227/265/2 10/10/15
f 137/168/140 244/282/2 130/161/131
f 102/133/103 239/277/2 95/126/94
f 67/98/66 234/272/2 60/91/63
f 38/38/40 230/268/2 31/31/36
f 88/119/90 237/275/2 81/112/80
f 53/84/54 232/270/2 46/77/50
f 74/105/76 235/273/2 67/98/66
f 3/3/14 257/296/2 221/259/222
f 24/24/26 228/266/2 17/17/22
f 200/238/204 253/292/2 193/231/194
f 60/91/63 233/271/2 53/84/54
f 186/224/185 251/290/2 179/217/182
f 46/77/50 231/269/2 38/38/40
f 172/210/171 249/287/2 165/196/168
f 221/259/222 256/295/2 214/252/218
f 10/10/15 226/264/2 3/3/14
f 207/245/208 254/293/2 200/238/204
f 193/231/194 252/291/2 186/224/185
f 158/189/157 247/285/2 151/182/155
f 123/154/127 242/280/2 116/147/117
f 214/252/218 255/294/2 207/245/208
f 144/175/143 245/283/2 137/168/140
f 109/140/113 240/278/2 102/133/103
f 245/283/2 246/284/2 258/297/226
f 232/270/2 233/271/2 258/298/226
f 246/284/2 247/285/2 258/299/226
f 233/271/2 234/272/2 258/300/226
f 247/285/2 248/286/2 258/301/226
f 234/272/2 235/273/2 258/302/226
f 248/286/2 249/287/2 258/303/226
f 235/273/2 236/274/2 258/304/226
f 249/287/2 250/289/2 258/305/226
f 236/274/2 237/275/2 258/306/226
f 250/288/2 251/290/2 258/307/226
f 237/275/2 238/276/2 258/308/226
f 251/290/2 252/291/2 258/309/226
f 238/276/2 239/277/2 258/310/226
f 252/291/2 253/292/2 258/311/226
f 239/277/2 240/278/2 258/312/226
f 226/264/2 227/265/2 258/313/226
f 253/292/2 254/293/2 258/314/226
f 240/278/2 241/279/2 258/315/226
f 227/265/2 228/266/2 258/316/226
f 254/293/2 255/294/2 258/317/226
f 241/279/2 242/280/2 258/318/226
f 228/266/2 229/267/2 258/319/226
f 255/294/2 256/295/2 258/320/226
f 242/280/2 243/281/2 258/321/226
f 229/267/2 230/268/2 258/322/226
f 256/295/2 257/296/2 258/323/226
f 243/281/2 244/282/2 258/324/226
f 230/268/2 231/269/2 258/325/226
f 257/296/2 226/264/2 258/326/226
f 244/282/2 245/283/2 258/327/226
f 231/269/2 232/270/2 258/328/226
f 223/261/4 222/260/1 4/4/3
f 1/1/6 223/261/4 5/5/5
f 224/262/8 1/1/6 6/6/7
f 224/262/8 7/7/9 8/8/10
f 225/263/12 2/2/11 8/8/10
f 3/3/14 225/263/12 9/9/13
f 4/4/3 11/11/16 12/12/17
f 5/5/5 12/12/17 13/13/18
f 6/6/7 13/13/18 14/14/19
f 7/7/9 14/14/19 15/15/20
f 8/8/10 15/15/20 16/16/21
f 10/10/15 9/9/13 16/16/21
f 13/13/18 20/20/29 21/21/23
f 14/14/19 21/21/23 22/22/24
f 15/15/20 22/22/24 23/23/25
f 17/17/22 16/16/21 23/23/25
f 11/11/16 18/18/27 19/19/28
f 12/12/17 19/19/28 20/20/29
f 18/18/27 25/25/30 26/26/31
f 19/19/28 26/26/31 27/27/32
f 20/20/29 27/27/32 28/28/33
f 22/22/24 21/21/23 28/28/33
f 22/22/24 29/29/34 30/30/35
f 24/24/26 23/23/25 30/30/35
f 29/29/34 28/28/33 35/35/37
f 29/29/34 36/36/38 37/37/39
f 31/31/36 30/30/35 37/37/39
f 26/26/31 25/25/30 32/32/41
f 27/27/32 26/26/31 33/33/42
f 27/27/32 34/34/43 35/35/37
f 32/32/41 40/71/44 41/72/45
f 33/33/42 41/72/45 42/73/46
f 34/34/43 42/73/46 43/74/47
f 36/36/38 35/35/37 43/74/47
f 36/36/38 44/75/48 45/76/49
f 38/38/40 37/37/39 45/76/49
f 44/75/48 43/74/47 50/81/51
f 44/75/48 51/82/52 52/83/53
f 46/77/50 45/76/49 52/83/53
f 40/71/44 47/78/55 48/79/56
f 42/73/46 41/72/45 48/79/56
f 42/73/46 49/80/57 50/81/51
f 47/78/55 54/85/64 55/86/58
f 48/79/56 55/86/58 56/87/59
f 49/80/57 56/87/59 57/88/60
f 51/82/52 50/81/51 57/88/60
f 51/82/52 58/89/61 59/90/62
f 53/84/54 52/83/53 59/90/62
f 58/89/61 65/96/71 66/97/65
f 60/91/63 59/90/62 66/97/65
f 54/85/64 61/92/67 62/93/68
f 56/87/59 55/86/58 62/93/68
f 56/87/59 63/94/69 64/95/70
f 58/89/61 57/88/60 64/95/70
f 62/93/68 69/100/78 70/101/72
f 63/94/69 70/101/72 71/102/73
f 65/96/71 64/95/70 71/102/73
f 65/96/71 72/103/74 73/104/75
f 67/98/66 66/97/65 73/104/75
f 62/93/68 61/92/67 68/99/77
f 74/105/76 73/104/75 80/111/79
f 68/99/77 75/106/81 76/107/82
f 69/100/78 76/107/82 77/108/83
f 70/101/72 77/108/83 78/109/84
f 72/103/74 71/102/73 78/109/84
f 72/103/74 79/110/85 80/111/79
f 76/107/82 83/114/92 84/115/86
f 77/108/83 84/115/86 85/116/87
f 79/110/85 78/109/84 85/116/87
f 79/110/85 86/117/88 87/118/89
f 81/112/80 80/111/79 87/118/89
f 75/106/81 82/113/91 83/114/92
f 88/119/90 87/118/89 94/125/93
f 83/114/92 82/113/91 89/120/95
f 84/115/86 83/114/92 90/121/96
f 84/115/86 91/122/97 92/123/98
f 86/117/88 85/116/87 92/123/98
f 86/117/88 93/124/99 94/125/93
f 91/122/97 98/129/106 99/130/100
f 93/124/99 92/123/98 99/130/100
f 93/124/99 100/131/101 101/132/102
f 95/126/94 94/125/93 101/132/102
f 89/120/95 96/127/104 97/128/105
f 90/121/96 97/128/105 98/129/106
f 96/127/104 103/134/107 104/135/108
f 97/128/105 104/135/108 105/136/109
f 98/129/106 105/136/109 106/137/110
f 100/131/101 99/130/100 106/137/110
f 100/131/101 107/138/111 108/139/112
f 102/133/103 101/132/102 108/139/112
f 105/136/109 112/143/120 113/144/114
f 107/138/111 106/137/110 113/144/114
f 107/138/111 114/145/115 115/146/116
f 109/140/113 108/139/112 115/146/116
f 104/135/108 103/134/107 110/141/118
f 104/135/108 111/142/119 112/143/120
f 111/142/119 110/141/118 117/148/121
f 112/143/120 111/142/119 118/149/122
f 112/143/120 119/150/123 120/151/124
f 114/145/115 113/144/114 120/151/124
f 114/145/115 121/152/125 122/153/126
f 116/147/117 115/146/116 122/153/126
f 121/152/125 120/151/124 127/158/128
f 121/152/125 128/159/129 129/160/130
f 123/154/127 122/153/126 129/160/130
f 118/149/122 117/148/121 124/155/132
f 118/149/122 125/156/133 126/157/134
f 119/150/123 126/157/134 127/158/128
f 124/155/132 131/162/141 132/163/135
f 125/156/133 132/163/135 133/164/136
f 126/157/134 133/164/136 134/165/137
f 128/159/129 127/158/128 134/165/137
f 128/159/129 135/166/138 136/167/139
f 130/161/131 129/160/130 136/167/139
f 135/166/138 142/173/148 143/174/142
f 137/168/140 136/167/139 143/174/142
f 131/162/141 138/169/144 139/170/145
f 133/164/136 132/163/135 139/170/145
f 133/164/136 140/171/146 141/172/147
f 135/166/138 134/165/137 141/172/147
f 139/170/145 138/169/144 145/176/149
f 140/171/146 139/170/145 146/177/150
f 140/171/146 147/178/151 148/179/152
f 142/173/148 141/172/147 148/179/152
f 142/173/148 149/180/153 150/181/154
f 144/175/143 143/174/142 150/181/154
f 149/180/153 156/187/162 157/188/156
f 151/182/155 150/181/154 157/188/156
f 145/176/149 152/183/158 153/184/159
f 147/178/151 146/177/150 153/184/159
f 147/178/151 154/185/160 155/186/161
f 149/180/153 148/179/152 155/186/161
f 154/185/160 153/184/159 160/191/163
f 154/185/160 161/192/164 162/193/165
f 156/187/162 155/186/161 162/193/165
f 156/187/162 163/194/166 164/195/167
f 158/189/157 157/188/156 164/195/167
f 152/183/158 159/190/169 160/191/163
f 165/196/168 164/195/167 171/207/170
f 159/190/169 166/197/172 167/199/173
f 161/192/164 160/191/163 167/199/173
f 161/192/164 168/201/174 169/203/175
f 163/194/166 162/193/165 169/203/175
f 163/194/166 170/205/176 171/207/170
f 168/202/174 167/200/173 174/212/177
f 168/202/174 175/213/178 176/214/179
f 170/206/176 169/204/175 176/214/179
f 170/206/176 177/215/180 178/216/181
f 172/209/171 171/208/170 178/216/181
f 167/200/173 166/198/172 173/211/183
f 179/217/182 178/216/181 185/223/184
f 173/211/183 180/218/186 181/219/187
f 175/213/178 174/212/177 181/219/187
f 175/213/178 182/220/188 183/221/189
f 177/215/180 176/214/179 183/221/189
f 177/215/180 184/222/190 185/223/184
f 182/220/188 189/227/197 190/228/191
f 184/222/190 183/221/189 190/228/191
f 184/222/190 191/229/192 192/230/193
f 186/224/185 185/223/184 192/230/193
f 180/218/186 187/225/195 188/226/196
f 182/220/188 181/219/187 188/226/196
f 187/225/195 194/232/198 195/233/199
f 189/227/197 188/226/196 195/233/199
f 189/227/197 196/234/200 197/235/201
f 191/229/192 190/228/191 197/235/201
f 191/229/192 198/236/202 199/237/203
f 193/231/194 192/230/193 199/237/203
f 198/236/202 197/235/201 204/242/205
f 198/236/202 205/243/206 206/244/207
f 200/238/204 199/237/203 206/244/207
f 194/232/198 201/239/209 202/240/210
f 196/234/200 195/233/199 202/240/210
f 196/234/200 203/241/211 204/242/205
f 202/240/210 201/239/209 208/246/212
f 203/241/211 202/240/210 209/247/213
f 203/241/211 210/248/214 211/249/215
f 205/243/206 204/242/205 211/249/215
f 205/243/206 212/250/216 213/251/217
f 207/245/208 206/244/207 213/251/217
f 212/250/216 211/249/215 218/256/219
f 212/250/216 219/257/220 220/258/221
f 214/252/218 213/251/217 220/258/221
f 208/246/212 215/253/223 216/254/224
f 210/248/214 209/247/213 216/254/224
f 210/248/214 217/255/225 218/256/219
f 215/253/223 222/260/1 223/261/4
f 217/255/225 216/254/224 223/261/4
f 218/256/219 217/255/225 1/1/6
f 219/257/220 218/256/219 224/262/8
f 220/258/221 219/257/220 2/2/11
f 221/259/222 220/258/221 225/263/12
f 95/126/94 239/277/2 238/276/2
f 179/217/182 251/290/2 250/288/2
f 81/112/80 237/275/2 236/274/2
f 165/196/168 249/287/2 248/286/2
f 130/161/131 244/282/2 243/281/2
f 31/31/36 230/268/2 229/267/2
f 151/182/155 247/285/2 246/284/2
f 116/147/117 242/280/2 241/279/2
f 17/17/22 228/266/2 227/265/2
f 137/168/140 245/283/2 244/282/2
f 102/133/103 240/278/2 239/277/2
f 67/98/66 235/273/2 234/272/2
f 38/38/40 231/269/2 230/268/2
f 88/119/90 238/276/2 237/275/2
f 53/84/54 233/271/2 232/270/2
f 74/105/76 236/274/2 235/273/2
f 3/3/14 226/264/2 257/296/2
f 24/24/26 229/267/2 228/266/2
f 200/238/204 254/293/2 253/292/2
f 60/91/63 234/272/2 233/271/2
f 186/224/185 252/291/2 251/290/2
f 46/77/50 232/270/2 231/269/2
f 172/210/171 250/289/2 249/287/2
f 221/259/222 257/296/2 256/295/2
f 10/10/15 227/265/2 226/264/2
f 207/245/208 255/294/2 254/293/2
f 193/231/194 253/292/2 252/291/2
f 158/189/157 248/286/2 247/285/2
f 123/154/127 243/281/2 242/280/2
f 214/252/218 256/295/2 255/294/2
f 144/175/143 246/284/2 245/283/2
f 109/140/113 241/279/2 240/278/2
