# Blender 3.5.0
# www.blender.org
mtllib player_Back_Left.mtl
o player_Back
v -0.000706 0.159543 -0.052145
v -0.000576 0.159543 -0.052145
v -0.003748 0.159543 0.000000
v 0.006252 0.159543 0.000000
v -0.000706 -0.000457 -0.052145
v -0.000576 -0.000457 -0.052145
v -0.003748 -0.000457 0.000000
v 0.006252 -0.000457 0.000000
vn -0.0000 1.0000 -0.0000
vn -0.0000 -0.0000 1.0000
vn -0.0000 -1.0000 -0.0000
vn -0.0000 -0.0000 -1.0000
vn -0.9983 -0.0000 -0.0582
vn 0.9915 -0.0000 -0.1298
vt 0.375000 0.000000
vt 0.375000 1.000000
vt 0.125000 0.750000
vt 0.625000 0.000000
vt 0.625000 1.000000
vt 0.875000 0.750000
vt 0.125000 0.500000
vt 0.375000 0.250000
vt 0.625000 0.250000
vt 0.875000 0.500000
vt 0.375000 0.750000
vt 0.625000 0.750000
vt 0.375000 0.500000
vt 0.625000 0.500000
s 0
usemtl Turning
f 2/4/1 1/1/1 3/8/1
f 4/9/2 3/8/2 7/13/2
f 7/13/3 5/11/3 6/12/3
f 6/12/4 5/11/4 1/2/4
f 7/13/5 3/7/5 1/3/5
f 4/10/6 8/14/6 6/12/6
f 2/4/1 3/8/1 4/9/1
f 4/9/2 7/13/2 8/14/2
f 7/13/3 6/12/3 8/14/3
f 6/12/4 1/2/4 2/5/4
f 7/13/5 1/3/5 5/11/5
f 4/10/6 6/12/6 2/6/6
