# Blender 3.5.0
# www.blender.org
mtllib raindorp.mtl
o Cube
v 0.003215 -0.003214 1.000000
v 0.998383 0.000000 0.008552
v 0.000000 -0.988932 0.008552
v 0.000000 0.006429 1.000000
v -0.000000 1.007834 0.008552
v -0.006429 0.000000 1.000000
v -1.021093 -0.000000 0.008552
v -0.000000 -0.000000 -1.000000
vn -0.0000 -0.0000 1.0000
vn -0.2299 -0.6898 0.6865
vn 0.5754 -0.5809 0.5757
vn -0.5704 0.5779 0.5837
vn 0.5790 0.5736 0.5794
vn -0.5725 0.5800 -0.5796
vn 0.5811 0.5757 -0.5753
vn -0.5688 -0.5873 -0.5758
vn 0.5774 -0.5830 -0.5716
vn -0.5667 -0.5852 0.5800
vn -0.5754 0.5754 0.5812
vn 0.6867 0.2289 0.6900
vt 0.749432 0.625568
vt 0.749432 0.624432
vt 0.500568 0.500000
vt 0.375000 0.500000
vt 0.501570 0.500000
vt 0.625000 0.500000
vt 0.500568 0.750000
vt 0.375000 0.750000
vt 0.501570 0.750000
vt 0.625000 0.750000
vt 0.750568 0.624432
vt 0.125000 0.500000
vt 0.875000 0.500000
vt 0.750568 0.625568
vt 0.125000 0.750000
vt 0.875000 0.750000
vt 0.251570 0.623430
vt 0.251570 0.626570
vt 0.248430 0.623430
vt 0.248430 0.626570
s 0
usemtl Material
f 1/2/1 4/11/1 6/14/1
f 6/14/2 3/10/2 1/1/2
f 1/1/3 3/7/3 2/3/3
f 6/14/4 5/13/4 7/16/4
f 4/11/5 2/6/5 5/13/5
f 8/17/6 7/15/6 5/12/6
f 8/18/7 5/12/7 2/4/7
f 8/19/8 3/8/8 7/15/8
f 8/20/9 2/5/9 3/9/9
f 6/14/10 7/16/10 3/10/10
f 6/14/11 4/11/11 5/13/11
f 4/11/12 1/2/12 2/6/12
