# Blender 3.5.0
# www.blender.org
mtllib light.mtl
o 円錐
v 0.000000 2.720744 1.039087
v 0.202716 2.720744 1.019121
v 0.397641 2.720744 0.959991
v 0.577286 2.720744 0.863969
v 0.734745 2.720744 0.734745
v 0.863969 2.720744 0.577286
v 0.959991 2.720744 0.397641
v 1.019121 2.720744 0.202716
v 1.039087 2.720744 0.000000
v 1.019121 2.720744 -0.202716
v 0.959991 2.720744 -0.397641
v 0.863969 2.720744 -0.577285
v 0.734745 2.720745 -0.734745
v 0.577286 2.720745 -0.863969
v 0.397641 2.720745 -0.959991
v 0.202716 2.720745 -1.019121
v 0.000000 2.720745 -1.039086
v -0.202716 2.720745 -1.019121
v -0.397641 2.720745 -0.959991
v -0.577286 2.720745 -0.863969
v -0.734745 2.720745 -0.734745
v -0.863969 2.720744 -0.577285
v -0.959991 2.720744 -0.397641
v -1.019121 2.720744 -0.202716
v -1.039087 2.720744 0.000000
v -1.019121 2.720744 0.202716
v -0.959991 2.720744 0.397641
v -0.863969 2.720744 0.577286
v -0.734745 2.720744 0.734745
v -0.577286 2.720744 0.863969
v -0.397641 2.720744 0.959991
v -0.202716 2.720744 1.019121
v 0.000000 0.642571 -0.000000
v 0.000000 -1.000000 -0.224799
v 0.000000 1.000000 -0.224799
v 0.043856 -1.000000 -0.220479
v 0.043856 1.000000 -0.220479
v 0.086027 -1.000000 -0.207687
v 0.086027 1.000000 -0.207687
v 0.124891 -1.000000 -0.186913
v 0.124891 1.000000 -0.186913
v 0.158957 -1.000000 -0.158957
v 0.158957 1.000000 -0.158957
v 0.186913 -1.000000 -0.124891
v 0.186913 1.000000 -0.124891
v 0.207687 -1.000000 -0.086027
v 0.207687 1.000000 -0.086027
v 0.220479 -1.000000 -0.043856
v 0.220479 1.000000 -0.043856
v 0.224799 -1.000000 0.000000
v 0.224799 1.000000 0.000000
v 0.220479 -1.000000 0.043856
v 0.220479 1.000000 0.043856
v 0.207687 -1.000000 0.086027
v 0.207687 1.000000 0.086027
v 0.186913 -1.000000 0.124891
v 0.186913 1.000000 0.124891
v 0.158957 -1.000000 0.158957
v 0.158957 1.000000 0.158957
v 0.124891 -1.000000 0.186913
v 0.124891 1.000000 0.186913
v 0.086027 -1.000000 0.207687
v 0.086027 1.000000 0.207687
v 0.043856 -1.000000 0.220479
v 0.043856 1.000000 0.220479
v 0.000000 -1.000000 0.224799
v 0.000000 1.000000 0.224798
v -0.043856 -1.000000 0.220479
v -0.043856 1.000000 0.220479
v -0.086027 -1.000000 0.207687
v -0.086027 1.000000 0.207687
v -0.124891 -1.000000 0.186913
v -0.124891 1.000000 0.186913
v -0.158957 -1.000000 0.158957
v -0.158957 1.000000 0.158957
v -0.186913 -1.000000 0.124891
v -0.186913 1.000000 0.124891
v -0.207687 -1.000000 0.086027
v -0.207687 1.000000 0.086027
v -0.220479 -1.000000 0.043856
v -0.220479 1.000000 0.043856
v -0.224799 -1.000000 0.000000
v -0.224799 1.000000 0.000000
v -0.220479 -1.000000 -0.043856
v -0.220479 1.000000 -0.043856
v -0.207687 -1.000000 -0.086027
v -0.207687 1.000000 -0.086027
v -0.186913 -1.000000 -0.124891
v -0.186913 1.000000 -0.124891
v -0.158957 -1.000000 -0.158957
v -0.158957 1.000000 -0.158957
v -0.124891 -1.000000 -0.186913
v -0.124891 1.000000 -0.186913
v -0.086027 -1.000000 -0.207687
v -0.086027 1.000000 -0.207687
v -0.043856 -1.000000 -0.220479
v -0.043856 1.000000 -0.220479
v 0.000000 1.458887 0.449597
v 0.087712 1.458887 0.440958
v 0.172053 1.458887 0.415374
v 0.249783 1.458887 0.373826
v 0.317913 1.458887 0.317913
v 0.373826 1.458887 0.249783
v 0.415373 1.458887 0.172053
v 0.440958 1.458887 0.087712
v 0.449597 1.458887 0.000000
v 0.440958 1.458887 -0.087712
v 0.415373 1.458887 -0.172053
v 0.373826 1.458887 -0.249783
v 0.317913 1.458887 -0.317913
v 0.249783 1.458887 -0.373826
v 0.172053 1.458887 -0.415373
v 0.087712 1.458887 -0.440958
v 0.000000 1.458887 -0.449597
v -0.087712 1.458887 -0.440958
v -0.172053 1.458887 -0.415373
v -0.249783 1.458887 -0.373826
v -0.317913 1.458887 -0.317913
v -0.373826 1.458887 -0.249783
v -0.415373 1.458887 -0.172053
v -0.440958 1.458887 -0.087712
v -0.449597 1.458887 0.000000
v -0.440958 1.458887 0.087712
v -0.415373 1.458887 0.172053
v -0.373826 1.458887 0.249783
v -0.317913 1.458887 0.317913
v -0.249783 1.458887 0.373826
v -0.172053 1.458887 0.415374
v -0.087712 1.458887 0.440958
v 0.000000 0.569998 -0.000000
vn -0.0000 0.5033 0.8641
vn -0.0000 -1.0000 -0.0000
vn 0.1686 0.5033 0.8475
vn 0.3307 0.5033 0.7983
vn 0.4801 0.5033 0.7185
vn 0.6110 0.5033 0.6110
vn 0.7185 0.5033 0.4801
vn 0.7983 0.5033 0.3307
vn 0.8475 0.5033 0.1686
vn 0.8641 0.5033 -0.0000
vn 0.8475 0.5033 -0.1686
vn 0.7983 0.5033 -0.3307
vn 0.7185 0.5033 -0.4801
vn 0.6110 0.5033 -0.6110
vn 0.4801 0.5033 -0.7185
vn 0.3307 0.5033 -0.7983
vn 0.1686 0.5033 -0.8475
vn -0.0000 0.5033 -0.8641
vn -0.1686 0.5033 -0.8475
vn -0.3307 0.5033 -0.7983
vn -0.4801 0.5033 -0.7185
vn -0.6110 0.5033 -0.6110
vn -0.7185 0.5033 -0.4801
vn -0.7983 0.5033 -0.3307
vn -0.8475 0.5033 -0.1686
vn -0.8641 0.5033 -0.0000
vn -0.8475 0.5033 0.1686
vn -0.7983 0.5033 0.3307
vn -0.7185 0.5033 0.4801
vn -0.6110 0.5033 0.6110
vn -0.4801 0.5033 0.7185
vn -0.3307 0.5033 0.7983
vn -0.1686 0.5033 0.8475
vn -0.0000 0.6857 -0.7279
vn 0.1420 -0.6857 -0.7139
vn -0.0000 -0.6857 -0.7279
vn 0.1420 0.6857 -0.7139
vn 0.2786 -0.6857 -0.6725
vn 0.2786 0.6857 -0.6725
vn 0.4044 -0.6857 -0.6052
vn 0.4044 0.6857 -0.6052
vn 0.5147 -0.6857 -0.5147
vn 0.5147 0.6857 -0.5147
vn 0.6052 -0.6857 -0.4044
vn 0.6052 0.6857 -0.4044
vn 0.6725 -0.6857 -0.2786
vn 0.6725 0.6857 -0.2786
vn 0.7139 -0.6857 -0.1420
vn 0.7139 0.6857 -0.1420
vn 0.7279 -0.6857 -0.0000
vn 0.7279 0.6857 -0.0000
vn 0.7139 -0.6857 0.1420
vn 0.7139 0.6857 0.1420
vn 0.6725 -0.6857 0.2786
vn 0.6725 0.6857 0.2786
vn 0.6052 -0.6857 0.4044
vn 0.6052 0.6857 0.4044
vn 0.5147 -0.6857 0.5147
vn 0.5147 0.6857 0.5147
vn 0.4044 -0.6857 0.6052
vn 0.4044 0.6857 0.6052
vn 0.2786 -0.6857 0.6725
vn 0.2786 0.6857 0.6725
vn 0.1420 -0.6857 0.7139
vn 0.1420 0.6857 0.7139
vn -0.0000 -0.6857 0.7279
vn -0.0000 0.6857 0.7279
vn -0.1420 -0.6857 0.7139
vn -0.1420 0.6857 0.7139
vn -0.2786 -0.6857 0.6725
vn -0.2786 0.6857 0.6725
vn -0.4044 -0.6857 0.6052
vn -0.4044 0.6857 0.6052
vn -0.5147 -0.6857 0.5147
vn -0.5147 0.6857 0.5147
vn -0.6052 -0.6857 0.4044
vn -0.6052 0.6857 0.4044
vn -0.6725 -0.6857 0.2786
vn -0.6725 0.6857 0.2786
vn -0.7139 -0.6857 0.1420
vn -0.7139 0.6857 0.1420
vn -0.7279 -0.6857 -0.0000
vn -0.7279 0.6857 -0.0000
vn -0.7139 -0.6857 -0.1420
vn -0.7139 0.6857 -0.1420
vn -0.6725 -0.6857 -0.2786
vn -0.6725 0.6857 -0.2786
vn -0.6052 -0.6857 -0.4044
vn -0.6052 0.6857 -0.4044
vn -0.5147 -0.6857 -0.5147
vn -0.5147 0.6857 -0.5147
vn -0.4044 -0.6857 -0.6052
vn -0.4044 0.6857 -0.6052
vn -0.2786 -0.6857 -0.6725
vn -0.2786 0.6857 -0.6725
vn -0.1420 -0.6857 -0.7139
vn -0.1420 0.6857 -0.7139
vn -0.0000 0.5013 0.8652
vn 0.1688 0.5013 0.8486
vn 0.3311 0.5013 0.7994
vn 0.4807 0.5013 0.7194
vn 0.6118 0.5013 0.6118
vn 0.7194 0.5013 0.4807
vn 0.7994 0.5013 0.3311
vn 0.8486 0.5013 0.1688
vn 0.8652 0.5013 -0.0000
vn 0.8486 0.5013 -0.1688
vn 0.7994 0.5013 -0.3311
vn 0.7194 0.5013 -0.4807
vn 0.6118 0.5013 -0.6118
vn 0.4807 0.5013 -0.7194
vn 0.3311 0.5013 -0.7994
vn 0.1688 0.5013 -0.8486
vn -0.0000 0.5013 -0.8652
vn -0.1688 0.5013 -0.8486
vn -0.3311 0.5013 -0.7994
vn -0.4807 0.5013 -0.7194
vn -0.6118 0.5013 -0.6118
vn -0.7194 0.5013 -0.4807
vn -0.7994 0.5013 -0.3311
vn -0.8486 0.5013 -0.1688
vn -0.8652 0.5013 -0.0000
vn -0.8486 0.5013 0.1688
vn -0.7994 0.5013 0.3311
vn -0.7194 0.5013 0.4807
vn -0.6118 0.5013 0.6118
vn -0.4807 0.5013 0.7194
vn -0.3311 0.5013 0.7994
vn -0.1688 0.5013 0.8486
vt 0.447535 0.813960
vt 0.000000 0.174809
vt 0.482020 0.828719
vt 0.007452 0.137346
vt 0.517857 0.841936
vt 0.022069 0.102058
vt 0.553667 0.853105
vt 0.043290 0.070298
vt 0.588075 0.861794
vt 0.070299 0.043290
vt 0.619757 0.867672
vt 0.102058 0.022069
vt 0.647498 0.870511
vt 0.884442 0.435255
vt 0.137346 0.007452
vt 0.852448 0.439092
vt 0.174809 0.000000
vt 0.817555 0.445561
vt 0.213005 0.000000
vt 0.781103 0.454414
vt 0.250468 0.007452
vt 0.744494 0.465310
vt 0.285756 0.022069
vt 0.709134 0.477831
vt 0.317515 0.043290
vt 0.676383 0.491496
vt 0.344524 0.070299
vt 0.647498 0.505778
vt 0.670438 0.000000
vt 0.365745 0.102058
vt 0.642697 0.002839
vt 0.380362 0.137346
vt 0.611015 0.008716
vt 0.387814 0.174809
vt 0.576607 0.017406
vt 0.387814 0.213005
vt 0.540797 0.028574
vt 0.380362 0.250468
vt 0.504961 0.041792
vt 0.365745 0.285756
vt 0.470475 0.056551
vt 0.344524 0.317515
vt 0.438665 0.072284
vt 0.317515 0.344524
vt 0.410754 0.088387
vt 0.285756 0.365745
vt 0.387814 0.104240
vt 0.000000 0.734682
vt 0.250467 0.380362
vt 0.027911 0.750785
vt 0.213005 0.387814
vt 0.059721 0.766519
vt 0.174809 0.387814
vt 0.094207 0.781278
vt 0.137346 0.380362
vt 0.130043 0.794495
vt 0.102058 0.365745
vt 0.165853 0.805663
vt 0.070298 0.344524
vt 0.200261 0.814353
vt 0.043290 0.317515
vt 0.231943 0.820230
vt 0.022069 0.285756
vt 0.259684 0.823069
vt 0.387814 0.782124
vt 0.007452 0.250467
vt 0.415725 0.798227
vt 0.000000 0.213005
vt 0.884442 0.868561
vt 0.670438 0.435255
vt 0.259684 0.387814
vt 0.647498 0.435255
vt 0.274189 0.577883
vt 0.158436 0.838278
vt 0.074535 0.838278
vt 0.274189 0.940337
vt 0.266555 0.577071
vt 0.163027 0.845149
vt 0.266555 0.939525
vt 0.068692 0.832435
vt 0.378337 0.574391
vt 0.259684 0.575892
vt 0.166189 0.852783
vt 0.259684 0.938346
vt 0.378337 0.936846
vt 0.061821 0.827844
vt 0.372494 0.575892
vt 0.167801 0.860888
vt 0.372494 0.938346
vt 0.054187 0.824681
vt 0.365623 0.577071
vt 0.167801 0.869151
vt 0.365623 0.939525
vt 0.046082 0.823069
vt 0.357989 0.577883
vt 0.166189 0.877256
vt 0.357989 0.940337
vt 0.037819 0.823069
vt 0.349884 0.578297
vt 0.163027 0.884890
vt 0.349884 0.940751
vt 0.029714 0.824681
vt 0.341621 0.578297
vt 0.158436 0.891761
vt 0.341621 0.940751
vt 0.022079 0.827844
vt 0.333516 0.577883
vt 0.152593 0.897604
vt 0.333516 0.940337
vt 0.015209 0.832435
vt 0.325881 0.577071
vt 0.145722 0.902195
vt 0.325881 0.939525
vt 0.009365 0.838278
vt 0.838239 0.366360
vt 0.319010 0.575892
vt 0.138087 0.905358
vt 0.319010 0.938346
vt 0.838239 0.003906
vt 0.004774 0.845149
vt 0.844082 0.364860
vt 0.129983 0.906970
vt 0.844082 0.002405
vt 0.001612 0.852783
vt 0.850953 0.363681
vt 0.121719 0.906970
vt 0.850953 0.001226
vt 0.000000 0.860888
vt 0.858588 0.362869
vt 0.113614 0.905358
vt 0.858588 0.000414
vt 0.000000 0.869151
vt 0.866692 0.362455
vt 0.105980 0.902195
vt 0.866692 0.000000
vt 0.001612 0.877256
vt 0.874956 0.362455
vt 0.099109 0.897604
vt 0.874956 0.000000
vt 0.004774 0.884890
vt 0.883060 0.362869
vt 0.093266 0.891761
vt 0.883060 0.000414
vt 0.009365 0.891761
vt 0.890695 0.363681
vt 0.088675 0.884890
vt 0.890695 0.001226
vt 0.015209 0.897604
vt 0.943769 0.435255
vt 0.897566 0.364860
vt 0.085513 0.877256
vt 0.897566 0.002405
vt 0.943769 0.797710
vt 0.022079 0.902195
vt 0.937926 0.436756
vt 0.083901 0.869151
vt 0.937926 0.799211
vt 0.029714 0.905358
vt 0.931055 0.437935
vt 0.083901 0.860888
vt 0.931055 0.800390
vt 0.037819 0.906970
vt 0.923420 0.438747
vt 0.085513 0.852783
vt 0.923420 0.801202
vt 0.046082 0.906970
vt 0.915316 0.439161
vt 0.088675 0.845149
vt 0.915316 0.801616
vt 0.054187 0.905358
vt 0.907052 0.439161
vt 0.093266 0.838278
vt 0.907052 0.801616
vt 0.061821 0.902195
vt 0.898947 0.438747
vt 0.099109 0.832435
vt 0.898947 0.801202
vt 0.068692 0.897604
vt 0.891313 0.437935
vt 0.105980 0.827844
vt 0.891313 0.800390
vt 0.074535 0.891761
vt 0.319010 0.574391
vt 0.884442 0.436756
vt 0.113614 0.824681
vt 0.884442 0.799211
vt 0.319010 0.936846
vt 0.079126 0.884890
vt 0.313167 0.575892
vt 0.121719 0.823069
vt 0.313167 0.938346
vt 0.082288 0.877256
vt 0.306296 0.577071
vt 0.129983 0.823069
vt 0.306296 0.939525
vt 0.083901 0.869151
vt 0.298662 0.577883
vt 0.138087 0.824681
vt 0.298662 0.940337
vt 0.083901 0.860888
vt 0.290557 0.578297
vt 0.145722 0.827844
vt 0.082288 0.852783
vt 0.290557 0.940751
vt 0.282294 0.578297
vt 0.152593 0.832435
vt 0.079126 0.845149
vt 0.282294 0.940751
vt 0.341241 0.395486
vt 0.700855 0.149070
vt 0.325764 0.400372
vt 0.689169 0.137384
vt 0.310278 0.406144
vt 0.679987 0.123642
vt 0.295378 0.412582
vt 0.673662 0.108373
vt 0.281638 0.419437
vt 0.670438 0.092164
vt 0.269586 0.426446
vt 0.670438 0.075637
vt 0.259684 0.433340
vt 0.897566 0.154887
vt 0.673662 0.059428
vt 0.910046 0.161103
vt 0.679987 0.044159
vt 0.924200 0.167056
vt 0.689169 0.030417
vt 0.939484 0.172517
vt 0.700855 0.018731
vt 0.955311 0.177277
vt 0.714597 0.009549
vt 0.971072 0.181153
vt 0.729865 0.003224
vt 0.986162 0.183996
vt 0.746075 0.000000
vt 1.000000 0.185695
vt 0.996670 0.801616
vt 0.762602 0.000000
vt 0.984672 0.802886
vt 0.778811 0.003224
vt 0.970972 0.805476
vt 0.794080 0.009549
vt 0.956098 0.809287
vt 0.807822 0.018731
vt 0.940620 0.814173
vt 0.819508 0.030417
vt 0.925134 0.819946
vt 0.828690 0.044159
vt 0.910235 0.826384
vt 0.835015 0.059428
vt 0.896495 0.833239
vt 0.838239 0.075637
vt 0.884442 0.840248
vt 0.670438 0.316448
vt 0.838239 0.092164
vt 0.680765 0.322688
vt 0.835015 0.108373
vt 0.693245 0.328904
vt 0.828690 0.123642
vt 0.707399 0.334857
vt 0.819508 0.137384
vt 0.722683 0.340319
vt 0.807822 0.149070
vt 0.738510 0.345079
vt 0.794080 0.158252
vt 0.754271 0.348954
vt 0.778811 0.164577
vt 0.769360 0.351797
vt 0.762602 0.167801
vt 0.783199 0.353497
vt 0.381814 0.387814
vt 0.746075 0.167801
vt 0.369815 0.389084
vt 0.729865 0.164577
vt 0.356116 0.391674
vt 0.714597 0.158252
vt 1.000000 0.000000
vt 0.996670 0.988193
vt 0.783199 0.167801
vt 0.381814 0.574391
s 1
usemtl マテリアル.002
f 1/1/1 33/72/2 2/3/3
f 2/3/3 33/72/2 3/5/4
f 3/5/4 33/72/2 4/7/5
f 4/7/5 33/72/2 5/9/6
f 5/9/6 33/72/2 6/11/7
f 6/11/7 33/72/2 7/13/8
f 7/14/8 33/69/2 8/16/9
f 8/16/9 33/69/2 9/18/10
f 9/18/10 33/69/2 10/20/11
f 10/20/11 33/69/2 11/22/12
f 11/22/12 33/69/2 12/24/13
f 12/24/13 33/69/2 13/26/14
f 13/26/14 33/69/2 14/28/15
f 14/29/15 33/70/2 15/31/16
f 15/31/16 33/70/2 16/33/17
f 16/33/17 33/70/2 17/35/18
f 17/35/18 33/70/2 18/37/19
f 18/37/19 33/70/2 19/39/20
f 19/39/20 33/70/2 20/41/21
f 20/41/21 33/70/2 21/43/22
f 21/43/22 33/70/2 22/45/23
f 22/45/23 33/70/2 23/47/24
f 23/48/24 33/71/2 24/50/25
f 24/50/25 33/71/2 25/52/26
f 25/52/26 33/71/2 26/54/27
f 26/54/27 33/71/2 27/56/28
f 27/56/28 33/71/2 28/58/29
f 28/58/29 33/71/2 29/60/30
f 29/60/30 33/71/2 30/62/31
f 30/62/31 33/71/2 31/64/32
f 16/34/17 24/51/25 32/68/33
f 31/65/32 33/72/2 32/67/33
f 32/67/33 33/72/2 1/1/1
f 35/76/34 36/77/35 34/73/36
f 37/79/37 38/82/38 36/77/35
f 39/85/39 40/87/40 38/81/38
f 41/89/41 42/91/42 40/87/40
f 43/93/43 44/95/44 42/91/42
f 45/97/45 46/99/46 44/95/44
f 47/101/47 48/103/48 46/99/46
f 49/105/49 50/107/50 48/103/48
f 51/109/51 52/111/52 50/107/50
f 53/113/53 54/116/54 52/111/52
f 55/119/55 56/121/56 54/115/54
f 57/123/57 58/125/58 56/121/56
f 59/127/59 60/129/60 58/125/58
f 61/131/61 62/133/62 60/129/60
f 63/135/63 64/137/64 62/133/62
f 65/139/65 66/141/66 64/137/64
f 67/143/67 68/145/68 66/141/66
f 69/147/69 70/150/70 68/145/68
f 71/153/71 72/155/72 70/149/70
f 73/157/73 74/159/74 72/155/72
f 75/161/75 76/163/76 74/159/74
f 77/165/77 78/167/78 76/163/76
f 79/169/79 80/171/80 78/167/78
f 81/173/81 82/175/82 80/171/80
f 83/177/83 84/179/84 82/175/82
f 85/181/85 86/184/86 84/179/84
f 87/187/87 88/189/88 86/183/86
f 89/191/89 90/193/90 88/189/88
f 91/195/91 92/197/92 90/193/90
f 93/199/93 94/201/94 92/197/92
f 47/102/47 39/86/39 71/154/71
f 95/204/95 96/205/96 94/201/94
f 97/208/97 34/73/36 96/205/96
f 88/190/88 96/206/96 64/138/64
f 98/209/98 130/280/2 99/211/99
f 99/211/99 130/280/2 100/213/100
f 100/213/100 130/280/2 101/215/101
f 101/215/101 130/280/2 102/217/102
f 102/217/102 130/280/2 103/219/103
f 103/219/103 130/280/2 104/221/104
f 104/222/104 130/277/2 105/224/105
f 105/224/105 130/277/2 106/226/106
f 106/226/106 130/277/2 107/228/107
f 107/228/107 130/277/2 108/230/108
f 108/230/108 130/277/2 109/232/109
f 109/232/109 130/277/2 110/234/110
f 110/234/110 130/277/2 111/236/111
f 111/237/111 130/278/2 112/239/112
f 112/239/112 130/278/2 113/241/113
f 113/241/113 130/278/2 114/243/114
f 114/243/114 130/278/2 115/245/115
f 115/245/115 130/278/2 116/247/116
f 116/247/116 130/278/2 117/249/117
f 117/249/117 130/278/2 118/251/118
f 118/251/118 130/278/2 119/253/119
f 119/254/119 130/279/2 120/256/120
f 120/256/120 130/279/2 121/258/121
f 121/258/121 130/279/2 122/260/122
f 122/260/122 130/279/2 123/262/123
f 123/262/123 130/279/2 124/264/124
f 124/264/124 130/279/2 125/266/125
f 125/266/125 130/279/2 126/268/126
f 126/268/126 130/279/2 127/270/127
f 127/271/127 130/280/2 128/273/128
f 125/267/125 129/276/129 113/242/113
f 128/273/128 130/280/2 129/275/129
f 129/275/129 130/280/2 98/209/98
f 32/68/33 1/2/1 2/4/3
f 2/4/3 3/6/4 4/8/5
f 4/8/5 5/10/6 6/12/7
f 6/12/7 7/15/8 8/17/9
f 8/17/9 9/19/10 10/21/11
f 10/21/11 11/23/12 12/25/13
f 12/25/13 13/27/14 14/30/15
f 14/30/15 15/32/16 16/34/17
f 16/34/17 17/36/18 18/38/19
f 18/38/19 19/40/20 20/42/21
f 20/42/21 21/44/22 22/46/23
f 22/46/23 23/49/24 24/51/25
f 24/51/25 25/53/26 26/55/27
f 26/55/27 27/57/28 28/59/29
f 28/59/29 29/61/30 30/63/31
f 30/63/31 31/66/32 32/68/33
f 32/68/33 2/4/3 8/17/9
f 2/4/3 4/8/5 8/17/9
f 4/8/5 6/12/7 8/17/9
f 8/17/9 10/21/11 16/34/17
f 10/21/11 12/25/13 16/34/17
f 12/25/13 14/30/15 16/34/17
f 16/34/17 18/38/19 24/51/25
f 18/38/19 20/42/21 24/51/25
f 20/42/21 22/46/23 24/51/25
f 24/51/25 26/55/27 32/68/33
f 26/55/27 28/59/29 32/68/33
f 28/59/29 30/63/31 32/68/33
f 32/68/33 8/17/9 16/34/17
f 35/76/34 37/79/37 36/77/35
f 37/79/37 39/84/39 38/82/38
f 39/85/39 41/89/41 40/87/40
f 41/89/41 43/93/43 42/91/42
f 43/93/43 45/97/45 44/95/44
f 45/97/45 47/101/47 46/99/46
f 47/101/47 49/105/49 48/103/48
f 49/105/49 51/109/51 50/107/50
f 51/109/51 53/113/53 52/111/52
f 53/113/53 55/118/55 54/116/54
f 55/119/55 57/123/57 56/121/56
f 57/123/57 59/127/59 58/125/58
f 59/127/59 61/131/61 60/129/60
f 61/131/61 63/135/63 62/133/62
f 63/135/63 65/139/65 64/137/64
f 65/139/65 67/143/67 66/141/66
f 67/143/67 69/147/69 68/145/68
f 69/147/69 71/152/71 70/150/70
f 71/153/71 73/157/73 72/155/72
f 73/157/73 75/161/75 74/159/74
f 75/161/75 77/165/77 76/163/76
f 77/165/77 79/169/79 78/167/78
f 79/169/79 81/173/81 80/171/80
f 81/173/81 83/177/83 82/175/82
f 83/177/83 85/181/85 84/179/84
f 85/181/85 87/186/87 86/184/86
f 87/187/87 89/191/89 88/189/88
f 89/191/89 91/195/91 90/193/90
f 91/195/91 93/199/93 92/197/92
f 93/199/93 95/204/95 94/201/94
f 39/86/39 37/80/37 95/203/95
f 37/80/37 35/75/34 95/203/95
f 35/75/34 97/207/97 95/203/95
f 95/203/95 93/200/93 91/196/91
f 91/196/91 89/192/89 87/188/87
f 87/188/87 85/182/85 83/178/83
f 83/178/83 81/174/81 79/170/79
f 79/170/79 77/166/77 75/162/75
f 75/162/75 73/158/73 71/154/71
f 71/154/71 69/148/69 63/136/63
f 69/148/69 67/144/67 63/136/63
f 67/144/67 65/140/65 63/136/63
f 63/136/63 61/132/61 59/128/59
f 59/128/59 57/124/57 55/120/55
f 55/120/55 53/114/53 47/102/47
f 53/114/53 51/110/51 47/102/47
f 51/110/51 49/106/49 47/102/47
f 47/102/47 45/98/45 43/94/43
f 43/94/43 41/90/41 39/86/39
f 95/203/95 91/196/91 87/188/87
f 87/188/87 83/178/83 79/170/79
f 79/170/79 75/162/75 87/188/87
f 75/162/75 71/154/71 87/188/87
f 63/136/63 59/128/59 71/154/71
f 59/128/59 55/120/55 71/154/71
f 47/102/47 43/94/43 39/86/39
f 39/86/39 95/203/95 71/154/71
f 95/203/95 87/188/87 71/154/71
f 55/120/55 47/102/47 71/154/71
f 95/204/95 97/208/97 96/205/96
f 97/208/97 35/76/34 34/73/36
f 96/206/96 34/74/36 36/78/35
f 36/78/35 38/83/38 96/206/96
f 38/83/38 40/88/40 96/206/96
f 40/88/40 42/92/42 44/96/44
f 44/96/44 46/100/46 40/88/40
f 46/100/46 48/104/48 40/88/40
f 48/104/48 50/108/50 52/112/52
f 52/112/52 54/117/54 56/122/56
f 56/122/56 58/126/58 64/138/64
f 58/126/58 60/130/60 64/138/64
f 60/130/60 62/134/62 64/138/64
f 64/138/64 66/142/66 68/146/68
f 68/146/68 70/151/70 72/156/72
f 72/156/72 74/160/74 80/172/80
f 74/160/74 76/164/76 80/172/80
f 76/164/76 78/168/78 80/172/80
f 80/172/80 82/176/82 84/180/84
f 84/180/84 86/185/86 88/190/88
f 88/190/88 90/194/90 96/206/96
f 90/194/90 92/198/92 96/206/96
f 92/198/92 94/202/94 96/206/96
f 48/104/48 52/112/52 56/122/56
f 64/138/64 68/146/68 80/172/80
f 68/146/68 72/156/72 80/172/80
f 80/172/80 84/180/84 88/190/88
f 96/206/96 40/88/40 64/138/64
f 40/88/40 48/104/48 64/138/64
f 48/104/48 56/122/56 64/138/64
f 80/172/80 88/190/88 64/138/64
f 129/276/129 98/210/98 99/212/99
f 99/212/99 100/214/100 129/276/129
f 100/214/100 101/216/101 129/276/129
f 101/216/101 102/218/102 103/220/103
f 103/220/103 104/223/104 105/225/105
f 105/225/105 106/227/106 107/229/107
f 107/229/107 108/231/108 109/233/109
f 109/233/109 110/235/110 111/238/111
f 111/238/111 112/240/112 113/242/113
f 113/242/113 114/244/114 115/246/115
f 115/246/115 116/248/116 117/250/117
f 117/250/117 118/252/118 119/255/119
f 119/255/119 120/257/120 117/250/117
f 120/257/120 121/259/121 117/250/117
f 121/259/121 122/261/122 123/263/123
f 123/263/123 124/265/124 125/267/125
f 125/267/125 126/269/126 127/272/127
f 127/272/127 128/274/128 129/276/129
f 101/216/101 103/220/103 105/225/105
f 105/225/105 107/229/107 109/233/109
f 109/233/109 111/238/111 105/225/105
f 111/238/111 113/242/113 105/225/105
f 113/242/113 115/246/115 121/259/121
f 115/246/115 117/250/117 121/259/121
f 121/259/121 123/263/123 125/267/125
f 125/267/125 127/272/127 129/276/129
f 129/276/129 101/216/101 113/242/113
f 101/216/101 105/225/105 113/242/113
f 121/259/121 125/267/125 113/242/113
