# Blender 3.5.0
# www.blender.org
mtllib snowStartlSkydome.mtl
o 立方体
v -25.000000 0.000015 200.000000
v -25.000000 60.000015 200.000000
v -25.000000 0.000000 0.000000
v -25.000000 60.000000 -0.000005
v 25.000000 0.000015 200.000000
v 25.000000 60.000015 200.000000
v 25.000000 0.000000 0.000000
v 25.000000 60.000000 -0.000005
vn 1.0000 -0.0000 -0.0000
vn -1.0000 -0.0000 -0.0000
vn -0.0000 1.0000 -0.0000
vn -0.0000 -1.0000 -0.0000
vn -0.0000 -0.0000 1.0000
vt 0.004004 -0.003527
vt 0.297465 0.990949
vt 0.004004 0.982677
vt 0.653655 0.977424
vt 0.297465 0.801670
vt 0.994431 -0.003527
vt 0.373244 0.003733
vt 0.373244 0.998014
vt 0.994431 0.982677
vt 0.653655 0.859326
vt 0.994431 -0.003048
vt 0.178157 0.990949
vt 0.994431 0.988613
vt 0.772963 0.977424
vt 0.004004 -0.003048
vt 0.178157 0.801670
vt 0.594638 0.003733
vt 0.772963 0.859326
vt 0.004004 0.988613
vt 0.594638 0.998014
s 0
usemtl マテリアル
f 3/6/1 2/3/1 1/1/1
f 5/11/2 8/19/2 7/15/2
f 1/2/3 7/16/3 3/5/3
f 6/14/4 4/10/4 8/18/4
f 3/7/5 8/20/5 4/8/5
f 3/6/1 4/9/1 2/3/1
f 5/11/2 6/13/2 8/19/2
f 1/2/3 5/12/3 7/16/3
f 6/14/4 2/4/4 4/10/4
f 3/7/5 7/17/5 8/20/5
