# Blender 3.5.0
# www.blender.org
mtllib colorCorn.mtl
o 立方体
v -0.607418 -0.061946 0.607418
v -0.607418 0.061946 0.607418
v -0.607418 -0.061946 -0.607418
v -0.607418 0.061946 -0.607418
v 0.607418 -0.061946 0.607418
v 0.607418 0.061946 0.607418
v 0.607418 -0.061946 -0.607418
v 0.607418 0.061946 -0.607418
v 0.000000 0.164213 -0.465897
v 0.090892 0.164213 -0.456945
v 0.178291 0.164213 -0.430433
v 0.259700 0.163774 -0.388671
v 0.333594 0.162538 -0.333665
v 0.392994 0.162316 -0.262525
v 0.432868 0.163470 -0.179286
v 0.456989 0.164201 -0.090901
v 0.465897 0.164213 -0.000000
v 0.456945 0.164213 0.090892
v 0.430476 0.164200 0.178309
v 0.388816 0.163724 0.259798
v 0.332269 0.163081 0.332241
v 0.260554 0.163328 0.389978
v 0.178510 0.164050 0.430964
v 0.090892 0.164213 0.456945
v 0.000000 0.164213 0.465897
v -0.090892 0.164213 0.456945
v -0.178291 0.164213 0.430433
v -0.258839 0.164213 0.387379
v -0.329439 0.164213 0.329439
v -0.387379 0.164213 0.258839
v -0.430433 0.164213 0.178291
v -0.456945 0.164213 0.090892
v -0.465897 0.164213 -0.000000
v -0.456945 0.164213 -0.090892
v -0.430433 0.164213 -0.178291
v -0.387379 0.164213 -0.258839
v -0.329439 0.164213 -0.329439
v -0.258839 0.164213 -0.387379
v -0.178291 0.164213 -0.430433
v -0.090892 0.164213 -0.456945
v 0.045446 0.164213 -0.461421
v 0.003584 2.211585 -0.007136
v 0.005919 2.211585 -0.006906
v 0.134592 0.164213 -0.443689
v 0.008165 2.211585 -0.006225
v 0.218638 0.164091 -0.409042
v 0.010235 2.211585 -0.005118
v 0.295172 0.160663 -0.359683
v 0.012054 2.211586 -0.003634
v 0.362880 0.159619 -0.297811
v 0.013613 2.211606 -0.001866
v 0.411439 0.159979 -0.219894
v 0.014892 2.211648 0.000147
v 0.444282 0.163721 -0.134768
v 0.015825 2.211703 0.002387
v 0.461421 0.164213 -0.045446
v 0.016319 2.211761 0.004815
v 0.461421 0.164213 0.045446
v 0.016287 2.211809 0.007333
v 0.443689 0.164213 0.134592
v 0.015733 2.211851 0.009817
v 0.409333 0.163829 0.218791
v 0.014675 2.211891 0.012182
v 0.359439 0.161347 0.294971
v 0.013087 2.211915 0.014287
v 0.296199 0.161623 0.360930
v 0.011000 2.211910 0.015980
v 0.219043 0.162681 0.409824
v 0.008616 2.211884 0.017125
v 0.134593 0.164210 0.443693
v 0.006088 2.211847 0.017710
v 0.045446 0.164213 0.461421
v 0.003544 2.211807 0.017777
v -0.045446 0.164213 0.461421
v 0.001071 2.211767 0.017349
v -0.134592 0.164213 0.443689
v -0.001241 2.211725 0.016454
v -0.218565 0.164213 0.408906
v -0.003311 2.211684 0.015144
v -0.294139 0.164213 0.358409
v -0.005066 2.211644 0.013481
v -0.358409 0.164213 0.294139
v -0.006454 2.211607 0.011541
v -0.408906 0.164213 0.218565
v -0.007492 2.211588 0.009424
v -0.443689 0.164213 0.134592
v -0.008158 2.211585 0.007172
v -0.461421 0.164213 0.045446
v -0.008388 2.211585 0.004836
v -0.461421 0.164213 -0.045446
v -0.008158 2.211585 0.002500
v -0.443689 0.164213 -0.134592
v -0.007477 2.211585 0.000254
v -0.408906 0.164213 -0.218565
v -0.006371 2.211585 -0.001815
v -0.358409 0.164213 -0.294139
v -0.004882 2.211585 -0.003630
v -0.294139 0.164213 -0.358409
v -0.003068 2.211585 -0.005118
v -0.218565 0.164213 -0.408906
v -0.000998 2.211585 -0.006225
v -0.134592 0.164213 -0.443689
v 0.001248 2.211585 -0.006906
v -0.045446 0.164213 -0.461421
v 0.000000 0.077769 -0.526570
v 0.000000 0.174829 -0.526570
v 0.102729 0.077769 -0.516452
v 0.102729 0.174829 -0.516452
v 0.201510 0.077769 -0.486487
v 0.201510 0.174829 -0.486487
v 0.292594 0.077634 -0.437893
v 0.293021 0.175130 -0.438592
v 0.374028 0.076984 -0.373928
v 0.374830 0.178489 -0.375017
v 0.439580 0.075690 -0.293625
v 0.442395 0.176679 -0.295810
v 0.487028 0.077574 -0.201709
v 0.487368 0.176438 -0.201901
v 0.516452 0.077769 -0.102729
v 0.516452 0.174829 -0.102729
v 0.526570 0.077769 0.000000
v 0.526570 0.174829 0.000000
v 0.516452 0.077769 0.102729
v 0.516452 0.174829 0.102729
v 0.486487 0.077769 0.201510
v 0.486487 0.174829 0.201510
v 0.437976 0.077463 0.292653
v 0.438725 0.175182 0.293103
v 0.373052 0.077421 0.373100
v 0.373956 0.177044 0.373850
v 0.292796 0.077294 0.438229
v 0.293816 0.175555 0.439605
v 0.201510 0.077769 0.486487
v 0.201548 0.174986 0.486573
v 0.102729 0.077769 0.516452
v 0.102729 0.174829 0.516452
v 0.000000 0.077769 0.526570
v 0.000000 0.174829 0.526570
v -0.102729 0.077769 0.516452
v -0.102729 0.174829 0.516452
v -0.201510 0.077769 0.486487
v -0.201510 0.174829 0.486487
v -0.292547 0.077769 0.437827
v -0.292547 0.174829 0.437827
v -0.372341 0.077769 0.372341
v -0.372341 0.174829 0.372341
v -0.437827 0.077769 0.292547
v -0.437827 0.174829 0.292547
v -0.486487 0.077769 0.201510
v -0.486487 0.174829 0.201510
v -0.516452 0.077769 0.102729
v -0.516452 0.174829 0.102729
v -0.526570 0.077769 0.000000
v -0.526570 0.174829 0.000000
v -0.516452 0.077769 -0.102729
v -0.516452 0.174829 -0.102729
v -0.486487 0.077769 -0.201510
v -0.486487 0.174829 -0.201510
v -0.437827 0.077769 -0.292547
v -0.437827 0.174829 -0.292547
v -0.372341 0.077769 -0.372341
v -0.372341 0.174829 -0.372341
v -0.292547 0.077769 -0.437827
v -0.292547 0.174829 -0.437827
v -0.201510 0.077769 -0.486487
v -0.201510 0.174829 -0.486487
v -0.102729 0.077769 -0.516452
v -0.102729 0.174829 -0.516452
vn -0.5774 0.5774 0.5774
vn -0.5774 -0.5774 -0.5774
vn -0.5774 -0.5774 0.5774
vn -0.5774 0.5774 -0.5774
vn 0.5774 -0.5774 -0.5774
vn 0.5774 0.5774 -0.5774
vn 0.5774 -0.5774 0.5774
vn 0.5774 0.5774 0.5774
vn -0.0001 -0.6023 -0.7983
vn 0.0001 0.2187 -0.9758
vn 0.0765 -0.6255 -0.7765
vn 0.1556 -0.6024 -0.7829
vn 0.1905 0.2183 -0.9571
vn 0.2263 -0.6256 -0.7466
vn 0.3049 -0.5973 -0.7418
vn 0.3736 0.2179 -0.9016
vn 0.3508 -0.6296 -0.6932
vn 0.4599 -0.4857 -0.7433
vn 0.5412 0.2176 -0.8123
vn 0.4182 -0.6832 -0.5987
vn 0.6024 -0.4418 -0.6647
vn 0.6760 0.2178 -0.7039
vn 0.5798 -0.6529 -0.4875
vn 0.7634 -0.4378 -0.4749
vn 0.7795 0.2172 -0.5875
vn 0.6626 -0.6894 -0.2928
vn 0.8280 -0.4729 -0.3014
vn 0.8647 0.2153 -0.4537
vn 0.7469 -0.6351 -0.1971
vn 0.7988 -0.5824 -0.1505
vn 0.9328 0.2143 -0.2897
vn 0.7753 -0.6270 -0.0753
vn 0.7970 -0.6040 -0.0001
vn 0.9723 0.2139 -0.0948
vn 0.7751 -0.6272 0.0763
vn 0.7816 -0.6042 0.1554
vn 0.9706 0.2135 0.1107
vn 0.7454 -0.6275 0.2251
vn 0.7496 -0.5883 0.3034
vn 0.9281 0.2132 0.3052
vn 0.6908 -0.6336 0.3484
vn 0.7259 -0.5109 0.4605
vn 0.8421 0.2135 0.4953
vn 0.5857 -0.6802 0.4408
vn 0.6291 -0.4876 0.6054
vn 0.7032 0.2143 0.6779
vn 0.4755 -0.6441 0.5991
vn 0.4564 -0.5096 0.7294
vn 0.5217 0.2142 0.8258
vn 0.3302 -0.6524 0.6821
vn 0.3033 -0.5491 0.7788
vn 0.3219 0.2133 0.9224
vn 0.2195 -0.6288 0.7459
vn 0.1553 -0.6042 0.7815
vn 0.1215 0.2130 0.9695
vn 0.0763 -0.6274 0.7749
vn -0.0001 -0.6042 0.7968
vn -0.0730 0.2134 0.9742
vn -0.0764 -0.6273 0.7750
vn -0.1556 -0.6040 0.7816
vn -0.2631 0.2138 0.9408
vn -0.2261 -0.6271 0.7454
vn -0.3051 -0.6038 0.7364
vn -0.4417 0.2143 0.8712
vn -0.3673 -0.6269 0.6871
vn -0.4431 -0.6036 0.6628
vn -0.6017 0.2149 0.7693
vn -0.4944 -0.6266 0.6024
vn -0.5640 -0.6034 0.5638
vn -0.7378 0.2155 0.6397
vn -0.6026 -0.6264 0.4945
vn -0.6633 -0.6031 0.4430
vn -0.8391 0.2161 0.4992
vn -0.6876 -0.6262 0.3675
vn -0.7371 -0.6029 0.3052
vn -0.9097 0.2168 0.3541
vn -0.7463 -0.6259 0.2264
vn -0.7827 -0.6027 0.1556
vn -0.9579 0.2176 0.1871
vn -0.7763 -0.6257 0.0765
vn -0.7981 -0.6025 -0.0001
vn -0.9759 0.2181 0.0001
vn -0.7764 -0.6256 -0.0765
vn -0.7829 -0.6023 -0.1558
vn -0.9571 0.2185 -0.1903
vn -0.7467 -0.6255 -0.2265
vn -0.7375 -0.6022 -0.3056
vn -0.9015 0.2188 -0.3733
vn -0.6882 -0.6253 -0.3679
vn -0.6638 -0.6021 -0.4436
vn -0.8113 0.2190 -0.5420
vn -0.6033 -0.6253 -0.4951
vn -0.5646 -0.6021 -0.5646
vn -0.6899 0.2192 -0.6899
vn -0.4951 -0.6252 -0.6033
vn -0.4436 -0.6021 -0.6639
vn -0.5420 0.2192 -0.8113
vn -0.3679 -0.6252 -0.6883
vn -0.3056 -0.6021 -0.7376
vn -0.3733 0.2191 -0.9014
vn -0.2265 -0.6253 -0.7468
vn -0.1558 -0.6022 -0.7830
vn -0.1903 0.2189 -0.9570
vn -0.0765 -0.6254 -0.7766
vn -0.0000 0.6857 -0.7279
vn 0.1420 -0.6857 -0.7139
vn -0.0000 -0.6857 -0.7279
vn 0.1420 0.6857 -0.7139
vn 0.2782 -0.6858 -0.6726
vn 0.2767 0.6859 -0.6731
vn 0.3924 -0.6913 -0.6067
vn 0.3913 0.6865 -0.6129
vn 0.5064 -0.6791 -0.5313
vn 0.6404 0.6487 -0.4112
vn 0.5769 -0.7275 -0.3714
vn 0.6725 -0.6922 -0.2620
vn 0.7141 0.6862 -0.1382
vn 0.7138 -0.6863 -0.1398
vn 0.7279 -0.6857 -0.0000
vn 0.7279 0.6857 -0.0000
vn 0.7139 -0.6857 0.1420
vn 0.7139 0.6857 0.1420
vn 0.6727 -0.6859 0.2777
vn 0.6731 0.6860 0.2762
vn 0.6035 -0.6925 0.3954
vn 0.6104 0.6858 0.3963
vn 0.5157 -0.6873 0.5115
vn 0.4039 0.6624 0.6309
vn 0.3913 -0.6972 0.6006
vn 0.2724 0.6873 0.6734
vn 0.2763 -0.6864 0.6727
vn 0.1417 0.6857 0.7140
vn 0.1420 -0.6857 0.7139
vn -0.0000 -0.6857 0.7279
vn -0.0000 0.6857 0.7279
vn -0.1420 -0.6857 0.7139
vn -0.1420 0.6857 0.7139
vn -0.2786 -0.6857 0.6725
vn -0.2786 0.6857 0.6725
vn -0.4044 -0.6857 0.6052
vn -0.4044 0.6857 0.6052
vn -0.5147 -0.6857 0.5147
vn -0.5147 0.6857 0.5147
vn -0.6052 -0.6857 0.4044
vn -0.6052 0.6857 0.4044
vn -0.6725 -0.6857 0.2786
vn -0.6725 0.6857 0.2786
vn -0.7139 -0.6857 0.1420
vn -0.7139 0.6857 0.1420
vn -0.7279 -0.6857 -0.0000
vn -0.7279 0.6857 -0.0000
vn -0.7139 -0.6857 -0.1420
vn -0.7139 0.6857 -0.1420
vn -0.6725 -0.6857 -0.2786
vn -0.6725 0.6857 -0.2786
vn -0.6052 -0.6857 -0.4044
vn -0.6052 0.6857 -0.4044
vn -0.5147 -0.6857 -0.5147
vn -0.5147 0.6857 -0.5147
vn -0.4044 -0.6857 -0.6052
vn -0.4044 0.6857 -0.6052
vn -0.2786 -0.6857 -0.6725
vn -0.2786 0.6857 -0.6725
vn -0.1420 -0.6857 -0.7139
vn -0.1420 0.6857 -0.7139
vn 0.4666 0.7250 -0.5067
vn 0.6648 0.7054 -0.2461
vn 0.5031 0.7121 0.4897
vt 0.375000 0.000000
vt 0.375000 1.000000
vt 0.125000 0.750000
vt 0.625000 0.000000
vt 0.625000 1.000000
vt 0.875000 0.750000
vt 0.125000 0.500000
vt 0.375000 0.250000
vt 0.625000 0.250000
vt 0.875000 0.500000
vt 0.375000 0.750000
vt 0.625000 0.750000
vt 0.375000 0.500000
vt 0.625000 0.500000
vt 0.250000 0.490000
vt 0.750000 0.490000
vt 0.296822 0.485388
vt 0.796822 0.485388
vt 0.341844 0.471731
vt 0.841844 0.471731
vt 0.383337 0.449553
vt 0.883337 0.449553
vt 0.419706 0.419706
vt 0.919706 0.419706
vt 0.449553 0.383337
vt 0.949553 0.383337
vt 0.471731 0.341844
vt 0.971731 0.341844
vt 0.485388 0.296822
vt 0.985388 0.296822
vt 0.490000 0.250000
vt 0.990000 0.250000
vt 0.485388 0.203178
vt 0.985388 0.203178
vt 0.471731 0.158156
vt 0.971731 0.158156
vt 0.449553 0.116663
vt 0.949553 0.116663
vt 0.419706 0.080294
vt 0.919706 0.080294
vt 0.383337 0.050447
vt 0.883337 0.050447
vt 0.341844 0.028269
vt 0.841844 0.028269
vt 0.296822 0.014612
vt 0.796822 0.014612
vt 0.250000 0.010000
vt 0.750000 0.010000
vt 0.203178 0.014612
vt 0.703178 0.014612
vt 0.158156 0.028269
vt 0.658156 0.028269
vt 0.116663 0.050447
vt 0.616663 0.050447
vt 0.080294 0.080294
vt 0.580294 0.080294
vt 0.050447 0.116663
vt 0.550447 0.116663
vt 0.028269 0.158156
vt 0.528269 0.158156
vt 0.014612 0.203178
vt 0.514612 0.203178
vt 0.010000 0.250000
vt 0.510000 0.250000
vt 0.014612 0.296822
vt 0.514612 0.296822
vt 0.028269 0.341844
vt 0.528269 0.341844
vt 0.050447 0.383337
vt 0.550447 0.383337
vt 0.080294 0.419706
vt 0.580294 0.419706
vt 0.116663 0.449553
vt 0.616663 0.449553
vt 0.158156 0.471731
vt 0.658156 0.471731
vt 0.203178 0.485388
vt 0.703178 0.485388
vt 0.273411 0.487694
vt 0.773411 0.487694
vt 0.250000 0.370000
vt 0.273411 0.367694
vt 0.319333 0.478560
vt 0.819333 0.478560
vt 0.295922 0.360866
vt 0.362590 0.460642
vt 0.862590 0.460642
vt 0.316668 0.349776
vt 0.401521 0.434629
vt 0.901521 0.434629
vt 0.334853 0.334853
vt 0.434629 0.401521
vt 0.934629 0.401521
vt 0.349776 0.316668
vt 0.460642 0.362590
vt 0.960642 0.362590
vt 0.360866 0.295922
vt 0.478560 0.319333
vt 0.978560 0.319333
vt 0.367694 0.273411
vt 0.487694 0.273411
vt 0.987694 0.273411
vt 0.370000 0.250000
vt 0.487694 0.226589
vt 0.987694 0.226589
vt 0.367694 0.226589
vt 0.478560 0.180667
vt 0.978560 0.180667
vt 0.360866 0.204078
vt 0.460642 0.137410
vt 0.960642 0.137410
vt 0.349776 0.183332
vt 0.434629 0.098479
vt 0.934629 0.098479
vt 0.334853 0.165147
vt 0.401521 0.065371
vt 0.901521 0.065371
vt 0.316668 0.150224
vt 0.362590 0.039358
vt 0.862590 0.039358
vt 0.295922 0.139134
vt 0.319333 0.021440
vt 0.819333 0.021440
vt 0.273411 0.132306
vt 0.273411 0.012306
vt 0.773411 0.012306
vt 0.250000 0.130000
vt 0.226589 0.012306
vt 0.726589 0.012306
vt 0.226589 0.132306
vt 0.180667 0.021440
vt 0.680667 0.021440
vt 0.204078 0.139134
vt 0.137410 0.039358
vt 0.637410 0.039358
vt 0.183332 0.150224
vt 0.098479 0.065371
vt 0.598479 0.065371
vt 0.165147 0.165147
vt 0.065371 0.098479
vt 0.565371 0.098479
vt 0.150224 0.183332
vt 0.039358 0.137410
vt 0.539358 0.137410
vt 0.139134 0.204078
vt 0.021440 0.180667
vt 0.521440 0.180667
vt 0.132306 0.226589
vt 0.012306 0.226589
vt 0.512306 0.226589
vt 0.130000 0.250000
vt 0.012306 0.273411
vt 0.512306 0.273411
vt 0.132306 0.273411
vt 0.021440 0.319333
vt 0.521440 0.319333
vt 0.139134 0.295922
vt 0.039358 0.362590
vt 0.539358 0.362590
vt 0.150224 0.316668
vt 0.065371 0.401521
vt 0.565371 0.401521
vt 0.165147 0.334853
vt 0.098479 0.434629
vt 0.598479 0.434629
vt 0.183332 0.349776
vt 0.137410 0.460642
vt 0.637410 0.460642
vt 0.204078 0.360866
vt 0.180667 0.478560
vt 0.680667 0.478560
vt 0.226589 0.367694
vt 0.226589 0.487694
vt 0.726589 0.487694
vt 1.000000 0.500000
vt 0.000000 0.500000
vt 0.750000 0.490000
vt 1.000000 1.000000
vt 0.250000 0.490000
vt 0.000000 1.000000
vt 0.968750 0.500000
vt 0.796822 0.485388
vt 0.968750 1.000000
vt 0.296822 0.485388
vt 0.937500 0.500000
vt 0.841844 0.471731
vt 0.937500 1.000000
vt 0.341844 0.471731
vt 0.906250 0.500000
vt 0.883337 0.449553
vt 0.906250 1.000000
vt 0.383337 0.449553
vt 0.875000 0.500000
vt 0.919706 0.419706
vt 0.875000 1.000000
vt 0.419706 0.419706
vt 0.843750 0.500000
vt 0.949553 0.383337
vt 0.843750 1.000000
vt 0.449553 0.383337
vt 0.812500 0.500000
vt 0.971731 0.341844
vt 0.812500 1.000000
vt 0.471731 0.341844
vt 0.781250 0.500000
vt 0.985388 0.296822
vt 0.781250 1.000000
vt 0.485388 0.296822
vt 0.750000 0.500000
vt 0.990000 0.250000
vt 0.750000 1.000000
vt 0.490000 0.250000
vt 0.718750 0.500000
vt 0.985388 0.203178
vt 0.718750 1.000000
vt 0.485388 0.203178
vt 0.687500 0.500000
vt 0.971731 0.158156
vt 0.687500 1.000000
vt 0.471731 0.158156
vt 0.656250 0.500000
vt 0.949553 0.116663
vt 0.656250 1.000000
vt 0.449553 0.116663
vt 0.625000 0.500000
vt 0.919706 0.080294
vt 0.625000 1.000000
vt 0.419706 0.080294
vt 0.593750 0.500000
vt 0.883337 0.050447
vt 0.593750 1.000000
vt 0.383337 0.050447
vt 0.562500 0.500000
vt 0.841844 0.028269
vt 0.562500 1.000000
vt 0.341844 0.028269
vt 0.531250 0.500000
vt 0.796822 0.014612
vt 0.531250 1.000000
vt 0.296822 0.014612
vt 0.500000 0.500000
vt 0.750000 0.010000
vt 0.500000 1.000000
vt 0.250000 0.010000
vt 0.468750 0.500000
vt 0.703178 0.014612
vt 0.468750 1.000000
vt 0.203178 0.014612
vt 0.437500 0.500000
vt 0.658156 0.028269
vt 0.437500 1.000000
vt 0.158156 0.028269
vt 0.406250 0.500000
vt 0.616663 0.050447
vt 0.406250 1.000000
vt 0.116663 0.050447
vt 0.375000 0.500000
vt 0.580294 0.080294
vt 0.375000 1.000000
vt 0.080294 0.080294
vt 0.343750 0.500000
vt 0.550447 0.116663
vt 0.343750 1.000000
vt 0.050447 0.116663
vt 0.312500 0.500000
vt 0.528269 0.158156
vt 0.312500 1.000000
vt 0.028269 0.158156
vt 0.281250 0.500000
vt 0.514612 0.203178
vt 0.281250 1.000000
vt 0.014612 0.203178
vt 0.250000 0.500000
vt 0.510000 0.250000
vt 0.250000 1.000000
vt 0.010000 0.250000
vt 0.218750 0.500000
vt 0.514612 0.296822
vt 0.218750 1.000000
vt 0.014612 0.296822
vt 0.187500 0.500000
vt 0.528269 0.341844
vt 0.187500 1.000000
vt 0.028269 0.341844
vt 0.156250 0.500000
vt 0.550447 0.383337
vt 0.156250 1.000000
vt 0.050447 0.383337
vt 0.125000 0.500000
vt 0.580294 0.419706
vt 0.125000 1.000000
vt 0.080294 0.419706
vt 0.093750 0.500000
vt 0.616663 0.449553
vt 0.093750 1.000000
vt 0.116663 0.449553
vt 0.062500 0.500000
vt 0.658156 0.471731
vt 0.158156 0.471731
vt 0.062500 1.000000
vt 0.031250 0.500000
vt 0.703178 0.485388
vt 0.203178 0.485388
vt 0.031250 1.000000
s 1
usemtl マテリアル
f 2/4/1 3/8/2 1/1/3
f 4/9/4 7/13/5 3/8/2
f 8/14/6 5/11/7 7/13/5
f 6/12/8 1/2/3 5/11/7
f 7/13/5 1/3/3 3/7/2
f 4/10/4 6/12/8 8/14/6
f 9/15/9 42/81/10 41/79/11
f 10/17/12 43/82/13 44/83/14
f 11/19/15 45/85/16 46/86/17
f 12/21/18 47/88/19 48/89/20
f 13/23/21 49/91/22 50/92/23
f 14/25/24 51/94/25 52/95/26
f 15/27/27 53/97/28 54/98/29
f 16/29/30 55/100/31 56/101/32
f 17/31/33 57/103/34 58/104/35
f 18/33/36 59/106/37 60/107/38
f 19/35/39 61/109/40 62/110/41
f 20/37/42 63/112/43 64/113/44
f 21/39/45 65/115/46 66/116/47
f 22/41/48 67/118/49 68/119/50
f 23/43/51 69/121/52 70/122/53
f 24/45/54 71/124/55 72/125/56
f 25/47/57 73/127/58 74/128/59
f 26/49/60 75/130/61 76/131/62
f 27/51/63 77/133/64 78/134/65
f 28/53/66 79/136/67 80/137/68
f 29/55/69 81/139/70 82/140/71
f 30/57/72 83/142/73 84/143/74
f 31/59/75 85/145/76 86/146/77
f 32/61/78 87/148/79 88/149/80
f 33/63/81 89/151/82 90/152/83
f 34/65/84 91/154/85 92/155/86
f 35/67/87 93/157/88 94/158/89
f 36/69/90 95/160/91 96/161/92
f 37/71/93 97/163/94 98/164/95
f 38/73/96 99/166/97 100/167/98
f 56/102/32 72/126/56 88/150/80
f 39/75/99 101/169/100 102/170/101
f 40/77/102 103/172/103 104/173/104
f 104/173/104 42/81/10 9/15/9
f 104/173/104 103/172/103 42/81/10
f 102/170/101 103/172/103 40/77/102
f 102/170/101 101/169/100 103/172/103
f 100/167/98 101/169/100 39/75/99
f 100/167/98 99/166/97 101/169/100
f 98/164/95 99/166/97 38/73/96
f 98/164/95 97/163/94 99/166/97
f 96/161/92 97/163/94 37/71/93
f 96/161/92 95/160/91 97/163/94
f 94/158/89 95/160/91 36/69/90
f 94/158/89 93/157/88 95/160/91
f 92/155/86 93/157/88 35/67/87
f 92/155/86 91/154/85 93/157/88
f 90/152/83 91/154/85 34/65/84
f 90/152/83 89/151/82 91/154/85
f 88/149/80 89/151/82 33/63/81
f 88/149/80 87/148/79 89/151/82
f 86/146/77 87/148/79 32/61/78
f 86/146/77 85/145/76 87/148/79
f 84/143/74 85/145/76 31/59/75
f 84/143/74 83/142/73 85/145/76
f 82/140/71 83/142/73 30/57/72
f 82/140/71 81/139/70 83/142/73
f 80/137/68 81/139/70 29/55/69
f 80/137/68 79/136/67 81/139/70
f 78/134/65 79/136/67 28/53/66
f 78/134/65 77/133/64 79/136/67
f 76/131/62 77/133/64 27/51/63
f 76/131/62 75/130/61 77/133/64
f 74/128/59 75/130/61 26/49/60
f 74/128/59 73/127/58 75/130/61
f 72/125/56 73/127/58 25/47/57
f 72/125/56 71/124/55 73/127/58
f 70/122/53 71/124/55 24/45/54
f 70/122/53 69/121/52 71/124/55
f 68/119/50 69/121/52 23/43/51
f 68/119/50 67/118/49 69/121/52
f 66/116/47 67/118/49 22/41/48
f 66/116/47 65/115/46 67/118/49
f 64/113/44 65/115/46 21/39/45
f 64/113/44 63/112/43 65/115/46
f 62/110/41 63/112/43 20/37/42
f 62/110/41 61/109/40 63/112/43
f 60/107/38 61/109/40 19/35/39
f 60/107/38 59/106/37 61/109/40
f 58/104/35 59/106/37 18/33/36
f 58/104/35 57/103/34 59/106/37
f 56/101/32 57/103/34 17/31/33
f 56/101/32 55/100/31 57/103/34
f 54/98/29 55/100/31 16/29/30
f 54/98/29 53/97/28 55/100/31
f 52/95/26 53/97/28 15/27/27
f 52/95/26 51/94/25 53/97/28
f 50/92/23 51/94/25 14/25/24
f 50/92/23 49/91/22 51/94/25
f 48/89/20 49/91/22 13/23/21
f 48/89/20 47/88/19 49/91/22
f 46/86/17 47/88/19 12/21/18
f 46/86/17 45/85/16 47/88/19
f 44/83/14 45/85/16 11/19/15
f 44/83/14 43/82/13 45/85/16
f 41/79/11 43/82/13 10/17/12
f 41/79/11 42/81/10 43/82/13
f 106/178/105 107/181/106 105/175/107
f 108/183/108 109/185/109 107/181/106
f 110/187/110 111/189/111 109/185/109
f 112/191/112 113/193/113 111/189/111
f 113/193/113 116/199/114 115/197/115
f 116/199/114 117/201/116 115/197/115
f 117/201/116 120/207/117 119/205/118
f 120/207/117 121/209/119 119/205/118
f 122/211/120 123/213/121 121/209/119
f 124/215/122 125/217/123 123/213/121
f 126/219/124 127/221/125 125/217/123
f 128/223/126 129/225/127 127/221/125
f 129/225/127 132/231/128 131/229/129
f 131/229/129 134/235/130 133/233/131
f 133/233/131 136/239/132 135/237/133
f 136/239/132 137/241/134 135/237/133
f 138/243/135 139/245/136 137/241/134
f 140/247/137 141/249/138 139/245/136
f 142/251/139 143/253/140 141/249/138
f 144/255/141 145/257/142 143/253/140
f 146/259/143 147/261/144 145/257/142
f 148/263/145 149/265/146 147/261/144
f 150/267/147 151/269/148 149/265/146
f 152/271/149 153/273/150 151/269/148
f 154/275/151 155/277/152 153/273/150
f 156/279/153 157/281/154 155/277/152
f 158/283/155 159/285/156 157/281/154
f 160/287/157 161/289/158 159/285/156
f 162/291/159 163/293/160 161/289/158
f 164/295/161 165/297/162 163/293/160
f 158/284/155 142/252/139 126/220/124
f 166/300/163 167/301/164 165/297/162
f 168/304/165 105/176/107 167/301/164
f 119/206/118 135/238/133 151/270/148
f 2/4/1 4/9/4 3/8/2
f 4/9/4 8/14/6 7/13/5
f 8/14/6 6/12/8 5/11/7
f 6/12/8 2/5/1 1/2/3
f 7/13/5 5/11/7 1/3/3
f 4/10/4 2/6/1 6/12/8
f 104/174/104 9/16/9 41/80/11
f 41/80/11 10/18/12 44/84/14
f 44/84/14 11/20/15 46/87/17
f 46/87/17 12/22/18 48/90/20
f 48/90/20 13/24/21 50/93/23
f 50/93/23 14/26/24 52/96/26
f 52/96/26 15/28/27 54/99/29
f 54/99/29 16/30/30 56/102/32
f 56/102/32 17/32/33 58/105/35
f 58/105/35 18/34/36 60/108/38
f 60/108/38 19/36/39 62/111/41
f 62/111/41 20/38/42 64/114/44
f 64/114/44 21/40/45 66/117/47
f 66/117/47 22/42/48 68/120/50
f 68/120/50 23/44/51 70/123/53
f 70/123/53 24/46/54 72/126/56
f 72/126/56 25/48/57 74/129/59
f 74/129/59 26/50/60 76/132/62
f 76/132/62 27/52/63 78/135/65
f 78/135/65 28/54/66 80/138/68
f 80/138/68 29/56/69 82/141/71
f 82/141/71 30/58/72 84/144/74
f 84/144/74 31/60/75 86/147/77
f 86/147/77 32/62/78 88/150/80
f 88/150/80 33/64/81 90/153/83
f 90/153/83 34/66/84 92/156/86
f 92/156/86 35/68/87 94/159/89
f 94/159/89 36/70/90 96/162/92
f 96/162/92 37/72/93 98/165/95
f 98/165/95 38/74/96 100/168/98
f 100/168/98 39/76/99 102/171/101
f 102/171/101 40/78/102 104/174/104
f 104/174/104 41/80/11 44/84/14
f 44/84/14 46/87/17 56/102/32
f 46/87/17 48/90/20 54/99/29
f 56/102/32 46/87/17 54/99/29
f 48/90/20 50/93/23 52/96/26
f 52/96/26 54/99/29 48/90/20
f 56/102/32 58/105/35 60/108/38
f 60/108/38 62/111/41 70/123/53
f 62/111/41 64/114/44 68/120/50
f 70/123/53 62/111/41 68/120/50
f 64/114/44 66/117/47 68/120/50
f 70/123/53 72/126/56 60/108/38
f 72/126/56 74/129/59 76/132/62
f 76/132/62 78/135/65 72/126/56
f 78/135/65 80/138/68 72/126/56
f 80/138/68 82/141/71 84/144/74
f 84/144/74 86/147/77 88/150/80
f 88/150/80 90/153/83 92/156/86
f 92/156/86 94/159/89 96/162/92
f 96/162/92 98/165/95 100/168/98
f 100/168/98 102/171/101 104/174/104
f 104/174/104 44/84/14 56/102/32
f 56/102/32 60/108/38 72/126/56
f 80/138/68 84/144/74 72/126/56
f 84/144/74 88/150/80 72/126/56
f 88/150/80 92/156/86 104/174/104
f 92/156/86 96/162/92 104/174/104
f 96/162/92 100/168/98 104/174/104
f 104/174/104 56/102/32 88/150/80
f 106/178/105 108/183/108 107/181/106
f 108/183/108 110/187/110 109/185/109
f 110/187/110 112/191/112 111/189/111
f 112/191/112 114/195/166 113/193/113
f 113/193/113 114/195/166 116/199/114
f 116/199/114 118/203/167 117/201/116
f 117/201/116 118/203/167 120/207/117
f 120/207/117 122/211/120 121/209/119
f 122/211/120 124/215/122 123/213/121
f 124/215/122 126/219/124 125/217/123
f 126/219/124 128/223/126 127/221/125
f 128/223/126 130/227/168 129/225/127
f 129/225/127 130/227/168 132/231/128
f 131/229/129 132/231/128 134/235/130
f 133/233/131 134/235/130 136/239/132
f 136/239/132 138/243/135 137/241/134
f 138/243/135 140/247/137 139/245/136
f 140/247/137 142/251/139 141/249/138
f 142/251/139 144/255/141 143/253/140
f 144/255/141 146/259/143 145/257/142
f 146/259/143 148/263/145 147/261/144
f 148/263/145 150/267/147 149/265/146
f 150/267/147 152/271/149 151/269/148
f 152/271/149 154/275/151 153/273/150
f 154/275/151 156/279/153 155/277/152
f 156/279/153 158/283/155 157/281/154
f 158/283/155 160/287/157 159/285/156
f 160/287/157 162/291/159 161/289/158
f 162/291/159 164/295/161 163/293/160
f 164/295/161 166/300/163 165/297/162
f 110/188/110 108/184/108 106/179/105
f 106/179/105 168/303/165 166/299/163
f 166/299/163 164/296/161 162/292/159
f 162/292/159 160/288/157 158/284/155
f 158/284/155 156/280/153 154/276/151
f 154/276/151 152/272/149 158/284/155
f 152/272/149 150/268/147 158/284/155
f 150/268/147 148/264/145 146/260/143
f 146/260/143 144/256/141 142/252/139
f 142/252/139 140/248/137 138/244/135
f 138/244/135 136/240/132 126/220/124
f 136/240/132 134/236/130 126/220/124
f 134/236/130 132/232/128 130/228/168
f 130/228/168 128/224/126 134/236/130
f 128/224/126 126/220/124 134/236/130
f 126/220/124 124/216/122 122/212/120
f 122/212/120 120/208/117 110/188/110
f 120/208/117 118/204/167 112/192/112
f 110/188/110 120/208/117 112/192/112
f 118/204/167 116/200/114 114/196/166
f 114/196/166 112/192/112 118/204/167
f 110/188/110 106/179/105 166/299/163
f 166/299/163 162/292/159 110/188/110
f 162/292/159 158/284/155 110/188/110
f 150/268/147 146/260/143 158/284/155
f 146/260/143 142/252/139 158/284/155
f 142/252/139 138/244/135 126/220/124
f 126/220/124 122/212/120 110/188/110
f 110/188/110 158/284/155 126/220/124
f 166/300/163 168/304/165 167/301/164
f 168/304/165 106/180/105 105/176/107
f 167/302/164 105/177/107 107/182/106
f 107/182/106 109/186/109 119/206/118
f 109/186/109 111/190/111 119/206/118
f 111/190/111 113/194/113 115/198/115
f 115/198/115 117/202/116 111/190/111
f 117/202/116 119/206/118 111/190/111
f 119/206/118 121/210/119 123/214/121
f 123/214/121 125/218/123 135/238/133
f 125/218/123 127/222/125 133/234/131
f 135/238/133 125/218/123 133/234/131
f 127/222/125 129/226/127 131/230/129
f 131/230/129 133/234/131 127/222/125
f 135/238/133 137/242/134 139/246/136
f 139/246/136 141/250/138 135/238/133
f 141/250/138 143/254/140 135/238/133
f 143/254/140 145/258/142 151/270/148
f 145/258/142 147/262/144 151/270/148
f 147/262/144 149/266/146 151/270/148
f 151/270/148 153/274/150 159/286/156
f 153/274/150 155/278/152 159/286/156
f 155/278/152 157/282/154 159/286/156
f 159/286/156 161/290/158 167/302/164
f 161/290/158 163/294/160 167/302/164
f 163/294/160 165/298/162 167/302/164
f 167/302/164 107/182/106 119/206/118
f 119/206/118 123/214/121 135/238/133
f 135/238/133 143/254/140 151/270/148
f 151/270/148 159/286/156 167/302/164
f 167/302/164 119/206/118 151/270/148
