# Blender 3.5.0
# www.blender.org
mtllib player_Body.mtl
o 立方体
v -1.000008 0.368481 2.278108
v -1.000008 1.139136 2.278108
v -1.000008 0.368481 -1.012073
v -1.000008 1.876565 -1.012073
v 0.999992 0.368481 2.278108
v 0.999992 1.139136 2.278108
v 0.999992 0.368481 -1.012073
v 0.999992 1.876565 -1.012073
v -1.000008 0.368481 0.633018
v -1.000008 1.823738 0.633018
v 0.999992 0.368481 0.633018
v 0.999992 1.823738 0.633018
v -1.000008 0.368481 1.455563
v 0.999992 1.383408 1.455563
v -1.000008 1.383408 1.455563
v 0.999992 0.368481 1.455563
v -1.000008 1.909732 -0.189528
v 0.999992 0.368481 -0.189528
v -1.000008 0.368481 -0.189528
v 0.999992 1.909732 -0.189528
v -1.000008 1.623176 -1.566821
v -1.000008 0.368481 -1.566821
v 0.999992 0.368481 -1.566821
v 0.999992 1.623176 -1.566821
v -1.000008 1.353735 -2.214305
v -1.000008 0.368481 -2.214305
v 0.999992 0.368481 -2.214305
v 0.999992 1.353735 -2.214305
v -0.000008 0.368481 -1.012073
v -0.000008 1.876565 -1.012073
v -0.000008 0.368481 2.473111
v -0.000008 1.139136 2.473111
v -0.000008 1.823738 0.633018
v -0.000008 0.368481 0.633018
v -0.000008 1.383408 1.455563
v -0.000008 0.368481 1.455563
v -0.000008 0.368481 -0.189528
v -0.000008 1.909732 -0.189528
v -0.000008 0.368481 -1.566821
v -0.000008 1.623176 -1.566821
v -0.000008 0.368481 -2.214305
v -0.000008 1.353735 -2.214305
v -1.000008 0.753809 2.278108
v -1.000008 1.122523 -1.012073
v 0.999992 1.122523 -1.012073
v 0.999992 0.753809 2.278108
v 0.999992 1.096110 0.633018
v -1.000008 1.096110 0.633018
v -1.000008 0.875944 1.455563
v 0.999992 0.875944 1.455563
v 0.999992 1.139107 -0.189528
v -1.000008 1.139107 -0.189528
v -1.000008 0.995829 -1.566821
v 0.999992 0.995829 -1.566821
v -1.000008 0.861108 -2.214305
v 0.999992 0.861108 -2.214305
v -0.000008 0.861108 -2.214305
v -0.000008 0.753809 2.473111
vn -1.0000 -0.0000 -0.0000
vn -0.0000 -1.0000 -0.0000
vn 1.0000 -0.0000 -0.0000
vn -0.1914 -0.0000 0.9815
vn -0.0455 0.9714 0.2332
vn -0.0000 0.9946 0.1040
vn -0.0000 0.8816 0.4720
vn -0.0000 0.9992 -0.0403
vn -0.0000 0.9096 -0.4155
vn -0.0000 -0.0000 -1.0000
vn -0.0000 0.9233 -0.3842
vn -0.0000 0.9586 0.2847
vn 0.1914 -0.0000 0.9815
vn 0.0455 0.9714 0.2332
vt 0.331556 0.000000
vt 0.165778 0.016164
vt 0.958710 0.538149
vt 0.894832 0.538149
vt 0.165778 0.015830
vt 0.395435 0.000000
vt 0.165778 0.288883
vt 0.331556 0.272720
vt 0.165778 0.295275
vt 0.456559 0.272720
vt 0.958710 0.703927
vt 0.587061 0.000000
vt 0.000000 0.016164
vt 0.523182 0.000000
vt 0.331556 0.015831
vt 0.894832 0.703927
vt 0.000000 0.288883
vt 0.587061 0.272720
vt 0.462058 0.272720
vt 0.331556 0.295275
vt 0.165778 0.152523
vt 0.331556 0.136360
vt 0.165778 0.160841
vt 0.452180 0.136360
vt 0.000000 0.152523
vt 0.587061 0.136360
vt 0.466436 0.136360
vt 0.331556 0.160841
vt 0.165778 0.084343
vt 0.331556 0.068180
vt 0.502935 0.068180
vt 0.331556 0.086695
vt 0.415682 0.068180
vt 0.165778 0.086695
vt 0.000000 0.084343
vt 0.587061 0.068180
vt 0.165778 0.229055
vt 0.459308 0.204540
vt 0.000000 0.220703
vt 0.587061 0.204540
vt 0.165778 0.220703
vt 0.331556 0.204540
vt 0.459308 0.204540
vt 0.331556 0.229055
vt 0.435556 0.318702
vt 0.165778 0.336068
vt 0.165778 0.334866
vt 0.331556 0.318702
vt 0.587061 0.318702
vt 0.000000 0.334866
vt 0.331556 0.336068
vt 0.483061 0.318702
vt 0.413222 0.372371
vt 0.165778 0.384121
vt 0.564872 0.868109
vt 0.646539 0.868109
vt 0.331556 0.372371
vt 0.165778 0.388535
vt 0.587061 0.372371
vt 0.000000 0.388535
vt 0.646539 0.702331
vt 0.564872 0.702331
vt 0.331556 0.384121
vt 0.505394 0.372371
vt 0.082889 0.288883
vt 0.248667 0.295275
vt 0.082889 0.000000
vt 0.958710 0.621038
vt 0.248667 0.000000
vt 0.894832 0.621038
vt 0.248667 0.160841
vt 0.082889 0.152523
vt 0.248667 0.086695
vt 0.082889 0.084343
vt 0.082889 0.220703
vt 0.248667 0.229055
vt 0.082889 0.334866
vt 0.248667 0.336068
vt 0.082889 0.388535
vt 0.646539 0.785220
vt 0.248667 0.384121
vt 0.564872 0.785220
vt 0.363495 0.000000
vt 0.926771 0.538149
vt 0.394058 0.272720
vt 0.524559 0.272720
vt 0.926771 0.703927
vt 0.555122 0.000000
vt 0.526749 0.136360
vt 0.391868 0.136360
vt 0.373619 0.068180
vt 0.544998 0.068180
vt 0.523185 0.204540
vt 0.395432 0.204540
vt 0.383556 0.318702
vt 0.535061 0.318702
vt 0.605706 0.868109
vt 0.372389 0.372371
vt 0.546228 0.372371
vt 0.605706 0.702331
vt 0.605706 0.785220
vt 0.926771 0.621038
s 0
usemtl car
f 52/94/1 4/10/1 44/85/1
f 3/7/2 39/77/2 29/65/2
f 50/92/3 6/14/3 46/88/3
f 32/70/4 43/84/4 58/102/4
f 36/74/2 5/13/2 31/67/2
f 35/73/5 2/5/5 32/69/5
f 17/37/6 33/71/6 38/76/6
f 18/39/2 34/72/2 37/75/2
f 51/93/3 12/27/3 47/89/3
f 15/33/1 48/90/1 49/91/1
f 2/6/1 49/91/1 43/83/1
f 10/23/7 35/73/7 33/71/7
f 11/25/2 36/74/2 34/72/2
f 47/89/3 14/31/3 50/92/3
f 8/19/3 51/93/3 45/86/3
f 7/17/2 37/75/2 29/65/2
f 4/9/8 38/76/8 30/66/8
f 10/24/1 52/94/1 48/90/1
f 22/47/2 41/79/2 39/77/2
f 8/20/9 40/78/9 30/66/9
f 44/85/1 21/45/1 53/95/1
f 7/18/3 54/96/3 45/86/3
f 42/82/10 56/100/10 57/101/10
f 24/51/11 42/81/11 40/78/11
f 53/95/1 25/53/1 55/98/1
f 23/49/3 56/99/3 54/96/3
f 40/78/11 25/54/11 21/46/11
f 25/55/10 57/101/10 55/97/10
f 30/66/9 21/46/9 4/9/9
f 39/77/2 27/60/2 23/50/2
f 30/66/8 20/44/8 8/20/8
f 29/65/2 19/41/2 3/7/2
f 34/72/2 13/29/2 9/21/2
f 33/71/7 14/32/7 12/28/7
f 37/75/2 9/21/2 19/41/2
f 38/76/6 12/28/6 20/44/6
f 35/73/12 6/15/12 14/32/12
f 36/74/2 1/2/2 13/29/2
f 6/16/13 58/102/13 46/87/13
f 29/65/2 23/50/2 7/17/2
f 46/87/13 31/68/13 5/11/13
f 55/97/10 41/80/10 26/56/10
f 54/96/3 28/64/3 24/52/3
f 22/48/1 55/98/1 26/57/1
f 57/101/10 27/61/10 41/80/10
f 45/86/3 24/52/3 8/19/3
f 3/8/1 53/95/1 22/48/1
f 48/90/1 19/42/1 9/22/1
f 45/86/3 18/40/3 7/18/3
f 11/26/3 50/92/3 16/36/3
f 43/83/1 13/30/1 1/1/1
f 49/91/1 9/22/1 13/30/1
f 18/40/3 47/89/3 11/26/3
f 58/102/4 1/3/4 31/68/4
f 16/36/3 46/88/3 5/12/3
f 19/42/1 44/85/1 3/8/1
f 52/94/1 17/38/1 4/10/1
f 3/7/2 22/47/2 39/77/2
f 50/92/3 14/31/3 6/14/3
f 32/70/4 2/4/4 43/84/4
f 36/74/2 16/35/2 5/13/2
f 35/73/12 15/34/12 2/5/12
f 17/37/6 10/23/6 33/71/6
f 18/39/2 11/25/2 34/72/2
f 51/93/3 20/43/3 12/27/3
f 15/33/1 10/24/1 48/90/1
f 2/6/1 15/33/1 49/91/1
f 10/23/7 15/34/7 35/73/7
f 11/25/2 16/35/2 36/74/2
f 47/89/3 12/27/3 14/31/3
f 8/19/3 20/43/3 51/93/3
f 7/17/2 18/39/2 37/75/2
f 4/9/8 17/37/8 38/76/8
f 10/24/1 17/38/1 52/94/1
f 22/47/2 26/58/2 41/79/2
f 8/20/9 24/51/9 40/78/9
f 44/85/1 4/10/1 21/45/1
f 7/18/3 23/49/3 54/96/3
f 42/82/10 28/62/10 56/100/10
f 24/51/11 28/63/11 42/81/11
f 53/95/1 21/45/1 25/53/1
f 23/49/3 27/59/3 56/99/3
f 40/78/11 42/81/11 25/54/11
f 25/55/10 42/82/10 57/101/10
f 30/66/9 40/78/9 21/46/9
f 39/77/2 41/79/2 27/60/2
f 30/66/8 38/76/8 20/44/8
f 29/65/2 37/75/2 19/41/2
f 34/72/2 36/74/2 13/29/2
f 33/71/7 35/73/7 14/32/7
f 37/75/2 34/72/2 9/21/2
f 38/76/6 33/71/6 12/28/6
f 35/73/14 32/69/14 6/15/14
f 36/74/2 31/67/2 1/2/2
f 6/16/13 32/70/13 58/102/13
f 29/65/2 39/77/2 23/50/2
f 46/87/13 58/102/13 31/68/13
f 55/97/10 57/101/10 41/80/10
f 54/96/3 56/99/3 28/64/3
f 22/48/1 53/95/1 55/98/1
f 57/101/10 56/100/10 27/61/10
f 45/86/3 54/96/3 24/52/3
f 3/8/1 44/85/1 53/95/1
f 48/90/1 52/94/1 19/42/1
f 45/86/3 51/93/3 18/40/3
f 11/26/3 47/89/3 50/92/3
f 43/83/1 49/91/1 13/30/1
f 49/91/1 48/90/1 9/22/1
f 18/40/3 51/93/3 47/89/3
f 58/102/4 43/84/4 1/3/4
f 16/36/3 50/92/3 46/88/3
f 19/42/1 52/94/1 44/85/1
