# Blender 3.5.0
# www.blender.org
mtllib snowGoalSkydome.mtl
o 立方体
v -25.000000 0.000015 200.000000
v -25.000000 60.000015 200.000000
v -25.000000 0.000000 0.000000
v -25.000000 60.000000 -0.000005
v 25.000000 0.000015 200.000000
v 25.000000 60.000015 200.000000
v 25.000000 0.000000 0.000000
v 25.000000 60.000000 -0.000005
vn 1.0000 -0.0000 -0.0000
vn -1.0000 -0.0000 -0.0000
vn -0.0000 -0.0000 -1.0000
vn -0.0000 1.0000 -0.0000
vn -0.0000 -1.0000 -0.0000
vt 0.004004 -0.003527
vt 0.306672 0.000130
vt 0.297465 0.990949
vt 0.004004 0.982677
vt 0.306672 0.994411
vt 0.653655 0.977424
vt 0.297465 0.801670
vt 0.994431 -0.003527
vt 0.994431 0.982677
vt 0.653655 0.859326
vt 0.085278 0.000129
vt 0.994431 -0.003048
vt 0.178157 0.990949
vt 0.994431 0.988613
vt 0.085278 0.994411
vt 0.772963 0.977424
vt 0.004004 -0.003048
vt 0.178157 0.801670
vt 0.772963 0.859326
vt 0.004004 0.988613
s 0
usemtl マテリアル
f 3/8/1 2/4/1 1/1/1
f 5/12/2 8/20/2 7/17/2
f 1/2/3 6/15/3 5/11/3
f 1/3/4 7/18/4 3/7/4
f 6/16/5 4/10/5 8/19/5
f 3/8/1 4/9/1 2/4/1
f 5/12/2 6/14/2 8/20/2
f 1/2/3 2/5/3 6/15/3
f 1/3/4 5/13/4 7/18/4
f 6/16/5 2/6/5 4/10/5
