# Blender 3.5.0
# www.blender.org
mtllib mirror.mtl
o 球
v 0.000000 0.831470 -0.068586
v 0.000000 0.555570 -0.102646
v 0.000000 0.195090 -0.121080
v 0.000000 0.000000 -0.123452
v 0.000000 -0.195090 -0.121080
v 0.000000 -0.555570 -0.102646
v 0.025042 0.980785 -0.023621
v 0.049122 0.923880 -0.046335
v 0.071314 0.831470 -0.067268
v 0.090766 0.707107 -0.085616
v 0.106729 0.555570 -0.100674
v 0.118591 0.382683 -0.111863
v 0.125896 0.195090 -0.118753
v 0.128362 0.000000 -0.121080
v 0.125896 -0.195090 -0.118753
v 0.118591 -0.382683 -0.111863
v 0.106729 -0.555570 -0.100674
v 0.090766 -0.707107 -0.085616
v 0.071314 -0.831470 -0.067268
v 0.049122 -0.923880 -0.046335
v 0.025042 -0.980785 -0.023621
v 0.049122 0.980785 -0.022251
v 0.096356 0.923880 -0.043647
v 0.139888 0.831470 -0.063365
v 0.178043 0.707107 -0.080649
v 0.209357 0.555570 -0.094833
v 0.232625 0.382683 -0.105373
v 0.246953 0.195090 -0.111863
v 0.251791 0.000000 -0.114054
v 0.246953 -0.195090 -0.111863
v 0.232625 -0.382683 -0.105373
v 0.209357 -0.555570 -0.094833
v 0.178043 -0.707107 -0.080649
v 0.139888 -0.831470 -0.063365
v 0.096356 -0.923880 -0.043647
v 0.049122 -0.980785 -0.022251
v 0.071314 0.980785 -0.020025
v 0.139888 0.923880 -0.039281
v 0.203085 0.831470 -0.057027
v 0.258479 0.707107 -0.072582
v 0.303939 0.555570 -0.085347
v 0.337718 0.382683 -0.094833
v 0.358520 0.195090 -0.100674
v 0.365544 0.000000 -0.102646
v 0.358520 -0.195090 -0.100674
v 0.337718 -0.382683 -0.094833
v 0.303939 -0.555570 -0.085347
v 0.258479 -0.707107 -0.072582
v 0.203085 -0.831470 -0.057027
v 0.139888 -0.923880 -0.039281
v 0.071314 -0.980785 -0.020025
v 0.090766 0.980785 -0.017030
v 0.178043 0.923880 -0.033406
v 0.258479 0.831470 -0.048498
v 0.328981 0.707107 -0.061726
v 0.386840 0.555570 -0.072582
v 0.429834 0.382683 -0.080649
v 0.456309 0.195090 -0.085616
v 0.465249 0.000000 -0.087294
v 0.456309 -0.195090 -0.085616
v 0.429834 -0.382683 -0.080649
v 0.386840 -0.555570 -0.072582
v 0.328981 -0.707107 -0.061726
v 0.258479 -0.831470 -0.048498
v 0.178043 -0.923880 -0.033406
v 0.090766 -0.980785 -0.017030
v 0.106729 0.980785 -0.013380
v 0.209357 0.923880 -0.026247
v 0.303939 0.831470 -0.038104
v 0.386840 0.707107 -0.048498
v 0.454876 0.555570 -0.057027
v 0.505431 0.382683 -0.063365
v 0.536563 0.195090 -0.067268
v 0.547075 0.000000 -0.068586
v 0.536563 -0.195090 -0.067268
v 0.505431 -0.382683 -0.063365
v 0.454876 -0.555570 -0.057027
v 0.386840 -0.707107 -0.048498
v 0.303939 -0.831470 -0.038104
v 0.209357 -0.923880 -0.026247
v 0.106729 -0.980785 -0.013380
v 0.000000 1.000000 0.000000
v 0.118591 0.980785 -0.009217
v 0.232625 0.923880 -0.018079
v 0.337718 0.831470 -0.026247
v 0.429834 0.707107 -0.033406
v 0.505431 0.555570 -0.039281
v 0.561605 0.382683 -0.043647
v 0.596197 0.195090 -0.046335
v 0.607877 0.000000 -0.047243
v 0.596197 -0.195090 -0.046335
v 0.561605 -0.382683 -0.043647
v 0.505431 -0.555570 -0.039281
v 0.429834 -0.707107 -0.033406
v 0.337718 -0.831470 -0.026247
v 0.232625 -0.923880 -0.018079
v 0.118591 -0.980785 -0.009217
v 0.125895 0.980785 -0.004699
v 0.246953 0.923880 -0.009217
v 0.358520 0.831470 -0.013380
v 0.456309 0.707107 -0.017030
v 0.536563 0.555570 -0.020025
v 0.596197 0.382683 -0.022251
v 0.632919 0.195090 -0.023621
v 0.645319 0.000000 -0.024084
v 0.632919 -0.195090 -0.023621
v 0.596197 -0.382683 -0.022251
v 0.536563 -0.555570 -0.020025
v 0.456309 -0.707107 -0.017030
v 0.358520 -0.831470 -0.013380
v 0.246953 -0.923880 -0.009217
v 0.125895 -0.980785 -0.004699
v 0.128362 0.980785 0.000000
v 0.251791 0.923880 0.000000
v 0.365544 0.831470 0.000000
v 0.465249 0.707107 -0.000000
v 0.547075 0.555570 0.000000
v 0.607877 0.382683 -0.000000
v 0.645319 0.195090 0.000000
v 0.657961 0.000000 0.000000
v 0.645319 -0.195090 0.000000
v 0.607877 -0.382683 -0.000000
v 0.547075 -0.555570 0.000000
v 0.465249 -0.707107 -0.000000
v 0.365544 -0.831470 0.000000
v 0.251791 -0.923880 0.000000
v 0.128362 -0.980785 0.000000
v 0.125895 0.980785 0.004699
v 0.246953 0.923880 0.009217
v 0.358520 0.831470 0.013380
v 0.456309 0.707107 0.017030
v 0.536563 0.555570 0.020025
v 0.596197 0.382683 0.022251
v 0.632919 0.195090 0.023621
v 0.645319 0.000000 0.024084
v 0.632919 -0.195090 0.023621
v 0.596197 -0.382683 0.022251
v 0.536563 -0.555570 0.020025
v 0.456309 -0.707107 0.017030
v 0.358520 -0.831470 0.013380
v 0.246953 -0.923880 0.009217
v 0.125895 -0.980785 0.004699
v 0.118591 0.980785 0.009217
v 0.232625 0.923880 0.018079
v 0.337718 0.831470 0.026247
v 0.429834 0.707107 0.033406
v 0.505431 0.555570 0.039281
v 0.561605 0.382683 0.043647
v 0.596197 0.195090 0.046335
v 0.607877 0.000000 0.047243
v 0.596197 -0.195090 0.046335
v 0.561605 -0.382683 0.043647
v 0.505431 -0.555570 0.039281
v 0.429834 -0.707107 0.033406
v 0.337718 -0.831470 0.026247
v 0.232625 -0.923880 0.018079
v 0.118591 -0.980785 0.009217
v 0.106729 0.980785 0.013380
v 0.209357 0.923880 0.026247
v 0.303939 0.831470 0.038104
v 0.386840 0.707107 0.048498
v 0.454876 0.555570 0.057027
v 0.505431 0.382683 0.063365
v 0.536563 0.195090 0.067268
v 0.547075 0.000000 0.068586
v 0.536563 -0.195090 0.067268
v 0.505431 -0.382683 0.063365
v 0.454876 -0.555570 0.057027
v 0.386840 -0.707107 0.048498
v 0.303939 -0.831470 0.038104
v 0.209357 -0.923880 0.026247
v 0.106729 -0.980785 0.013380
v 0.090766 0.980785 0.017030
v 0.178043 0.923880 0.033406
v 0.258478 0.831470 0.048498
v 0.328981 0.707107 0.061726
v 0.386840 0.555570 0.072582
v 0.429834 0.382683 0.080649
v 0.456309 0.195090 0.085616
v 0.465249 0.000000 0.087294
v 0.456309 -0.195090 0.085616
v 0.429834 -0.382683 0.080649
v 0.386840 -0.555570 0.072582
v 0.328981 -0.707107 0.061726
v 0.258478 -0.831470 0.048498
v 0.178043 -0.923880 0.033406
v 0.090766 -0.980785 0.017030
v 0.071314 0.980785 0.020025
v 0.139888 0.923880 0.039281
v 0.203085 0.831470 0.057027
v 0.258479 0.707107 0.072582
v 0.303938 0.555570 0.085347
v 0.337718 0.382683 0.094833
v 0.358520 0.195090 0.100674
v 0.365544 0.000000 0.102646
v 0.358520 -0.195090 0.100674
v 0.337718 -0.382683 0.094833
v 0.303938 -0.555570 0.085347
v 0.258479 -0.707107 0.072582
v 0.203085 -0.831470 0.057027
v 0.139888 -0.923880 0.039281
v 0.071314 -0.980785 0.020025
v 0.049122 0.980785 0.022251
v 0.096356 0.923880 0.043647
v 0.139887 0.831470 0.063365
v 0.178043 0.707107 0.080649
v 0.209356 0.555570 0.094833
v 0.232625 0.382683 0.105373
v 0.246953 0.195090 0.111863
v 0.251791 0.000000 0.114054
v 0.246953 -0.195090 0.111863
v 0.232625 -0.382683 0.105373
v 0.209356 -0.555570 0.094833
v 0.178043 -0.707107 0.080649
v 0.139887 -0.831470 0.063365
v 0.096356 -0.923880 0.043647
v 0.049122 -0.980785 0.022251
v 0.025042 0.980785 0.023621
v 0.049122 0.923880 0.046335
v 0.071314 0.831470 0.067268
v 0.090766 0.707107 0.085616
v 0.106729 0.555570 0.100674
v 0.118591 0.382683 0.111863
v 0.125895 0.195090 0.118753
v 0.128362 0.000000 0.121080
v 0.125895 -0.195090 0.118753
v 0.118591 -0.382683 0.111863
v 0.106729 -0.555570 0.100674
v 0.090766 -0.707107 0.085616
v 0.071314 -0.831470 0.067268
v 0.049122 -0.923880 0.046335
v 0.025042 -0.980785 0.023621
v -0.000000 0.980785 0.024084
v -0.000000 0.923880 0.047243
v -0.000000 0.831470 0.068586
v -0.000000 0.707107 0.087294
v -0.000000 0.555570 0.102646
v 0.000000 0.382683 0.114054
v -0.000000 0.195090 0.121080
v -0.000000 0.000000 0.123452
v -0.000000 -0.195090 0.121080
v 0.000000 -0.382683 0.114054
v -0.000000 -0.555570 0.102646
v -0.000000 -0.707107 0.087294
v -0.000000 -0.831470 0.068586
v -0.000000 -0.923880 0.047243
v -0.000000 -0.980785 0.024084
v -0.025042 0.980785 0.023621
v -0.049122 0.923880 0.046335
v -0.071314 0.831470 0.067268
v -0.090766 0.707107 0.085616
v -0.106729 0.555570 0.100674
v -0.118591 0.382683 0.111863
v -0.125896 0.195090 0.118753
v -0.128362 0.000000 0.121080
v -0.125896 -0.195090 0.118753
v -0.118591 -0.382683 0.111863
v -0.106729 -0.555570 0.100674
v -0.090766 -0.707107 0.085616
v -0.071314 -0.831470 0.067268
v -0.049122 -0.923880 0.046335
v -0.025042 -0.980785 0.023621
v -0.049122 0.980785 0.022251
v -0.096356 0.923880 0.043647
v -0.139888 0.831470 0.063365
v -0.178043 0.707107 0.080649
v -0.209357 0.555570 0.094833
v -0.232624 0.382683 0.105373
v -0.246953 0.195090 0.111863
v -0.251791 0.000000 0.114054
v -0.246953 -0.195090 0.111863
v -0.232624 -0.382683 0.105373
v -0.209357 -0.555570 0.094833
v -0.178043 -0.707107 0.080649
v -0.139888 -0.831470 0.063365
v -0.096356 -0.923880 0.043647
v -0.049122 -0.980785 0.022251
v -0.071314 0.980785 0.020025
v -0.139888 0.923880 0.039281
v -0.203085 0.831470 0.057027
v -0.258479 0.707107 0.072582
v -0.303939 0.555570 0.085347
v -0.337718 0.382683 0.094833
v -0.358520 0.195090 0.100674
v -0.365544 0.000000 0.102646
v -0.358520 -0.195090 0.100674
v -0.337718 -0.382683 0.094833
v -0.303939 -0.555570 0.085347
v -0.258479 -0.707107 0.072582
v -0.203085 -0.831470 0.057027
v -0.139888 -0.923880 0.039281
v -0.071314 -0.980785 0.020025
v -0.090766 0.980785 0.017030
v -0.178043 0.923880 0.033406
v -0.258478 0.831470 0.048498
v -0.328981 0.707107 0.061726
v -0.386840 0.555570 0.072582
v -0.429834 0.382683 0.080649
v -0.456309 0.195090 0.085616
v -0.465249 0.000000 0.087293
v -0.456309 -0.195090 0.085616
v -0.429834 -0.382683 0.080649
v -0.386840 -0.555570 0.072582
v -0.328981 -0.707107 0.061726
v -0.258478 -0.831470 0.048498
v -0.178043 -0.923880 0.033406
v -0.090766 -0.980785 0.017030
v 0.000000 -1.000000 0.000000
v -0.106729 0.980785 0.013380
v -0.209357 0.923880 0.026247
v -0.303938 0.831470 0.038104
v -0.386840 0.707107 0.048498
v -0.454876 0.555570 0.057027
v -0.505431 0.382683 0.063365
v -0.536563 0.195090 0.067268
v -0.547075 0.000000 0.068586
v -0.536563 -0.195090 0.067268
v -0.505431 -0.382683 0.063365
v -0.454876 -0.555570 0.057027
v -0.386840 -0.707107 0.048498
v -0.303938 -0.831470 0.038104
v -0.209357 -0.923880 0.026247
v -0.106729 -0.980785 0.013380
v -0.118591 0.980785 0.009217
v -0.232624 0.923880 0.018079
v -0.337718 0.831470 0.026247
v -0.429834 0.707107 0.033406
v -0.505431 0.555570 0.039281
v -0.561605 0.382683 0.043647
v -0.596197 0.195090 0.046335
v -0.607877 0.000000 0.047243
v -0.596197 -0.195090 0.046335
v -0.561605 -0.382683 0.043647
v -0.505431 -0.555570 0.039281
v -0.429834 -0.707107 0.033406
v -0.337718 -0.831470 0.026247
v -0.232624 -0.923880 0.018079
v -0.118591 -0.980785 0.009217
v -0.125895 0.980785 0.004699
v -0.246953 0.923880 0.009217
v -0.358520 0.831470 0.013380
v -0.456309 0.707107 0.017030
v -0.536563 0.555570 0.020025
v -0.596197 0.382683 0.022251
v -0.632919 0.195090 0.023621
v -0.645319 0.000000 0.024084
v -0.632919 -0.195090 0.023621
v -0.596197 -0.382683 0.022251
v -0.536563 -0.555570 0.020025
v -0.456309 -0.707107 0.017030
v -0.358520 -0.831470 0.013380
v -0.246953 -0.923880 0.009217
v -0.125895 -0.980785 0.004699
v -0.128362 0.980785 -0.000000
v -0.251791 0.923880 -0.000000
v -0.365544 0.831470 -0.000000
v -0.465249 0.707107 -0.000000
v -0.547075 0.555570 -0.000000
v -0.607877 0.382683 -0.000000
v -0.645319 0.195090 -0.000000
v -0.657961 0.000000 -0.000000
v -0.645319 -0.195090 -0.000000
v -0.607877 -0.382683 -0.000000
v -0.547075 -0.555570 -0.000000
v -0.465249 -0.707107 -0.000000
v -0.365544 -0.831470 -0.000000
v -0.251791 -0.923880 -0.000000
v -0.128362 -0.980785 -0.000000
v -0.125895 0.980785 -0.004699
v -0.246953 0.923880 -0.009217
v -0.358520 0.831470 -0.013380
v -0.456309 0.707107 -0.017030
v -0.536563 0.555570 -0.020025
v -0.596197 0.382683 -0.022251
v -0.632919 0.195090 -0.023621
v -0.645318 0.000000 -0.024084
v -0.632919 -0.195090 -0.023621
v -0.596197 -0.382683 -0.022251
v -0.536563 -0.555570 -0.020025
v -0.456309 -0.707107 -0.017030
v -0.358520 -0.831470 -0.013380
v -0.246953 -0.923880 -0.009217
v -0.125895 -0.980785 -0.004699
v -0.118591 0.980785 -0.009217
v -0.232624 0.923880 -0.018079
v -0.337718 0.831470 -0.026247
v -0.429834 0.707107 -0.033406
v -0.505431 0.555570 -0.039281
v -0.561605 0.382683 -0.043647
v -0.596197 0.195090 -0.046335
v -0.607877 0.000000 -0.047243
v -0.596197 -0.195090 -0.046335
v -0.561605 -0.382683 -0.043647
v -0.505431 -0.555570 -0.039281
v -0.429834 -0.707107 -0.033406
v -0.337718 -0.831470 -0.026247
v -0.232624 -0.923880 -0.018079
v -0.118591 -0.980785 -0.009217
v -0.106729 0.980785 -0.013380
v -0.209356 0.923880 -0.026247
v -0.303938 0.831470 -0.038104
v -0.386840 0.707107 -0.048498
v -0.454876 0.555570 -0.057027
v -0.505431 0.382683 -0.063365
v -0.536563 0.195090 -0.067268
v -0.547074 0.000000 -0.068586
v -0.536563 -0.195090 -0.067268
v -0.505431 -0.382683 -0.063365
v -0.454876 -0.555570 -0.057027
v -0.386840 -0.707107 -0.048498
v -0.303938 -0.831470 -0.038104
v -0.209356 -0.923880 -0.026247
v -0.106729 -0.980785 -0.013380
v -0.090765 0.980785 -0.017030
v -0.178043 0.923880 -0.033406
v -0.258478 0.831470 -0.048498
v -0.328981 0.707107 -0.061726
v -0.386840 0.555570 -0.072582
v -0.429834 0.382683 -0.080649
v -0.456309 0.195090 -0.085616
v -0.465248 0.000000 -0.087293
v -0.456309 -0.195090 -0.085616
v -0.429834 -0.382683 -0.080649
v -0.386840 -0.555570 -0.072582
v -0.328981 -0.707107 -0.061726
v -0.258478 -0.831470 -0.048498
v -0.178043 -0.923880 -0.033406
v -0.090765 -0.980785 -0.017030
v -0.071314 0.980785 -0.020025
v -0.139887 0.923880 -0.039281
v -0.203085 0.831470 -0.057027
v -0.258478 0.707107 -0.072582
v -0.303938 0.555570 -0.085347
v -0.337718 0.382683 -0.094833
v -0.358520 0.195090 -0.100674
v -0.365543 0.000000 -0.102646
v -0.358520 -0.195090 -0.100674
v -0.337718 -0.382683 -0.094833
v -0.303938 -0.555570 -0.085347
v -0.258478 -0.707107 -0.072582
v -0.203085 -0.831470 -0.057027
v -0.139887 -0.923880 -0.039281
v -0.071314 -0.980785 -0.020025
v -0.049122 0.980785 -0.022251
v -0.096356 0.923880 -0.043647
v -0.139887 0.831470 -0.063365
v -0.178043 0.707107 -0.080649
v -0.209356 0.555570 -0.094833
v -0.232624 0.382683 -0.105373
v -0.246953 0.195090 -0.111863
v -0.251790 0.000000 -0.114054
v -0.246953 -0.195090 -0.111863
v -0.232624 -0.382683 -0.105373
v -0.209356 -0.555570 -0.094833
v -0.178043 -0.707107 -0.080649
v -0.139887 -0.831470 -0.063365
v -0.096356 -0.923880 -0.043647
v -0.049122 -0.980785 -0.022251
v -0.025042 0.980785 -0.023621
v -0.049122 0.923880 -0.046335
v -0.071314 0.831470 -0.067268
v -0.090766 0.707107 -0.085616
v -0.106729 0.555570 -0.100674
v -0.118591 0.382683 -0.111863
v -0.125895 0.195090 -0.118753
v -0.128361 0.000000 -0.121079
v -0.125895 -0.195090 -0.118753
v -0.118591 -0.382683 -0.111863
v -0.106729 -0.555570 -0.100674
v -0.090766 -0.707107 -0.085616
v -0.071314 -0.831470 -0.067268
v -0.049122 -0.923880 -0.046335
v -0.025042 -0.980785 -0.023621
v 0.000000 0.980785 -0.024084
v 0.000000 0.923880 -0.047243
v 0.000000 0.707107 -0.087294
v 0.000000 0.382683 -0.114054
v 0.000000 -0.382683 -0.114054
v 0.000000 -0.707107 -0.087294
v 0.000000 -0.831470 -0.068586
v 0.000000 -0.923880 -0.047243
v 0.000000 -0.980785 -0.024084
vn -0.0000 0.0507 -0.9987
vn -0.0000 0.0816 -0.9967
vn 0.0372 0.0831 -0.9958
vn 0.0372 0.0517 -0.9980
vn -0.0000 -0.2815 -0.9596
vn -0.0000 -0.1798 -0.9837
vn 0.0367 -0.1831 -0.9824
vn 0.0357 -0.2864 -0.9575
vn -0.0000 0.0244 -0.9997
vn 0.0373 0.0249 -0.9990
vn -0.0000 -0.5156 -0.8568
vn 0.0318 -0.5227 -0.8519
vn -0.0000 -0.0000 -1.0000
vn 0.0373 -0.0000 -0.9993
vn -0.0000 0.5156 -0.8568
vn -0.0000 1.0000 -0.0000
vn 0.0318 0.5227 -0.8519
vn -0.0000 -1.0000 -0.0000
vn -0.0000 -0.0244 -0.9997
vn 0.0373 -0.0249 -0.9990
vn -0.0000 0.2815 -0.9596
vn 0.0357 0.2864 -0.9575
vn -0.0000 -0.0507 -0.9987
vn 0.0372 -0.0517 -0.9980
vn -0.0000 0.1798 -0.9837
vn 0.0367 0.1831 -0.9824
vn -0.0000 -0.0816 -0.9967
vn 0.0372 -0.0831 -0.9958
vn -0.0000 0.1215 -0.9926
vn 0.0370 0.1237 -0.9916
vn -0.0000 -0.1215 -0.9926
vn 0.0370 -0.1237 -0.9916
vn 0.0768 0.1309 -0.9884
vn 0.0772 0.0880 -0.9931
vn 0.0768 -0.1309 -0.9884
vn 0.0760 -0.1935 -0.9782
vn 0.0774 0.0547 -0.9955
vn 0.0739 -0.3018 -0.9505
vn 0.0775 0.0263 -0.9966
vn 0.0650 -0.5446 -0.8362
vn 0.0775 -0.0000 -0.9970
vn 0.0650 0.5446 -0.8362
vn 0.0775 -0.0263 -0.9966
vn 0.0739 0.3018 -0.9505
vn 0.0774 -0.0547 -0.9955
vn 0.0760 0.1935 -0.9782
vn 0.0772 -0.0880 -0.9931
vn 0.1244 -0.0000 -0.9922
vn 0.1243 -0.0291 -0.9918
vn 0.1010 0.5833 -0.8060
vn 0.1174 0.3304 -0.9365
vn 0.1242 -0.0605 -0.9904
vn 0.1215 0.2131 -0.9694
vn 0.1238 -0.0973 -0.9875
vn 0.1231 0.1445 -0.9818
vn 0.1231 -0.1445 -0.9818
vn 0.1238 0.0973 -0.9875
vn 0.1215 -0.2131 -0.9694
vn 0.1242 0.0605 -0.9904
vn 0.1174 -0.3304 -0.9365
vn 0.1243 0.0291 -0.9918
vn 0.1010 -0.5833 -0.8060
vn 0.1818 -0.1677 -0.9689
vn 0.1787 -0.2462 -0.9526
vn 0.1832 0.1131 -0.9765
vn 0.1840 0.0704 -0.9804
vn 0.1708 -0.3776 -0.9101
vn 0.1843 0.0339 -0.9823
vn 0.1415 -0.6416 -0.7539
vn 0.1844 -0.0000 -0.9828
vn 0.1415 0.6416 -0.7539
vn 0.1843 -0.0339 -0.9823
vn 0.1708 0.3776 -0.9101
vn 0.1840 -0.0704 -0.9804
vn 0.1787 0.2462 -0.9526
vn 0.1832 -0.1131 -0.9765
vn 0.1818 0.1677 -0.9689
vn 0.1871 0.7218 -0.6664
vn 0.2410 0.4532 -0.8582
vn 0.2701 -0.0423 -0.9619
vn 0.2693 -0.0877 -0.9591
vn 0.2577 0.3019 -0.9178
vn 0.2677 -0.1405 -0.9532
vn 0.2645 0.2075 -0.9418
vn 0.2645 -0.2075 -0.9418
vn 0.2677 0.1405 -0.9532
vn 0.2577 -0.3019 -0.9178
vn 0.2693 0.0877 -0.9591
vn 0.2410 -0.4532 -0.8582
vn 0.2701 0.0423 -0.9619
vn 0.1871 -0.7218 -0.6664
vn 0.2703 -0.0000 -0.9628
vn 0.4050 0.1913 -0.8941
vn 0.4096 0.1200 -0.9043
vn 0.3784 -0.3989 -0.8353
vn 0.3383 -0.5725 -0.7469
vn 0.4119 0.0580 -0.9094
vn 0.2362 -0.8199 -0.5214
vn 0.4126 -0.0000 -0.9109
vn 0.2362 0.8199 -0.5214
vn 0.4119 -0.0580 -0.9094
vn 0.3383 0.5725 -0.7469
vn 0.4096 -0.1200 -0.9043
vn 0.3784 0.3989 -0.8353
vn 0.4050 -0.1913 -0.8941
vn 0.3961 0.2797 -0.8745
vn 0.3961 -0.2797 -0.8745
vn 0.6833 -0.0906 -0.7244
vn 0.6742 -0.1861 -0.7147
vn 0.4630 0.7381 -0.4908
vn 0.5670 0.5631 -0.6011
vn 0.6563 -0.2920 -0.6957
vn 0.6242 0.4152 -0.6618
vn 0.6242 -0.4152 -0.6618
vn 0.6563 0.2920 -0.6957
vn 0.5670 -0.5631 -0.6011
vn 0.6742 0.1861 -0.7147
vn 0.4630 -0.7381 -0.4908
vn 0.6833 0.0906 -0.7244
vn 0.2793 -0.9134 -0.2961
vn 0.6862 -0.0000 -0.7274
vn 0.2793 0.9134 -0.2961
vn 0.7164 -0.6977 -0.0000
vn 0.5388 -0.8424 -0.0000
vn 0.9652 0.2613 -0.0000
vn 0.9916 0.1290 -0.0000
vn 0.2977 -0.9547 -0.0000
vn 1.0000 -0.0000 -0.0000
vn 0.2977 0.9547 -0.0000
vn 0.9916 -0.1290 -0.0000
vn 0.5388 0.8424 -0.0000
vn 0.9652 -0.2613 -0.0000
vn 0.7164 0.6977 -0.0000
vn 0.9165 -0.4000 -0.0000
vn 0.8376 0.5464 -0.0000
vn 0.8376 -0.5464 -0.0000
vn 0.9165 0.4000 -0.0000
vn 0.6742 -0.1861 0.7147
vn 0.6563 -0.2920 0.6957
vn 0.5670 0.5631 0.6011
vn 0.6242 0.4152 0.6618
vn 0.6242 -0.4152 0.6618
vn 0.6563 0.2920 0.6957
vn 0.5670 -0.5631 0.6011
vn 0.6742 0.1861 0.7147
vn 0.4630 -0.7381 0.4908
vn 0.6833 0.0906 0.7244
vn 0.2793 -0.9134 0.2961
vn 0.6862 -0.0000 0.7274
vn 0.2793 0.9134 0.2961
vn 0.6833 -0.0906 0.7244
vn 0.4630 0.7381 0.4908
vn 0.3383 -0.5725 0.7469
vn 0.2362 -0.8199 0.5214
vn 0.4119 0.0580 0.9094
vn 0.4126 -0.0000 0.9109
vn 0.2362 0.8199 0.5214
vn 0.4119 -0.0580 0.9094
vn 0.3383 0.5725 0.7469
vn 0.4096 -0.1200 0.9043
vn 0.3784 0.3989 0.8353
vn 0.4050 -0.1913 0.8941
vn 0.3961 0.2797 0.8745
vn 0.3961 -0.2797 0.8745
vn 0.4050 0.1913 0.8941
vn 0.3784 -0.3989 0.8353
vn 0.4096 0.1200 0.9043
vn 0.2577 0.3019 0.9178
vn 0.2645 0.2075 0.9418
vn 0.2677 -0.1405 0.9532
vn 0.2645 -0.2075 0.9418
vn 0.2677 0.1405 0.9532
vn 0.2577 -0.3019 0.9178
vn 0.2693 0.0877 0.9591
vn 0.2410 -0.4532 0.8582
vn 0.2701 0.0423 0.9619
vn 0.1871 -0.7218 0.6664
vn 0.2703 -0.0000 0.9628
vn 0.1871 0.7218 0.6664
vn 0.2701 -0.0423 0.9619
vn 0.2410 0.4532 0.8582
vn 0.2693 -0.0877 0.9591
vn 0.1843 0.0339 0.9823
vn 0.1844 -0.0000 0.9828
vn 0.1415 0.6416 0.7539
vn 0.1415 -0.6416 0.7539
vn 0.1843 -0.0339 0.9823
vn 0.1708 0.3776 0.9101
vn 0.1840 -0.0704 0.9804
vn 0.1787 0.2462 0.9526
vn 0.1832 -0.1131 0.9765
vn 0.1818 0.1677 0.9689
vn 0.1818 -0.1677 0.9689
vn 0.1832 0.1131 0.9765
vn 0.1787 -0.2462 0.9526
vn 0.1840 0.0704 0.9804
vn 0.1708 -0.3776 0.9101
vn 0.1238 -0.0973 0.9875
vn 0.1231 -0.1445 0.9818
vn 0.1231 0.1445 0.9818
vn 0.1238 0.0973 0.9875
vn 0.1215 -0.2131 0.9694
vn 0.1242 0.0605 0.9904
vn 0.1174 -0.3304 0.9365
vn 0.1243 0.0291 0.9918
vn 0.1010 -0.5833 0.8060
vn 0.1244 -0.0000 0.9922
vn 0.1010 0.5833 0.8060
vn 0.1243 -0.0291 0.9918
vn 0.1174 0.3304 0.9365
vn 0.1242 -0.0605 0.9904
vn 0.1215 0.2131 0.9694
vn 0.0650 0.5446 0.8362
vn 0.0650 -0.5446 0.8362
vn 0.0775 -0.0000 0.9970
vn 0.0775 -0.0263 0.9966
vn 0.0739 0.3018 0.9505
vn 0.0774 -0.0547 0.9955
vn 0.0760 0.1935 0.9782
vn 0.0772 -0.0880 0.9931
vn 0.0768 0.1309 0.9884
vn 0.0768 -0.1309 0.9884
vn 0.0772 0.0880 0.9931
vn 0.0760 -0.1935 0.9782
vn 0.0774 0.0547 0.9955
vn 0.0739 -0.3018 0.9505
vn 0.0775 0.0263 0.9966
vn 0.0370 0.1237 0.9916
vn 0.0372 0.0831 0.9958
vn 0.0370 -0.1237 0.9916
vn 0.0367 -0.1831 0.9824
vn 0.0372 0.0517 0.9980
vn 0.0357 -0.2864 0.9575
vn 0.0373 0.0249 0.9990
vn 0.0318 -0.5227 0.8519
vn 0.0373 -0.0000 0.9993
vn 0.0318 0.5227 0.8519
vn 0.0373 -0.0249 0.9990
vn 0.0357 0.2864 0.9575
vn 0.0372 -0.0517 0.9980
vn 0.0367 0.1831 0.9824
vn 0.0372 -0.0831 0.9958
vn -0.0000 -0.0000 1.0000
vn -0.0000 -0.0244 0.9997
vn -0.0000 0.5156 0.8568
vn -0.0000 0.2815 0.9596
vn -0.0000 -0.0507 0.9987
vn -0.0000 0.1798 0.9837
vn -0.0000 -0.0816 0.9967
vn -0.0000 0.1215 0.9926
vn -0.0000 -0.1215 0.9926
vn -0.0000 0.0816 0.9967
vn -0.0000 -0.1798 0.9837
vn -0.0000 0.0507 0.9987
vn -0.0000 -0.2815 0.9596
vn -0.0000 0.0244 0.9997
vn -0.0000 -0.5156 0.8568
vn -0.0370 -0.1237 0.9916
vn -0.0367 -0.1831 0.9824
vn -0.0372 0.0831 0.9958
vn -0.0372 0.0517 0.9980
vn -0.0357 -0.2864 0.9575
vn -0.0373 0.0249 0.9990
vn -0.0318 -0.5227 0.8519
vn -0.0373 -0.0000 0.9993
vn -0.0318 0.5227 0.8519
vn -0.0373 -0.0249 0.9990
vn -0.0357 0.2864 0.9575
vn -0.0372 -0.0517 0.9980
vn -0.0367 0.1831 0.9824
vn -0.0372 -0.0831 0.9958
vn -0.0370 0.1237 0.9916
vn -0.0775 -0.0263 0.9966
vn -0.0774 -0.0547 0.9955
vn -0.0739 0.3018 0.9505
vn -0.0760 0.1935 0.9782
vn -0.0772 -0.0880 0.9931
vn -0.0768 0.1309 0.9884
vn -0.0768 -0.1309 0.9884
vn -0.0772 0.0880 0.9931
vn -0.0760 -0.1935 0.9782
vn -0.0774 0.0547 0.9955
vn -0.0739 -0.3018 0.9505
vn -0.0775 0.0263 0.9966
vn -0.0650 -0.5446 0.8362
vn -0.0775 -0.0000 0.9970
vn -0.0650 0.5446 0.8362
vn -0.1215 -0.2131 0.9694
vn -0.1174 -0.3304 0.9365
vn -0.1242 0.0605 0.9904
vn -0.1243 0.0291 0.9918
vn -0.1010 -0.5833 0.8060
vn -0.1244 -0.0000 0.9922
vn -0.1010 0.5833 0.8060
vn -0.1243 -0.0291 0.9918
vn -0.1174 0.3304 0.9365
vn -0.1242 -0.0605 0.9904
vn -0.1215 0.2131 0.9694
vn -0.1238 -0.0973 0.9875
vn -0.1231 0.1445 0.9818
vn -0.1231 -0.1445 0.9818
vn -0.1238 0.0973 0.9875
vn -0.1708 0.3776 0.9101
vn -0.1787 0.2462 0.9526
vn -0.1840 -0.0704 0.9804
vn -0.1832 -0.1131 0.9765
vn -0.1818 0.1677 0.9689
vn -0.1818 -0.1677 0.9689
vn -0.1832 0.1131 0.9765
vn -0.1787 -0.2462 0.9526
vn -0.1840 0.0704 0.9804
vn -0.1708 -0.3776 0.9101
vn -0.1843 0.0339 0.9823
vn -0.1415 -0.6416 0.7539
vn -0.1844 -0.0000 0.9828
vn -0.1415 0.6416 0.7539
vn -0.1843 -0.0339 0.9823
vn -0.2693 0.0877 0.9591
vn -0.2701 0.0423 0.9619
vn -0.2410 -0.4532 0.8582
vn -0.1871 -0.7218 0.6664
vn -0.2703 -0.0000 0.9628
vn -0.1871 0.7218 0.6664
vn -0.2701 -0.0423 0.9619
vn -0.2410 0.4532 0.8582
vn -0.2693 -0.0877 0.9591
vn -0.2577 0.3019 0.9178
vn -0.2677 -0.1405 0.9532
vn -0.2645 0.2075 0.9418
vn -0.2645 -0.2075 0.9418
vn -0.2677 0.1405 0.9532
vn -0.2577 -0.3019 0.9178
vn -0.4096 -0.1200 0.9043
vn -0.4050 -0.1913 0.8941
vn -0.3784 0.3989 0.8353
vn -0.3961 0.2797 0.8745
vn -0.3961 -0.2797 0.8745
vn -0.4050 0.1913 0.8941
vn -0.3784 -0.3989 0.8353
vn -0.4096 0.1200 0.9043
vn -0.3383 -0.5725 0.7469
vn -0.4119 0.0580 0.9094
vn -0.2362 -0.8199 0.5214
vn -0.4126 -0.0000 0.9109
vn -0.2362 0.8199 0.5214
vn -0.4119 -0.0580 0.9094
vn -0.3383 0.5725 0.7469
vn -0.4630 -0.7381 0.4908
vn -0.2793 -0.9134 0.2961
vn -0.6833 0.0906 0.7244
vn -0.6862 -0.0000 0.7274
vn -0.2793 0.9134 0.2961
vn -0.6833 -0.0906 0.7244
vn -0.4630 0.7381 0.4908
vn -0.6742 -0.1861 0.7147
vn -0.5670 0.5631 0.6011
vn -0.6563 -0.2920 0.6957
vn -0.6242 0.4152 0.6618
vn -0.6242 -0.4152 0.6618
vn -0.6563 0.2920 0.6957
vn -0.5670 -0.5631 0.6011
vn -0.6742 0.1861 0.7147
vn -0.7164 0.6977 -0.0000
vn -0.8376 0.5464 -0.0000
vn -0.9165 -0.4000 -0.0000
vn -0.8376 -0.5464 -0.0000
vn -0.9165 0.4000 -0.0000
vn -0.7164 -0.6977 -0.0000
vn -0.9652 0.2613 -0.0000
vn -0.5388 -0.8424 -0.0000
vn -0.9916 0.1290 -0.0000
vn -0.2977 -0.9547 -0.0000
vn -1.0000 -0.0000 -0.0000
vn -0.2977 0.9547 -0.0000
vn -0.9916 -0.1290 -0.0000
vn -0.5388 0.8424 -0.0000
vn -0.9652 -0.2613 -0.0000
vn -0.6833 0.0906 -0.7244
vn -0.6862 -0.0000 -0.7274
vn -0.2793 0.9134 -0.2961
vn -0.2793 -0.9134 -0.2961
vn -0.6833 -0.0906 -0.7244
vn -0.4630 0.7381 -0.4908
vn -0.6742 -0.1861 -0.7147
vn -0.5670 0.5631 -0.6011
vn -0.6563 -0.2920 -0.6957
vn -0.6242 0.4152 -0.6618
vn -0.6242 -0.4152 -0.6618
vn -0.6563 0.2920 -0.6957
vn -0.5670 -0.5631 -0.6011
vn -0.6742 0.1861 -0.7147
vn -0.4630 -0.7381 -0.4908
vn -0.4050 -0.1913 -0.8941
vn -0.3961 -0.2797 -0.8745
vn -0.3961 0.2797 -0.8745
vn -0.4050 0.1913 -0.8941
vn -0.3784 -0.3989 -0.8353
vn -0.4096 0.1200 -0.9043
vn -0.3383 -0.5725 -0.7469
vn -0.4119 0.0580 -0.9094
vn -0.2362 -0.8199 -0.5214
vn -0.4126 -0.0000 -0.9109
vn -0.2362 0.8199 -0.5214
vn -0.4119 -0.0580 -0.9094
vn -0.3383 0.5725 -0.7469
vn -0.4096 -0.1200 -0.9043
vn -0.3784 0.3989 -0.8353
vn -0.1871 -0.7218 -0.6664
vn -0.2703 -0.0000 -0.9628
vn -0.2701 -0.0423 -0.9619
vn -0.1871 0.7218 -0.6664
vn -0.2410 0.4532 -0.8582
vn -0.2693 -0.0877 -0.9591
vn -0.2577 0.3019 -0.9178
vn -0.2677 -0.1405 -0.9532
vn -0.2645 0.2075 -0.9418
vn -0.2645 -0.2075 -0.9418
vn -0.2677 0.1405 -0.9532
vn -0.2577 -0.3019 -0.9178
vn -0.2693 0.0877 -0.9591
vn -0.2410 -0.4532 -0.8582
vn -0.2701 0.0423 -0.9619
vn -0.1818 -0.1677 -0.9689
vn -0.1787 -0.2462 -0.9526
vn -0.1832 0.1131 -0.9765
vn -0.1840 0.0704 -0.9804
vn -0.1708 -0.3776 -0.9101
vn -0.1843 0.0339 -0.9823
vn -0.1415 -0.6416 -0.7539
vn -0.1844 -0.0000 -0.9828
vn -0.1415 0.6416 -0.7539
vn -0.1843 -0.0339 -0.9823
vn -0.1708 0.3776 -0.9101
vn -0.1840 -0.0704 -0.9804
vn -0.1787 0.2462 -0.9526
vn -0.1832 -0.1131 -0.9765
vn -0.1818 0.1677 -0.9689
vn -0.1010 0.5833 -0.8060
vn -0.1174 0.3304 -0.9365
vn -0.1243 -0.0291 -0.9918
vn -0.1242 -0.0605 -0.9904
vn -0.1215 0.2131 -0.9694
vn -0.1238 -0.0973 -0.9875
vn -0.1231 0.1445 -0.9818
vn -0.1231 -0.1445 -0.9818
vn -0.1238 0.0973 -0.9875
vn -0.1215 -0.2131 -0.9694
vn -0.1242 0.0605 -0.9904
vn -0.1174 -0.3304 -0.9365
vn -0.1243 0.0291 -0.9918
vn -0.1010 -0.5833 -0.8060
vn -0.1244 -0.0000 -0.9922
vn -0.0772 0.0880 -0.9931
vn -0.0774 0.0547 -0.9955
vn -0.0760 -0.1935 -0.9782
vn -0.0739 -0.3018 -0.9505
vn -0.0775 0.0263 -0.9966
vn -0.0650 -0.5446 -0.8362
vn -0.0775 -0.0000 -0.9970
vn -0.0650 0.5446 -0.8362
vn -0.0775 -0.0263 -0.9966
vn -0.0739 0.3018 -0.9505
vn -0.0774 -0.0547 -0.9955
vn -0.0760 0.1935 -0.9782
vn -0.0772 -0.0880 -0.9931
vn -0.0768 0.1309 -0.9884
vn -0.0768 -0.1309 -0.9884
vn -0.0373 -0.0249 -0.9990
vn -0.0372 -0.0517 -0.9980
vn -0.0357 0.2864 -0.9575
vn -0.0367 0.1831 -0.9824
vn -0.0372 -0.0831 -0.9958
vn -0.0370 0.1237 -0.9916
vn -0.0370 -0.1237 -0.9916
vn -0.0372 0.0831 -0.9958
vn -0.0367 -0.1831 -0.9824
vn -0.0372 0.0517 -0.9980
vn -0.0357 -0.2864 -0.9575
vn -0.0373 0.0249 -0.9990
vn -0.0318 -0.5227 -0.8519
vn -0.0373 -0.0000 -0.9993
vn -0.0318 0.5227 -0.8519
vt 0.750000 0.812500
vt 0.750000 0.687500
vt 0.750000 0.562500
vt 0.750000 0.500000
vt 0.750000 0.437500
vt 0.750000 0.312500
vt 0.718750 0.937500
vt 0.718750 0.875000
vt 0.718750 0.812500
vt 0.718750 0.750000
vt 0.718750 0.687500
vt 0.718750 0.625000
vt 0.718750 0.562500
vt 0.718750 0.500000
vt 0.718750 0.437500
vt 0.718750 0.375000
vt 0.718750 0.312500
vt 0.718750 0.250000
vt 0.718750 0.187500
vt 0.718750 0.125000
vt 0.718750 0.062500
vt 0.687500 0.937500
vt 0.687500 0.875000
vt 0.687500 0.812500
vt 0.687500 0.750000
vt 0.687500 0.687500
vt 0.687500 0.625000
vt 0.687500 0.562500
vt 0.687500 0.500000
vt 0.687500 0.437500
vt 0.687500 0.375000
vt 0.687500 0.312500
vt 0.687500 0.250000
vt 0.687500 0.187500
vt 0.687500 0.125000
vt 0.687500 0.062500
vt 0.656250 0.937500
vt 0.656250 0.875000
vt 0.656250 0.812500
vt 0.656250 0.750000
vt 0.656250 0.687500
vt 0.656250 0.625000
vt 0.656250 0.562500
vt 0.656250 0.500000
vt 0.656250 0.437500
vt 0.656250 0.375000
vt 0.656250 0.312500
vt 0.656250 0.250000
vt 0.656250 0.187500
vt 0.656250 0.125000
vt 0.656250 0.062500
vt 0.625000 0.937500
vt 0.625000 0.875000
vt 0.625000 0.812500
vt 0.625000 0.750000
vt 0.625000 0.687500
vt 0.625000 0.625000
vt 0.625000 0.562500
vt 0.625000 0.500000
vt 0.625000 0.437500
vt 0.625000 0.375000
vt 0.625000 0.312500
vt 0.625000 0.250000
vt 0.625000 0.187500
vt 0.625000 0.125000
vt 0.625000 0.062500
vt 0.593750 0.937500
vt 0.593750 0.875000
vt 0.593750 0.812500
vt 0.593750 0.750000
vt 0.593750 0.687500
vt 0.593750 0.625000
vt 0.593750 0.562500
vt 0.593750 0.500000
vt 0.593750 0.437500
vt 0.593750 0.375000
vt 0.593750 0.312500
vt 0.593750 0.250000
vt 0.593750 0.187500
vt 0.593750 0.125000
vt 0.593750 0.062500
vt 0.734375 1.000000
vt 0.703125 1.000000
vt 0.671875 1.000000
vt 0.640625 1.000000
vt 0.609375 1.000000
vt 0.578125 1.000000
vt 0.546875 1.000000
vt 0.515625 1.000000
vt 0.484375 1.000000
vt 0.453125 1.000000
vt 0.421875 1.000000
vt 0.390625 1.000000
vt 0.359375 1.000000
vt 0.328125 1.000000
vt 0.296875 1.000000
vt 0.265625 1.000000
vt 0.234375 1.000000
vt 0.203125 1.000000
vt 0.171875 1.000000
vt 0.140625 1.000000
vt 0.109375 1.000000
vt 0.078125 1.000000
vt 0.046875 1.000000
vt 0.015625 1.000000
vt 0.984375 1.000000
vt 0.953125 1.000000
vt 0.921875 1.000000
vt 0.890625 1.000000
vt 0.859375 1.000000
vt 0.828125 1.000000
vt 0.796875 1.000000
vt 0.765625 1.000000
vt 0.562500 0.937500
vt 0.562500 0.875000
vt 0.562500 0.812500
vt 0.562500 0.750000
vt 0.562500 0.687500
vt 0.562500 0.625000
vt 0.562500 0.562500
vt 0.562500 0.500000
vt 0.562500 0.437500
vt 0.562500 0.375000
vt 0.562500 0.312500
vt 0.562500 0.250000
vt 0.562500 0.187500
vt 0.562500 0.125000
vt 0.562500 0.062500
vt 0.531250 0.937500
vt 0.531250 0.875000
vt 0.531250 0.812500
vt 0.531250 0.750000
vt 0.531250 0.687500
vt 0.531250 0.625000
vt 0.531250 0.562500
vt 0.531250 0.500000
vt 0.531250 0.437500
vt 0.531250 0.375000
vt 0.531250 0.312500
vt 0.531250 0.250000
vt 0.531250 0.187500
vt 0.531250 0.125000
vt 0.531250 0.062500
vt 0.500000 0.937500
vt 0.500000 0.875000
vt 0.500000 0.812500
vt 0.500000 0.750000
vt 0.500000 0.687500
vt 0.500000 0.625000
vt 0.500000 0.562500
vt 0.500000 0.500000
vt 0.500000 0.437500
vt 0.500000 0.375000
vt 0.500000 0.312500
vt 0.500000 0.250000
vt 0.500000 0.187500
vt 0.500000 0.125000
vt 0.500000 0.062500
vt 0.468750 0.937500
vt 0.468750 0.875000
vt 0.468750 0.812500
vt 0.468750 0.750000
vt 0.468750 0.687500
vt 0.468750 0.625000
vt 0.468750 0.562500
vt 0.468750 0.500000
vt 0.468750 0.437500
vt 0.468750 0.375000
vt 0.468750 0.312500
vt 0.468750 0.250000
vt 0.468750 0.187500
vt 0.468750 0.125000
vt 0.468750 0.062500
vt 0.437500 0.937500
vt 0.437500 0.875000
vt 0.437500 0.812500
vt 0.437500 0.750000
vt 0.437500 0.687500
vt 0.437500 0.625000
vt 0.437500 0.562500
vt 0.437500 0.500000
vt 0.437500 0.437500
vt 0.437500 0.375000
vt 0.437500 0.312500
vt 0.437500 0.250000
vt 0.437500 0.187500
vt 0.437500 0.125000
vt 0.437500 0.062500
vt 0.406250 0.937500
vt 0.406250 0.875000
vt 0.406250 0.812500
vt 0.406250 0.750000
vt 0.406250 0.687500
vt 0.406250 0.625000
vt 0.406250 0.562500
vt 0.406250 0.500000
vt 0.406250 0.437500
vt 0.406250 0.375000
vt 0.406250 0.312500
vt 0.406250 0.250000
vt 0.406250 0.187500
vt 0.406250 0.125000
vt 0.406250 0.062500
vt 0.375000 0.937500
vt 0.375000 0.875000
vt 0.375000 0.812500
vt 0.375000 0.750000
vt 0.375000 0.687500
vt 0.375000 0.625000
vt 0.375000 0.562500
vt 0.375000 0.500000
vt 0.375000 0.437500
vt 0.375000 0.375000
vt 0.375000 0.312500
vt 0.375000 0.250000
vt 0.375000 0.187500
vt 0.375000 0.125000
vt 0.375000 0.062500
vt 0.343750 0.937500
vt 0.343750 0.875000
vt 0.343750 0.812500
vt 0.343750 0.750000
vt 0.343750 0.687500
vt 0.343750 0.625000
vt 0.343750 0.562500
vt 0.343750 0.500000
vt 0.343750 0.437500
vt 0.343750 0.375000
vt 0.343750 0.312500
vt 0.343750 0.250000
vt 0.343750 0.187500
vt 0.343750 0.125000
vt 0.343750 0.062500
vt 0.312500 0.937500
vt 0.312500 0.875000
vt 0.312500 0.812500
vt 0.312500 0.750000
vt 0.312500 0.687500
vt 0.312500 0.625000
vt 0.312500 0.562500
vt 0.312500 0.500000
vt 0.312500 0.437500
vt 0.312500 0.375000
vt 0.312500 0.312500
vt 0.312500 0.250000
vt 0.312500 0.187500
vt 0.312500 0.125000
vt 0.312500 0.062500
vt 0.281250 0.937500
vt 0.281250 0.875000
vt 0.281250 0.812500
vt 0.281250 0.750000
vt 0.281250 0.687500
vt 0.281250 0.625000
vt 0.281250 0.562500
vt 0.281250 0.500000
vt 0.281250 0.437500
vt 0.281250 0.375000
vt 0.281250 0.312500
vt 0.281250 0.250000
vt 0.281250 0.187500
vt 0.281250 0.125000
vt 0.281250 0.062500
vt 0.250000 0.937500
vt 0.250000 0.875000
vt 0.250000 0.812500
vt 0.250000 0.750000
vt 0.250000 0.687500
vt 0.250000 0.625000
vt 0.250000 0.562500
vt 0.250000 0.500000
vt 0.250000 0.437500
vt 0.250000 0.375000
vt 0.250000 0.312500
vt 0.250000 0.250000
vt 0.250000 0.187500
vt 0.250000 0.125000
vt 0.250000 0.062500
vt 0.218750 0.937500
vt 0.218750 0.875000
vt 0.218750 0.812500
vt 0.218750 0.750000
vt 0.218750 0.687500
vt 0.218750 0.625000
vt 0.218750 0.562500
vt 0.218750 0.500000
vt 0.218750 0.437500
vt 0.218750 0.375000
vt 0.218750 0.312500
vt 0.218750 0.250000
vt 0.218750 0.187500
vt 0.218750 0.125000
vt 0.218750 0.062500
vt 0.187500 0.937500
vt 0.187500 0.875000
vt 0.187500 0.812500
vt 0.187500 0.750000
vt 0.187500 0.687500
vt 0.187500 0.625000
vt 0.187500 0.562500
vt 0.187500 0.500000
vt 0.187500 0.437500
vt 0.187500 0.375000
vt 0.187500 0.312500
vt 0.187500 0.250000
vt 0.187500 0.187500
vt 0.187500 0.125000
vt 0.187500 0.062500
vt 0.156250 0.937500
vt 0.156250 0.875000
vt 0.156250 0.812500
vt 0.156250 0.750000
vt 0.156250 0.687500
vt 0.156250 0.625000
vt 0.156250 0.562500
vt 0.156250 0.500000
vt 0.156250 0.437500
vt 0.156250 0.375000
vt 0.156250 0.312500
vt 0.156250 0.250000
vt 0.156250 0.187500
vt 0.156250 0.125000
vt 0.156250 0.062500
vt 0.125000 0.937500
vt 0.125000 0.875000
vt 0.125000 0.812500
vt 0.125000 0.750000
vt 0.125000 0.687500
vt 0.125000 0.625000
vt 0.125000 0.562500
vt 0.125000 0.500000
vt 0.125000 0.437500
vt 0.125000 0.375000
vt 0.125000 0.312500
vt 0.125000 0.250000
vt 0.125000 0.187500
vt 0.125000 0.125000
vt 0.125000 0.062500
vt 0.734375 0.000000
vt 0.703125 0.000000
vt 0.671875 0.000000
vt 0.640625 0.000000
vt 0.609375 0.000000
vt 0.578125 0.000000
vt 0.546875 0.000000
vt 0.515625 0.000000
vt 0.484375 0.000000
vt 0.453125 0.000000
vt 0.421875 0.000000
vt 0.390625 0.000000
vt 0.359375 0.000000
vt 0.328125 0.000000
vt 0.296875 0.000000
vt 0.265625 0.000000
vt 0.234375 0.000000
vt 0.203125 0.000000
vt 0.171875 0.000000
vt 0.140625 0.000000
vt 0.109375 0.000000
vt 0.078125 0.000000
vt 0.046875 0.000000
vt 0.015625 0.000000
vt 0.984375 0.000000
vt 0.953125 0.000000
vt 0.921875 0.000000
vt 0.890625 0.000000
vt 0.859375 0.000000
vt 0.828125 0.000000
vt 0.796875 0.000000
vt 0.765625 0.000000
vt 0.093750 0.937500
vt 0.093750 0.875000
vt 0.093750 0.812500
vt 0.093750 0.750000
vt 0.093750 0.687500
vt 0.093750 0.625000
vt 0.093750 0.562500
vt 0.093750 0.500000
vt 0.093750 0.437500
vt 0.093750 0.375000
vt 0.093750 0.312500
vt 0.093750 0.250000
vt 0.093750 0.187500
vt 0.093750 0.125000
vt 0.093750 0.062500
vt 0.062500 0.937500
vt 0.062500 0.875000
vt 0.062500 0.812500
vt 0.062500 0.750000
vt 0.062500 0.687500
vt 0.062500 0.625000
vt 0.062500 0.562500
vt 0.062500 0.500000
vt 0.062500 0.437500
vt 0.062500 0.375000
vt 0.062500 0.312500
vt 0.062500 0.250000
vt 0.062500 0.187500
vt 0.062500 0.125000
vt 0.062500 0.062500
vt 0.031250 0.937500
vt 0.031250 0.875000
vt 0.031250 0.812500
vt 0.031250 0.750000
vt 0.031250 0.687500
vt 0.031250 0.625000
vt 0.031250 0.562500
vt 0.031250 0.500000
vt 0.031250 0.437500
vt 0.031250 0.375000
vt 0.031250 0.312500
vt 0.031250 0.250000
vt 0.031250 0.187500
vt 0.031250 0.125000
vt 0.031250 0.062500
vt 0.000000 0.937500
vt 1.000000 0.937500
vt 0.000000 0.875000
vt 1.000000 0.875000
vt 0.000000 0.812500
vt 1.000000 0.812500
vt 0.000000 0.750000
vt 1.000000 0.750000
vt 0.000000 0.687500
vt 1.000000 0.687500
vt 0.000000 0.625000
vt 1.000000 0.625000
vt 0.000000 0.562500
vt 1.000000 0.562500
vt 0.000000 0.500000
vt 1.000000 0.500000
vt 0.000000 0.437500
vt 1.000000 0.437500
vt 0.000000 0.375000
vt 1.000000 0.375000
vt 0.000000 0.312500
vt 1.000000 0.312500
vt 0.000000 0.250000
vt 1.000000 0.250000
vt 0.000000 0.187500
vt 1.000000 0.187500
vt 0.000000 0.125000
vt 1.000000 0.125000
vt 0.000000 0.062500
vt 1.000000 0.062500
vt 0.968750 0.937500
vt 0.968750 0.875000
vt 0.968750 0.812500
vt 0.968750 0.750000
vt 0.968750 0.687500
vt 0.968750 0.625000
vt 0.968750 0.562500
vt 0.968750 0.500000
vt 0.968750 0.437500
vt 0.968750 0.375000
vt 0.968750 0.312500
vt 0.968750 0.250000
vt 0.968750 0.187500
vt 0.968750 0.125000
vt 0.968750 0.062500
vt 0.937500 0.937500
vt 0.937500 0.875000
vt 0.937500 0.812500
vt 0.937500 0.750000
vt 0.937500 0.687500
vt 0.937500 0.625000
vt 0.937500 0.562500
vt 0.937500 0.500000
vt 0.937500 0.437500
vt 0.937500 0.375000
vt 0.937500 0.312500
vt 0.937500 0.250000
vt 0.937500 0.187500
vt 0.937500 0.125000
vt 0.937500 0.062500
vt 0.906250 0.937500
vt 0.906250 0.875000
vt 0.906250 0.812500
vt 0.906250 0.750000
vt 0.906250 0.687500
vt 0.906250 0.625000
vt 0.906250 0.562500
vt 0.906250 0.500000
vt 0.906250 0.437500
vt 0.906250 0.375000
vt 0.906250 0.312500
vt 0.906250 0.250000
vt 0.906250 0.187500
vt 0.906250 0.125000
vt 0.906250 0.062500
vt 0.875000 0.937500
vt 0.875000 0.875000
vt 0.875000 0.812500
vt 0.875000 0.750000
vt 0.875000 0.687500
vt 0.875000 0.625000
vt 0.875000 0.562500
vt 0.875000 0.500000
vt 0.875000 0.437500
vt 0.875000 0.375000
vt 0.875000 0.312500
vt 0.875000 0.250000
vt 0.875000 0.187500
vt 0.875000 0.125000
vt 0.875000 0.062500
vt 0.843750 0.937500
vt 0.843750 0.875000
vt 0.843750 0.812500
vt 0.843750 0.750000
vt 0.843750 0.687500
vt 0.843750 0.625000
vt 0.843750 0.562500
vt 0.843750 0.500000
vt 0.843750 0.437500
vt 0.843750 0.375000
vt 0.843750 0.312500
vt 0.843750 0.250000
vt 0.843750 0.187500
vt 0.843750 0.125000
vt 0.843750 0.062500
vt 0.812500 0.937500
vt 0.812500 0.875000
vt 0.812500 0.812500
vt 0.812500 0.750000
vt 0.812500 0.687500
vt 0.812500 0.625000
vt 0.812500 0.562500
vt 0.812500 0.500000
vt 0.812500 0.437500
vt 0.812500 0.375000
vt 0.812500 0.312500
vt 0.812500 0.250000
vt 0.812500 0.187500
vt 0.812500 0.125000
vt 0.812500 0.062500
vt 0.781250 0.937500
vt 0.781250 0.875000
vt 0.781250 0.812500
vt 0.781250 0.750000
vt 0.781250 0.687500
vt 0.781250 0.625000
vt 0.781250 0.562500
vt 0.781250 0.500000
vt 0.781250 0.437500
vt 0.781250 0.375000
vt 0.781250 0.312500
vt 0.781250 0.250000
vt 0.781250 0.187500
vt 0.781250 0.125000
vt 0.781250 0.062500
vt 0.750000 0.937500
vt 0.750000 0.875000
vt 0.750000 0.750000
vt 0.750000 0.625000
vt 0.750000 0.375000
vt 0.750000 0.250000
vt 0.750000 0.187500
vt 0.750000 0.125000
vt 0.750000 0.062500
s 1
usemtl マテリアル.001
f 477/554/1 2/2/2 11/11/3 12/12/4
f 481/558/5 480/557/6 19/19/7 20/20/8
f 3/3/9 477/554/1 12/12/4 13/13/10
f 482/559/11 481/558/5 20/20/8 21/21/12
f 4/4/13 3/3/9 13/13/10 14/14/14
f 474/551/15 82/82/16 7/7/17
f 308/339/18 482/559/11 21/21/12
f 5/5/19 4/4/13 14/14/14 15/15/20
f 475/552/21 474/551/15 7/7/17 8/8/22
f 478/555/23 5/5/19 15/15/20 16/16/24
f 1/1/25 475/552/21 8/8/22 9/9/26
f 6/6/27 478/555/23 16/16/24 17/17/28
f 476/553/29 1/1/25 9/9/26 10/10/30
f 479/556/31 6/6/27 17/17/28 18/18/32
f 2/2/2 476/553/29 10/10/30 11/11/3
f 480/557/6 479/556/31 18/18/32 19/19/7
f 11/11/3 10/10/30 25/25/33 26/26/34
f 19/19/7 18/18/32 33/33/35 34/34/36
f 12/12/4 11/11/3 26/26/34 27/27/37
f 20/20/8 19/19/7 34/34/36 35/35/38
f 13/13/10 12/12/4 27/27/37 28/28/39
f 21/21/12 20/20/8 35/35/38 36/36/40
f 14/14/14 13/13/10 28/28/39 29/29/41
f 7/7/17 82/83/16 22/22/42
f 308/340/18 21/21/12 36/36/40
f 15/15/20 14/14/14 29/29/41 30/30/43
f 8/8/22 7/7/17 22/22/42 23/23/44
f 16/16/24 15/15/20 30/30/43 31/31/45
f 9/9/26 8/8/22 23/23/44 24/24/46
f 17/17/28 16/16/24 31/31/45 32/32/47
f 10/10/30 9/9/26 24/24/46 25/25/33
f 18/18/32 17/17/28 32/32/47 33/33/35
f 30/30/43 29/29/41 44/44/48 45/45/49
f 23/23/44 22/22/42 37/37/50 38/38/51
f 31/31/45 30/30/43 45/45/49 46/46/52
f 24/24/46 23/23/44 38/38/51 39/39/53
f 32/32/47 31/31/45 46/46/52 47/47/54
f 25/25/33 24/24/46 39/39/53 40/40/55
f 33/33/35 32/32/47 47/47/54 48/48/56
f 26/26/34 25/25/33 40/40/55 41/41/57
f 34/34/36 33/33/35 48/48/56 49/49/58
f 27/27/37 26/26/34 41/41/57 42/42/59
f 35/35/38 34/34/36 49/49/58 50/50/60
f 28/28/39 27/27/37 42/42/59 43/43/61
f 36/36/40 35/35/38 50/50/60 51/51/62
f 29/29/41 28/28/39 43/43/61 44/44/48
f 22/22/42 82/84/16 37/37/50
f 308/341/18 36/36/40 51/51/62
f 49/49/58 48/48/56 63/63/63 64/64/64
f 42/42/59 41/41/57 56/56/65 57/57/66
f 50/50/60 49/49/58 64/64/64 65/65/67
f 43/43/61 42/42/59 57/57/66 58/58/68
f 51/51/62 50/50/60 65/65/67 66/66/69
f 44/44/48 43/43/61 58/58/68 59/59/70
f 37/37/50 82/85/16 52/52/71
f 308/342/18 51/51/62 66/66/69
f 45/45/49 44/44/48 59/59/70 60/60/72
f 38/38/51 37/37/50 52/52/71 53/53/73
f 46/46/52 45/45/49 60/60/72 61/61/74
f 39/39/53 38/38/51 53/53/73 54/54/75
f 47/47/54 46/46/52 61/61/74 62/62/76
f 40/40/55 39/39/53 54/54/75 55/55/77
f 48/48/56 47/47/54 62/62/76 63/63/63
f 41/41/57 40/40/55 55/55/77 56/56/65
f 53/53/73 52/52/71 67/67/78 68/68/79
f 61/61/74 60/60/72 75/75/80 76/76/81
f 54/54/75 53/53/73 68/68/79 69/69/82
f 62/62/76 61/61/74 76/76/81 77/77/83
f 55/55/77 54/54/75 69/69/82 70/70/84
f 63/63/63 62/62/76 77/77/83 78/78/85
f 56/56/65 55/55/77 70/70/84 71/71/86
f 64/64/64 63/63/63 78/78/85 79/79/87
f 57/57/66 56/56/65 71/71/86 72/72/88
f 65/65/67 64/64/64 79/79/87 80/80/89
f 58/58/68 57/57/66 72/72/88 73/73/90
f 66/66/69 65/65/67 80/80/89 81/81/91
f 59/59/70 58/58/68 73/73/90 74/74/92
f 52/52/71 82/86/16 67/67/78
f 308/343/18 66/66/69 81/81/91
f 60/60/72 59/59/70 74/74/92 75/75/80
f 72/72/88 71/71/86 87/118/93 88/119/94
f 80/80/89 79/79/87 95/126/95 96/127/96
f 73/73/90 72/72/88 88/119/94 89/120/97
f 81/81/91 80/80/89 96/127/96 97/128/98
f 74/74/92 73/73/90 89/120/97 90/121/99
f 67/67/78 82/87/16 83/114/100
f 308/344/18 81/81/91 97/128/98
f 75/75/80 74/74/92 90/121/99 91/122/101
f 68/68/79 67/67/78 83/114/100 84/115/102
f 76/76/81 75/75/80 91/122/101 92/123/103
f 69/69/82 68/68/79 84/115/102 85/116/104
f 77/77/83 76/76/81 92/123/103 93/124/105
f 70/70/84 69/69/82 85/116/104 86/117/106
f 78/78/85 77/77/83 93/124/105 94/125/107
f 71/71/86 70/70/84 86/117/106 87/118/93
f 79/79/87 78/78/85 94/125/107 95/126/95
f 92/123/103 91/122/101 106/137/108 107/138/109
f 85/116/104 84/115/102 99/130/110 100/131/111
f 93/124/105 92/123/103 107/138/109 108/139/112
f 86/117/106 85/116/104 100/131/111 101/132/113
f 94/125/107 93/124/105 108/139/112 109/140/114
f 87/118/93 86/117/106 101/132/113 102/133/115
f 95/126/95 94/125/107 109/140/114 110/141/116
f 88/119/94 87/118/93 102/133/115 103/134/117
f 96/127/96 95/126/95 110/141/116 111/142/118
f 89/120/97 88/119/94 103/134/117 104/135/119
f 97/128/98 96/127/96 111/142/118 112/143/120
f 90/121/99 89/120/97 104/135/119 105/136/121
f 83/114/100 82/88/16 98/129/122
f 308/345/18 97/128/98 112/143/120
f 91/122/101 90/121/99 105/136/121 106/137/108
f 84/115/102 83/114/100 98/129/122 99/130/110
f 111/142/118 110/141/116 125/156/123 126/157/124
f 104/135/119 103/134/117 118/149/125 119/150/126
f 112/143/120 111/142/118 126/157/124 127/158/127
f 105/136/121 104/135/119 119/150/126 120/151/128
f 98/129/122 82/89/16 113/144/129
f 308/346/18 112/143/120 127/158/127
f 106/137/108 105/136/121 120/151/128 121/152/130
f 99/130/110 98/129/122 113/144/129 114/145/131
f 107/138/109 106/137/108 121/152/130 122/153/132
f 100/131/111 99/130/110 114/145/131 115/146/133
f 108/139/112 107/138/109 122/153/132 123/154/134
f 101/132/113 100/131/111 115/146/133 116/147/135
f 109/140/114 108/139/112 123/154/134 124/155/136
f 102/133/115 101/132/113 116/147/135 117/148/137
f 110/141/116 109/140/114 124/155/136 125/156/123
f 103/134/117 102/133/115 117/148/137 118/149/125
f 123/154/134 122/153/132 137/168/138 138/169/139
f 116/147/135 115/146/133 130/161/140 131/162/141
f 124/155/136 123/154/134 138/169/139 139/170/142
f 117/148/137 116/147/135 131/162/141 132/163/143
f 125/156/123 124/155/136 139/170/142 140/171/144
f 118/149/125 117/148/137 132/163/143 133/164/145
f 126/157/124 125/156/123 140/171/144 141/172/146
f 119/150/126 118/149/125 133/164/145 134/165/147
f 127/158/127 126/157/124 141/172/146 142/173/148
f 120/151/128 119/150/126 134/165/147 135/166/149
f 113/144/129 82/90/16 128/159/150
f 308/347/18 127/158/127 142/173/148
f 121/152/130 120/151/128 135/166/149 136/167/151
f 114/145/131 113/144/129 128/159/150 129/160/152
f 122/153/132 121/152/130 136/167/151 137/168/138
f 115/146/133 114/145/131 129/160/152 130/161/140
f 142/173/148 141/172/146 156/187/153 157/188/154
f 135/166/149 134/165/147 149/180/155 150/181/156
f 128/159/150 82/91/16 143/174/157
f 308/348/18 142/173/148 157/188/154
f 136/167/151 135/166/149 150/181/156 151/182/158
f 129/160/152 128/159/150 143/174/157 144/175/159
f 137/168/138 136/167/151 151/182/158 152/183/160
f 130/161/140 129/160/152 144/175/159 145/176/161
f 138/169/139 137/168/138 152/183/160 153/184/162
f 131/162/141 130/161/140 145/176/161 146/177/163
f 139/170/142 138/169/139 153/184/162 154/185/164
f 132/163/143 131/162/141 146/177/163 147/178/165
f 140/171/144 139/170/142 154/185/164 155/186/166
f 133/164/145 132/163/143 147/178/165 148/179/167
f 141/172/146 140/171/144 155/186/166 156/187/153
f 134/165/147 133/164/145 148/179/167 149/180/155
f 146/177/163 145/176/161 160/191/168 161/192/169
f 154/185/164 153/184/162 168/199/170 169/200/171
f 147/178/165 146/177/163 161/192/169 162/193/172
f 155/186/166 154/185/164 169/200/171 170/201/173
f 148/179/167 147/178/165 162/193/172 163/194/174
f 156/187/153 155/186/166 170/201/173 171/202/175
f 149/180/155 148/179/167 163/194/174 164/195/176
f 157/188/154 156/187/153 171/202/175 172/203/177
f 150/181/156 149/180/155 164/195/176 165/196/178
f 143/174/157 82/92/16 158/189/179
f 308/349/18 157/188/154 172/203/177
f 151/182/158 150/181/156 165/196/178 166/197/180
f 144/175/159 143/174/157 158/189/179 159/190/181
f 152/183/160 151/182/158 166/197/180 167/198/182
f 145/176/161 144/175/159 159/190/181 160/191/168
f 153/184/162 152/183/160 167/198/182 168/199/170
f 165/196/178 164/195/176 179/210/183 180/211/184
f 158/189/179 82/93/16 173/204/185
f 308/350/18 172/203/177 187/218/186
f 166/197/180 165/196/178 180/211/184 181/212/187
f 159/190/181 158/189/179 173/204/185 174/205/188
f 167/198/182 166/197/180 181/212/187 182/213/189
f 160/191/168 159/190/181 174/205/188 175/206/190
f 168/199/170 167/198/182 182/213/189 183/214/191
f 161/192/169 160/191/168 175/206/190 176/207/192
f 169/200/171 168/199/170 183/214/191 184/215/193
f 162/193/172 161/192/169 176/207/192 177/208/194
f 170/201/173 169/200/171 184/215/193 185/216/195
f 163/194/174 162/193/172 177/208/194 178/209/196
f 171/202/175 170/201/173 185/216/195 186/217/197
f 164/195/176 163/194/174 178/209/196 179/210/183
f 172/203/177 171/202/175 186/217/197 187/218/186
f 184/215/193 183/214/191 198/229/198 199/230/199
f 177/208/194 176/207/192 191/222/200 192/223/201
f 185/216/195 184/215/193 199/230/199 200/231/202
f 178/209/196 177/208/194 192/223/201 193/224/203
f 186/217/197 185/216/195 200/231/202 201/232/204
f 179/210/183 178/209/196 193/224/203 194/225/205
f 187/218/186 186/217/197 201/232/204 202/233/206
f 180/211/184 179/210/183 194/225/205 195/226/207
f 173/204/185 82/94/16 188/219/208
f 308/351/18 187/218/186 202/233/206
f 181/212/187 180/211/184 195/226/207 196/227/209
f 174/205/188 173/204/185 188/219/208 189/220/210
f 182/213/189 181/212/187 196/227/209 197/228/211
f 175/206/190 174/205/188 189/220/210 190/221/212
f 183/214/191 182/213/189 197/228/211 198/229/198
f 176/207/192 175/206/190 190/221/212 191/222/200
f 188/219/208 82/95/16 203/234/213
f 308/352/18 202/233/206 217/248/214
f 196/227/209 195/226/207 210/241/215 211/242/216
f 189/220/210 188/219/208 203/234/213 204/235/217
f 197/228/211 196/227/209 211/242/216 212/243/218
f 190/221/212 189/220/210 204/235/217 205/236/219
f 198/229/198 197/228/211 212/243/218 213/244/220
f 191/222/200 190/221/212 205/236/219 206/237/221
f 199/230/199 198/229/198 213/244/220 214/245/222
f 192/223/201 191/222/200 206/237/221 207/238/223
f 200/231/202 199/230/199 214/245/222 215/246/224
f 193/224/203 192/223/201 207/238/223 208/239/225
f 201/232/204 200/231/202 215/246/224 216/247/226
f 194/225/205 193/224/203 208/239/225 209/240/227
f 202/233/206 201/232/204 216/247/226 217/248/214
f 195/226/207 194/225/205 209/240/227 210/241/215
f 207/238/223 206/237/221 221/252/228 222/253/229
f 215/246/224 214/245/222 229/260/230 230/261/231
f 208/239/225 207/238/223 222/253/229 223/254/232
f 216/247/226 215/246/224 230/261/231 231/262/233
f 209/240/227 208/239/225 223/254/232 224/255/234
f 217/248/214 216/247/226 231/262/233 232/263/235
f 210/241/215 209/240/227 224/255/234 225/256/236
f 203/234/213 82/96/16 218/249/237
f 308/353/18 217/248/214 232/263/235
f 211/242/216 210/241/215 225/256/236 226/257/238
f 204/235/217 203/234/213 218/249/237 219/250/239
f 212/243/218 211/242/216 226/257/238 227/258/240
f 205/236/219 204/235/217 219/250/239 220/251/241
f 213/244/220 212/243/218 227/258/240 228/259/242
f 206/237/221 205/236/219 220/251/241 221/252/228
f 214/245/222 213/244/220 228/259/242 229/260/230
f 226/257/238 225/256/236 240/271/243 241/272/244
f 219/250/239 218/249/237 233/264/245 234/265/246
f 227/258/240 226/257/238 241/272/244 242/273/247
f 220/251/241 219/250/239 234/265/246 235/266/248
f 228/259/242 227/258/240 242/273/247 243/274/249
f 221/252/228 220/251/241 235/266/248 236/267/250
f 229/260/230 228/259/242 243/274/249 244/275/251
f 222/253/229 221/252/228 236/267/250 237/268/252
f 230/261/231 229/260/230 244/275/251 245/276/253
f 223/254/232 222/253/229 237/268/252 238/269/254
f 231/262/233 230/261/231 245/276/253 246/277/255
f 224/255/234 223/254/232 238/269/254 239/270/256
f 232/263/235 231/262/233 246/277/255 247/278/257
f 225/256/236 224/255/234 239/270/256 240/271/243
f 218/249/237 82/97/16 233/264/245
f 308/354/18 232/263/235 247/278/257
f 245/276/253 244/275/251 259/290/258 260/291/259
f 238/269/254 237/268/252 252/283/260 253/284/261
f 246/277/255 245/276/253 260/291/259 261/292/262
f 239/270/256 238/269/254 253/284/261 254/285/263
f 247/278/257 246/277/255 261/292/262 262/293/264
f 240/271/243 239/270/256 254/285/263 255/286/265
f 233/264/245 82/98/16 248/279/266
f 308/355/18 247/278/257 262/293/264
f 241/272/244 240/271/243 255/286/265 256/287/267
f 234/265/246 233/264/245 248/279/266 249/280/268
f 242/273/247 241/272/244 256/287/267 257/288/269
f 235/266/248 234/265/246 249/280/268 250/281/270
f 243/274/249 242/273/247 257/288/269 258/289/271
f 236/267/250 235/266/248 250/281/270 251/282/272
f 244/275/251 243/274/249 258/289/271 259/290/258
f 237/268/252 236/267/250 251/282/272 252/283/260
f 257/288/269 256/287/267 271/302/273 272/303/274
f 250/281/270 249/280/268 264/295/275 265/296/276
f 258/289/271 257/288/269 272/303/274 273/304/277
f 251/282/272 250/281/270 265/296/276 266/297/278
f 259/290/258 258/289/271 273/304/277 274/305/279
f 252/283/260 251/282/272 266/297/278 267/298/280
f 260/291/259 259/290/258 274/305/279 275/306/281
f 253/284/261 252/283/260 267/298/280 268/299/282
f 261/292/262 260/291/259 275/306/281 276/307/283
f 254/285/263 253/284/261 268/299/282 269/300/284
f 262/293/264 261/292/262 276/307/283 277/308/285
f 255/286/265 254/285/263 269/300/284 270/301/286
f 248/279/266 82/99/16 263/294/287
f 308/356/18 262/293/264 277/308/285
f 256/287/267 255/286/265 270/301/286 271/302/273
f 249/280/268 248/279/266 263/294/287 264/295/275
f 276/307/283 275/306/281 290/321/288 291/322/289
f 269/300/284 268/299/282 283/314/290 284/315/291
f 277/308/285 276/307/283 291/322/289 292/323/292
f 270/301/286 269/300/284 284/315/291 285/316/293
f 263/294/287 82/100/16 278/309/294
f 308/357/18 277/308/285 292/323/292
f 271/302/273 270/301/286 285/316/293 286/317/295
f 264/295/275 263/294/287 278/309/294 279/310/296
f 272/303/274 271/302/273 286/317/295 287/318/297
f 265/296/276 264/295/275 279/310/296 280/311/298
f 273/304/277 272/303/274 287/318/297 288/319/299
f 266/297/278 265/296/276 280/311/298 281/312/300
f 274/305/279 273/304/277 288/319/299 289/320/301
f 267/298/280 266/297/278 281/312/300 282/313/302
f 275/306/281 274/305/279 289/320/301 290/321/288
f 268/299/282 267/298/280 282/313/302 283/314/290
f 280/311/298 279/310/296 294/325/303 295/326/304
f 288/319/299 287/318/297 302/333/305 303/334/306
f 281/312/300 280/311/298 295/326/304 296/327/307
f 289/320/301 288/319/299 303/334/306 304/335/308
f 282/313/302 281/312/300 296/327/307 297/328/309
f 290/321/288 289/320/301 304/335/308 305/336/310
f 283/314/290 282/313/302 297/328/309 298/329/311
f 291/322/289 290/321/288 305/336/310 306/337/312
f 284/315/291 283/314/290 298/329/311 299/330/313
f 292/323/292 291/322/289 306/337/312 307/338/314
f 285/316/293 284/315/291 299/330/313 300/331/315
f 278/309/294 82/101/16 293/324/316
f 308/358/18 292/323/292 307/338/314
f 286/317/295 285/316/293 300/331/315 301/332/317
f 279/310/296 278/309/294 293/324/316 294/325/303
f 287/318/297 286/317/295 301/332/317 302/333/305
f 299/330/313 298/329/311 314/376/318 315/377/319
f 307/338/314 306/337/312 322/384/320 323/385/321
f 300/331/315 299/330/313 315/377/319 316/378/322
f 293/324/316 82/102/16 309/371/323
f 308/359/18 307/338/314 323/385/321
f 301/332/317 300/331/315 316/378/322 317/379/324
f 294/325/303 293/324/316 309/371/323 310/372/325
f 302/333/305 301/332/317 317/379/324 318/380/326
f 295/326/304 294/325/303 310/372/325 311/373/327
f 303/334/306 302/333/305 318/380/326 319/381/328
f 296/327/307 295/326/304 311/373/327 312/374/329
f 304/335/308 303/334/306 319/381/328 320/382/330
f 297/328/309 296/327/307 312/374/329 313/375/331
f 305/336/310 304/335/308 320/382/330 321/383/332
f 298/329/311 297/328/309 313/375/331 314/376/318
f 306/337/312 305/336/310 321/383/332 322/384/320
f 319/381/328 318/380/326 333/395/333 334/396/334
f 312/374/329 311/373/327 326/388/335 327/389/336
f 320/382/330 319/381/328 334/396/334 335/397/337
f 313/375/331 312/374/329 327/389/336 328/390/338
f 321/383/332 320/382/330 335/397/337 336/398/339
f 314/376/318 313/375/331 328/390/338 329/391/340
f 322/384/320 321/383/332 336/398/339 337/399/341
f 315/377/319 314/376/318 329/391/340 330/392/342
f 323/385/321 322/384/320 337/399/341 338/400/343
f 316/378/322 315/377/319 330/392/342 331/393/344
f 309/371/323 82/103/16 324/386/345
f 308/360/18 323/385/321 338/400/343
f 317/379/324 316/378/322 331/393/344 332/394/346
f 310/372/325 309/371/323 324/386/345 325/387/347
f 318/380/326 317/379/324 332/394/346 333/395/333
f 311/373/327 310/372/325 325/387/347 326/388/335
f 338/400/343 337/399/341 352/414/348 353/415/349
f 331/393/344 330/392/342 345/407/350 346/408/351
f 324/386/345 82/104/16 339/401/352
f 308/361/18 338/400/343 353/415/349
f 332/394/346 331/393/344 346/408/351 347/409/353
f 325/387/347 324/386/345 339/401/352 340/402/354
f 333/395/333 332/394/346 347/409/353 348/410/355
f 326/388/335 325/387/347 340/402/354 341/403/356
f 334/396/334 333/395/333 348/410/355 349/411/357
f 327/389/336 326/388/335 341/403/356 342/404/358
f 335/397/337 334/396/334 349/411/357 350/412/359
f 328/390/338 327/389/336 342/404/358 343/405/360
f 336/398/339 335/397/337 350/412/359 351/413/361
f 329/391/340 328/390/338 343/405/360 344/406/362
f 337/399/341 336/398/339 351/413/361 352/414/348
f 330/392/342 329/391/340 344/406/362 345/407/350
f 342/404/358 341/403/356 356/420/363 357/422/364
f 350/412/359 349/411/357 364/436/365 365/438/366
f 343/405/360 342/404/358 357/422/364 358/424/367
f 351/413/361 350/412/359 365/438/366 366/440/368
f 344/406/362 343/405/360 358/424/367 359/426/369
f 352/414/348 351/413/361 366/440/368 367/442/370
f 345/407/350 344/406/362 359/426/369 360/428/371
f 353/415/349 352/414/348 367/442/370 368/444/372
f 346/408/351 345/407/350 360/428/371 361/430/373
f 339/401/352 82/105/16 354/416/374
f 308/362/18 353/415/349 368/444/372
f 347/409/353 346/408/351 361/430/373 362/432/375
f 340/402/354 339/401/352 354/416/374 355/418/376
f 348/410/355 347/409/353 362/432/375 363/434/377
f 341/403/356 340/402/354 355/418/376 356/420/363
f 349/411/357 348/410/355 363/434/377 364/436/365
f 361/431/373 360/429/371 375/452/378 376/453/379
f 354/417/374 82/106/16 369/446/380
f 308/363/18 368/445/372 383/460/381
f 362/433/375 361/431/373 376/453/379 377/454/382
f 355/419/376 354/417/374 369/446/380 370/447/383
f 363/435/377 362/433/375 377/454/382 378/455/384
f 356/421/363 355/419/376 370/447/383 371/448/385
f 364/437/365 363/435/377 378/455/384 379/456/386
f 357/423/364 356/421/363 371/448/385 372/449/387
f 365/439/366 364/437/365 379/456/386 380/457/388
f 358/425/367 357/423/364 372/449/387 373/450/389
f 366/441/368 365/439/366 380/457/388 381/458/390
f 359/427/369 358/425/367 373/450/389 374/451/391
f 367/443/370 366/441/368 381/458/390 382/459/392
f 360/429/371 359/427/369 374/451/391 375/452/378
f 368/445/372 367/443/370 382/459/392 383/460/381
f 380/457/388 379/456/386 394/471/393 395/472/394
f 373/450/389 372/449/387 387/464/395 388/465/396
f 381/458/390 380/457/388 395/472/394 396/473/397
f 374/451/391 373/450/389 388/465/396 389/466/398
f 382/459/392 381/458/390 396/473/397 397/474/399
f 375/452/378 374/451/391 389/466/398 390/467/400
f 383/460/381 382/459/392 397/474/399 398/475/401
f 376/453/379 375/452/378 390/467/400 391/468/402
f 369/446/380 82/107/16 384/461/403
f 308/364/18 383/460/381 398/475/401
f 377/454/382 376/453/379 391/468/402 392/469/404
f 370/447/383 369/446/380 384/461/403 385/462/405
f 378/455/384 377/454/382 392/469/404 393/470/406
f 371/448/385 370/447/383 385/462/405 386/463/407
f 379/456/386 378/455/384 393/470/406 394/471/393
f 372/449/387 371/448/385 386/463/407 387/464/395
f 308/365/18 398/475/401 413/490/408
f 392/469/404 391/468/402 406/483/409 407/484/410
f 385/462/405 384/461/403 399/476/411 400/477/412
f 393/470/406 392/469/404 407/484/410 408/485/413
f 386/463/407 385/462/405 400/477/412 401/478/414
f 394/471/393 393/470/406 408/485/413 409/486/415
f 387/464/395 386/463/407 401/478/414 402/479/416
f 395/472/394 394/471/393 409/486/415 410/487/417
f 388/465/396 387/464/395 402/479/416 403/480/418
f 396/473/397 395/472/394 410/487/417 411/488/419
f 389/466/398 388/465/396 403/480/418 404/481/420
f 397/474/399 396/473/397 411/488/419 412/489/421
f 390/467/400 389/466/398 404/481/420 405/482/422
f 398/475/401 397/474/399 412/489/421 413/490/408
f 391/468/402 390/467/400 405/482/422 406/483/409
f 384/461/403 82/108/16 399/476/411
f 411/488/419 410/487/417 425/502/423 426/503/424
f 404/481/420 403/480/418 418/495/425 419/496/426
f 412/489/421 411/488/419 426/503/424 427/504/427
f 405/482/422 404/481/420 419/496/426 420/497/428
f 413/490/408 412/489/421 427/504/427 428/505/429
f 406/483/409 405/482/422 420/497/428 421/498/430
f 399/476/411 82/109/16 414/491/431
f 308/366/18 413/490/408 428/505/429
f 407/484/410 406/483/409 421/498/430 422/499/432
f 400/477/412 399/476/411 414/491/431 415/492/433
f 408/485/413 407/484/410 422/499/432 423/500/434
f 401/478/414 400/477/412 415/492/433 416/493/435
f 409/486/415 408/485/413 423/500/434 424/501/436
f 402/479/416 401/478/414 416/493/435 417/494/437
f 410/487/417 409/486/415 424/501/436 425/502/423
f 403/480/418 402/479/416 417/494/437 418/495/425
f 415/492/433 414/491/431 429/506/438 430/507/439
f 423/500/434 422/499/432 437/514/440 438/515/441
f 416/493/435 415/492/433 430/507/439 431/508/442
f 424/501/436 423/500/434 438/515/441 439/516/443
f 417/494/437 416/493/435 431/508/442 432/509/444
f 425/502/423 424/501/436 439/516/443 440/517/445
f 418/495/425 417/494/437 432/509/444 433/510/446
f 426/503/424 425/502/423 440/517/445 441/518/447
f 419/496/426 418/495/425 433/510/446 434/511/448
f 427/504/427 426/503/424 441/518/447 442/519/449
f 420/497/428 419/496/426 434/511/448 435/512/450
f 428/505/429 427/504/427 442/519/449 443/520/451
f 421/498/430 420/497/428 435/512/450 436/513/452
f 414/491/431 82/110/16 429/506/438
f 308/367/18 428/505/429 443/520/451
f 422/499/432 421/498/430 436/513/452 437/514/440
f 434/511/448 433/510/446 448/525/453 449/526/454
f 442/519/449 441/518/447 456/533/455 457/534/456
f 435/512/450 434/511/448 449/526/454 450/527/457
f 443/520/451 442/519/449 457/534/456 458/535/458
f 436/513/452 435/512/450 450/527/457 451/528/459
f 429/506/438 82/111/16 444/521/460
f 308/368/18 443/520/451 458/535/458
f 437/514/440 436/513/452 451/528/459 452/529/461
f 430/507/439 429/506/438 444/521/460 445/522/462
f 438/515/441 437/514/440 452/529/461 453/530/463
f 431/508/442 430/507/439 445/522/462 446/523/464
f 439/516/443 438/515/441 453/530/463 454/531/465
f 432/509/444 431/508/442 446/523/464 447/524/466
f 440/517/445 439/516/443 454/531/465 455/532/467
f 433/510/446 432/509/444 447/524/466 448/525/453
f 441/518/447 440/517/445 455/532/467 456/533/455
f 453/530/463 452/529/461 467/544/468 468/545/469
f 446/523/464 445/522/462 460/537/470 461/538/471
f 454/531/465 453/530/463 468/545/469 469/546/472
f 447/524/466 446/523/464 461/538/471 462/539/473
f 455/532/467 454/531/465 469/546/472 470/547/474
f 448/525/453 447/524/466 462/539/473 463/540/475
f 456/533/455 455/532/467 470/547/474 471/548/476
f 449/526/454 448/525/453 463/540/475 464/541/477
f 457/534/456 456/533/455 471/548/476 472/549/478
f 450/527/457 449/526/454 464/541/477 465/542/479
f 458/535/458 457/534/456 472/549/478 473/550/480
f 451/528/459 450/527/457 465/542/479 466/543/481
f 444/521/460 82/112/16 459/536/482
f 308/369/18 458/535/458 473/550/480
f 452/529/461 451/528/459 466/543/481 467/544/468
f 445/522/462 444/521/460 459/536/482 460/537/470
f 472/549/478 471/548/476 480/557/6 481/558/5
f 465/542/479 464/541/477 477/554/1 3/3/9
f 473/550/480 472/549/478 481/558/5 482/559/11
f 466/543/481 465/542/479 3/3/9 4/4/13
f 459/536/482 82/113/16 474/551/15
f 308/370/18 473/550/480 482/559/11
f 467/544/468 466/543/481 4/4/13 5/5/19
f 460/537/470 459/536/482 474/551/15 475/552/21
f 468/545/469 467/544/468 5/5/19 478/555/23
f 461/538/471 460/537/470 475/552/21 1/1/25
f 469/546/472 468/545/469 478/555/23 6/6/27
f 462/539/473 461/538/471 1/1/25 476/553/29
f 470/547/474 469/546/472 6/6/27 479/556/31
f 463/540/475 462/539/473 476/553/29 2/2/2
f 471/548/476 470/547/474 479/556/31 480/557/6
f 464/541/477 463/540/475 2/2/2 477/554/1
