# Blender 3.5.0
# www.blender.org
mtllib player_Front.mtl
o player_Front
v 0.500000 -0.001607 -0.000162
v 0.500000 -0.001853 0.000457
v 0.500000 -0.000891 0.000238
v 0.500000 -0.001508 0.000790
v -0.500000 -0.001606 -0.000162
v -0.500000 -0.001852 0.000457
v -0.500000 -0.000891 0.000238
v -0.500000 -0.001508 0.000790
v -0.016572 0.027321 -0.007321
v -0.016572 -0.009309 0.007128
v -0.016572 -0.001622 -0.007176
v -0.016572 -0.027321 0.007321
v 0.013512 0.027321 -0.007321
v 0.013512 -0.027321 0.007321
v 0.013512 0.014594 -0.000808
v 0.013512 -0.016873 -0.000928
vn 1.0000 -0.0000 -0.0000
vn -0.0069 0.3669 0.9302
vn -1.0000 -0.0000 -0.0000
vn 0.0297 -0.9289 -0.3692
vn -0.0153 -0.0050 -0.9999
vn 0.0039 0.1904 0.9817
vn -0.0206 -0.6949 0.7188
vn 0.1318 -0.1419 -0.9811
vn -0.0054 -0.9293 -0.3693
vn -0.0000 0.4556 0.8902
vn 0.0126 0.4555 0.8901
vn -0.0139 0.4877 -0.8729
vn -0.0000 0.0107 0.9999
vn -0.0680 -0.4902 -0.8690
vn 0.0010 0.6668 0.7452
vn 0.0214 -0.6195 -0.7847
vn -0.0126 0.4877 -0.8729
vn -0.0254 -0.6948 0.7187
vn -0.0136 0.0107 0.9998
vn -0.0000 -0.0050 -1.0000
vn -0.0135 -0.4913 -0.8709
vn -0.0461 0.3665 0.9293
vn 0.0196 0.6667 0.7451
vn 0.0071 -0.1432 -0.9897
vn 0.1071 0.1893 0.9761
vn -0.0000 -0.6197 -0.7849
vt 0.375000 1.000000
vt 0.125000 0.750000
vt 0.375000 0.000000
vt 0.625000 0.000000
vt 0.625000 1.000000
vt 0.875000 0.750000
vt 0.375000 0.250000
vt 0.125000 0.500000
vt 0.875000 0.500000
vt 0.625000 0.250000
vt 0.375000 0.750000
vt 0.625000 0.750000
vt 0.375000 0.500000
vt 0.625000 0.500000
vt 0.254143 0.500000
vt 0.375000 0.379143
vt 0.625000 0.379143
vt 0.745857 0.500000
vt 0.254143 0.750000
vt 0.375000 0.870857
vt 0.745857 0.750000
vt 0.625000 0.870857
vt 0.375000 0.371622
vt 0.246622 0.500000
vt 0.753378 0.750000
vt 0.625000 0.878378
vt 0.625000 0.371622
vt 0.753378 0.500000
vt 0.246622 0.750000
vt 0.375000 0.878378
s 0
usemtl Turning
f 1/3/1 3/7/1 4/10/1
f 10/17/2 9/16/2 7/13/2
f 8/14/3 7/13/3 5/11/3
f 16/30/4 1/1/4 2/5/4
f 7/13/5 9/15/5 11/19/5
f 15/28/6 14/25/6 2/6/6
f 10/18/7 8/14/7 6/12/7
f 13/24/8 16/29/8 11/19/8
f 6/12/9 5/11/9 11/20/9
f 15/27/10 13/23/10 9/16/10
f 3/7/11 13/23/11 15/27/11
f 3/8/12 1/2/12 16/29/12
f 10/18/13 12/21/13 14/25/13
f 12/22/14 11/20/14 16/30/14
f 1/3/1 4/10/1 2/4/1
f 10/17/15 7/13/15 8/14/15
f 8/14/3 5/11/3 6/12/3
f 16/30/16 2/5/16 14/26/16
f 7/13/17 11/19/17 5/11/17
f 15/28/18 2/6/18 4/9/18
f 10/18/19 6/12/19 12/21/19
f 13/24/20 11/19/20 9/15/20
f 6/12/21 11/20/21 12/22/21
f 15/27/22 9/16/22 10/17/22
f 3/7/23 15/27/23 4/10/23
f 3/8/24 16/29/24 13/24/24
f 10/18/25 14/25/25 15/28/25
f 12/22/26 16/30/26 14/26/26
