# Blender 3.5.0
# www.blender.org
mtllib AButton.mtl
o 立方体.002
v -0.245781 0.588603 0.143021
v 0.245781 0.588603 0.143021
v -0.245781 0.588603 -0.143021
v 0.245781 0.588603 -0.143021
v -0.245781 0.468603 0.143021
v 0.245781 0.468603 0.143021
v -0.245781 0.468603 -0.143021
v 0.245781 0.468603 -0.143021
v 0.341226 0.067844 0.143021
v -0.045029 1.267844 0.143021
v 0.341226 0.067844 -0.143021
v -0.045029 1.267844 -0.143021
v 0.467268 0.067844 0.143021
v 0.079671 1.267844 0.143021
v 0.467268 0.067844 -0.143021
v 0.079671 1.267844 -0.143021
v -0.461037 0.067844 0.143021
v -0.066076 1.267844 0.143021
v -0.461037 0.067844 -0.143021
v -0.066076 1.267844 -0.143021
v -0.334996 0.067844 0.143021
v 0.078007 1.267844 0.143021
v -0.334996 0.067844 -0.143021
v 0.078007 1.267844 -0.143021
vn -0.0000 1.0000 -0.0000
vn -0.0000 -0.0000 -1.0000
vn -0.0000 -1.0000 -0.0000
vn -0.0000 -0.0000 1.0000
vn -1.0000 -0.0000 -0.0000
vn 1.0000 -0.0000 -0.0000
vn -0.9519 -0.3064 -0.0000
vn 0.9516 0.3074 -0.0000
vn -0.9499 0.3126 -0.0000
vn 0.9456 -0.3254 -0.0000
vt 0.693300 0.687117
vt 0.693300 0.736445
vt 0.693300 0.736445
vt 0.643972 0.736445
vt 0.742628 0.687117
vt 0.643972 0.687117
vt 0.742628 0.785773
vt 0.693300 0.687117
vt 0.643972 0.736445
vt 0.693300 0.785773
vt 0.742628 0.637789
vt 0.643972 0.637789
vt 0.693300 0.785773
vt 0.742628 0.736445
vt 0.643972 0.687117
vt 0.643972 0.785773
vt 0.693300 0.687117
vt 0.742628 0.736445
vt 0.693300 0.637789
vt 0.742628 0.687117
vt 0.693300 0.736445
vt 0.693300 0.687117
vt 0.693300 0.637789
vt 0.375000 0.000000
vt 0.375000 1.000000
vt 0.125000 0.750000
vt 0.625000 0.000000
vt 0.625000 1.000000
vt 0.875000 0.750000
vt 0.375000 0.250000
vt 0.125000 0.500000
vt 0.625000 0.250000
vt 0.875000 0.500000
vt 0.375000 0.750000
vt 0.625000 0.750000
vt 0.375000 0.500000
vt 0.625000 0.500000
vt 0.375000 0.000000
vt 0.375000 1.000000
vt 0.125000 0.750000
vt 0.625000 0.000000
vt 0.625000 1.000000
vt 0.875000 0.750000
vt 0.375000 0.250000
vt 0.125000 0.500000
vt 0.625000 0.250000
vt 0.875000 0.500000
vt 0.375000 0.750000
vt 0.625000 0.750000
vt 0.375000 0.500000
vt 0.625000 0.500000
s 0
usemtl マテリアル
f 1/1/1 2/3/1 4/9/1 3/6/1
f 3/7/2 4/10/2 8/21/2 7/18/2
f 7/19/3 8/22/3 6/15/3 5/12/3
f 5/13/4 6/16/4 2/4/4 1/2/4
f 3/8/5 7/20/5 5/14/5 1/2/5
f 8/23/6 4/11/6 2/5/6 6/17/6
f 9/24/7 10/27/7 12/32/7 11/30/7
f 11/30/2 12/32/2 16/37/2 15/36/2
f 15/36/8 16/37/8 14/35/8 13/34/8
f 13/34/4 14/35/4 10/28/4 9/25/4
f 11/31/3 15/36/3 13/34/3 9/26/3
f 16/37/1 12/33/1 10/29/1 14/35/1
f 17/38/9 18/41/9 20/46/9 19/44/9
f 19/44/2 20/46/2 24/51/2 23/50/2
f 23/50/10 24/51/10 22/49/10 21/48/10
f 21/48/4 22/49/4 18/42/4 17/39/4
f 19/45/3 23/50/3 21/48/3 17/40/3
f 24/51/1 20/47/1 18/43/1 22/49/1
